%TF.GenerationSoftware,KiCad,Pcbnew,(5.1.10)-1*%
%TF.CreationDate,2024-07-04T18:25:42+02:00*%
%TF.ProjectId,ApiaryWaterDispensingSystem,41706961-7279-4576-9174-657244697370,rev?*%
%TF.SameCoordinates,Original*%
%TF.FileFunction,Legend,Top*%
%TF.FilePolarity,Positive*%
%FSLAX46Y46*%
G04 Gerber Fmt 4.6, Leading zero omitted, Abs format (unit mm)*
G04 Created by KiCad (PCBNEW (5.1.10)-1) date 2024-07-04 18:25:42*
%MOMM*%
%LPD*%
G01*
G04 APERTURE LIST*
%ADD10C,0.125000*%
%ADD11C,0.150000*%
%ADD12C,0.120000*%
G04 APERTURE END LIST*
D10*
X105552380Y-90226190D02*
X105552380Y-89726190D01*
X105671428Y-89726190D01*
X105742857Y-89750000D01*
X105790476Y-89797619D01*
X105814285Y-89845238D01*
X105838095Y-89940476D01*
X105838095Y-90011904D01*
X105814285Y-90107142D01*
X105790476Y-90154761D01*
X105742857Y-90202380D01*
X105671428Y-90226190D01*
X105552380Y-90226190D01*
X106338095Y-90226190D02*
X106171428Y-89988095D01*
X106052380Y-90226190D02*
X106052380Y-89726190D01*
X106242857Y-89726190D01*
X106290476Y-89750000D01*
X106314285Y-89773809D01*
X106338095Y-89821428D01*
X106338095Y-89892857D01*
X106314285Y-89940476D01*
X106290476Y-89964285D01*
X106242857Y-89988095D01*
X106052380Y-89988095D01*
X106480952Y-89726190D02*
X106647619Y-90226190D01*
X106814285Y-89726190D01*
X107052380Y-89940476D02*
X107004761Y-89916666D01*
X106980952Y-89892857D01*
X106957142Y-89845238D01*
X106957142Y-89821428D01*
X106980952Y-89773809D01*
X107004761Y-89750000D01*
X107052380Y-89726190D01*
X107147619Y-89726190D01*
X107195238Y-89750000D01*
X107219047Y-89773809D01*
X107242857Y-89821428D01*
X107242857Y-89845238D01*
X107219047Y-89892857D01*
X107195238Y-89916666D01*
X107147619Y-89940476D01*
X107052380Y-89940476D01*
X107004761Y-89964285D01*
X106980952Y-89988095D01*
X106957142Y-90035714D01*
X106957142Y-90130952D01*
X106980952Y-90178571D01*
X107004761Y-90202380D01*
X107052380Y-90226190D01*
X107147619Y-90226190D01*
X107195238Y-90202380D01*
X107219047Y-90178571D01*
X107242857Y-90130952D01*
X107242857Y-90035714D01*
X107219047Y-89988095D01*
X107195238Y-89964285D01*
X107147619Y-89940476D01*
X107528571Y-89940476D02*
X107480952Y-89916666D01*
X107457142Y-89892857D01*
X107433333Y-89845238D01*
X107433333Y-89821428D01*
X107457142Y-89773809D01*
X107480952Y-89750000D01*
X107528571Y-89726190D01*
X107623809Y-89726190D01*
X107671428Y-89750000D01*
X107695238Y-89773809D01*
X107719047Y-89821428D01*
X107719047Y-89845238D01*
X107695238Y-89892857D01*
X107671428Y-89916666D01*
X107623809Y-89940476D01*
X107528571Y-89940476D01*
X107480952Y-89964285D01*
X107457142Y-89988095D01*
X107433333Y-90035714D01*
X107433333Y-90130952D01*
X107457142Y-90178571D01*
X107480952Y-90202380D01*
X107528571Y-90226190D01*
X107623809Y-90226190D01*
X107671428Y-90202380D01*
X107695238Y-90178571D01*
X107719047Y-90130952D01*
X107719047Y-90035714D01*
X107695238Y-89988095D01*
X107671428Y-89964285D01*
X107623809Y-89940476D01*
X107885714Y-89726190D02*
X108195238Y-89726190D01*
X108028571Y-89916666D01*
X108100000Y-89916666D01*
X108147619Y-89940476D01*
X108171428Y-89964285D01*
X108195238Y-90011904D01*
X108195238Y-90130952D01*
X108171428Y-90178571D01*
X108147619Y-90202380D01*
X108100000Y-90226190D01*
X107957142Y-90226190D01*
X107909523Y-90202380D01*
X107885714Y-90178571D01*
X108647619Y-89726190D02*
X108409523Y-89726190D01*
X108385714Y-89964285D01*
X108409523Y-89940476D01*
X108457142Y-89916666D01*
X108576190Y-89916666D01*
X108623809Y-89940476D01*
X108647619Y-89964285D01*
X108671428Y-90011904D01*
X108671428Y-90130952D01*
X108647619Y-90178571D01*
X108623809Y-90202380D01*
X108576190Y-90226190D01*
X108457142Y-90226190D01*
X108409523Y-90202380D01*
X108385714Y-90178571D01*
X94371428Y-111726190D02*
X94371428Y-111226190D01*
X94561904Y-111226190D01*
X94609523Y-111250000D01*
X94633333Y-111273809D01*
X94657142Y-111321428D01*
X94657142Y-111392857D01*
X94633333Y-111440476D01*
X94609523Y-111464285D01*
X94561904Y-111488095D01*
X94371428Y-111488095D01*
X94871428Y-111226190D02*
X94871428Y-111630952D01*
X94895238Y-111678571D01*
X94919047Y-111702380D01*
X94966666Y-111726190D01*
X95061904Y-111726190D01*
X95109523Y-111702380D01*
X95133333Y-111678571D01*
X95157142Y-111630952D01*
X95157142Y-111226190D01*
X95395238Y-111726190D02*
X95395238Y-111226190D01*
X95561904Y-111583333D01*
X95728571Y-111226190D01*
X95728571Y-111726190D01*
X95966666Y-111726190D02*
X95966666Y-111226190D01*
X96157142Y-111226190D01*
X96204761Y-111250000D01*
X96228571Y-111273809D01*
X96252380Y-111321428D01*
X96252380Y-111392857D01*
X96228571Y-111440476D01*
X96204761Y-111464285D01*
X96157142Y-111488095D01*
X95966666Y-111488095D01*
X98435714Y-95983333D02*
X98411904Y-96054761D01*
X98388095Y-96078571D01*
X98340476Y-96102380D01*
X98269047Y-96102380D01*
X98221428Y-96078571D01*
X98197619Y-96054761D01*
X98173809Y-96007142D01*
X98173809Y-95816666D01*
X98673809Y-95816666D01*
X98673809Y-95983333D01*
X98650000Y-96030952D01*
X98626190Y-96054761D01*
X98578571Y-96078571D01*
X98530952Y-96078571D01*
X98483333Y-96054761D01*
X98459523Y-96030952D01*
X98435714Y-95983333D01*
X98435714Y-95816666D01*
X98673809Y-96411904D02*
X98673809Y-96507142D01*
X98650000Y-96554761D01*
X98602380Y-96602380D01*
X98507142Y-96626190D01*
X98340476Y-96626190D01*
X98245238Y-96602380D01*
X98197619Y-96554761D01*
X98173809Y-96507142D01*
X98173809Y-96411904D01*
X98197619Y-96364285D01*
X98245238Y-96316666D01*
X98340476Y-96292857D01*
X98507142Y-96292857D01*
X98602380Y-96316666D01*
X98650000Y-96364285D01*
X98673809Y-96411904D01*
X98673809Y-96935714D02*
X98673809Y-97030952D01*
X98650000Y-97078571D01*
X98602380Y-97126190D01*
X98507142Y-97150000D01*
X98340476Y-97150000D01*
X98245238Y-97126190D01*
X98197619Y-97078571D01*
X98173809Y-97030952D01*
X98173809Y-96935714D01*
X98197619Y-96888095D01*
X98245238Y-96840476D01*
X98340476Y-96816666D01*
X98507142Y-96816666D01*
X98602380Y-96840476D01*
X98650000Y-96888095D01*
X98673809Y-96935714D01*
X98197619Y-97340476D02*
X98173809Y-97411904D01*
X98173809Y-97530952D01*
X98197619Y-97578571D01*
X98221428Y-97602380D01*
X98269047Y-97626190D01*
X98316666Y-97626190D01*
X98364285Y-97602380D01*
X98388095Y-97578571D01*
X98411904Y-97530952D01*
X98435714Y-97435714D01*
X98459523Y-97388095D01*
X98483333Y-97364285D01*
X98530952Y-97340476D01*
X98578571Y-97340476D01*
X98626190Y-97364285D01*
X98650000Y-97388095D01*
X98673809Y-97435714D01*
X98673809Y-97554761D01*
X98650000Y-97626190D01*
X98673809Y-97769047D02*
X98673809Y-98054761D01*
X98173809Y-97911904D02*
X98673809Y-97911904D01*
X86697619Y-95316666D02*
X86673809Y-95388095D01*
X86673809Y-95507142D01*
X86697619Y-95554761D01*
X86721428Y-95578571D01*
X86769047Y-95602380D01*
X86816666Y-95602380D01*
X86864285Y-95578571D01*
X86888095Y-95554761D01*
X86911904Y-95507142D01*
X86935714Y-95411904D01*
X86959523Y-95364285D01*
X86983333Y-95340476D01*
X87030952Y-95316666D01*
X87078571Y-95316666D01*
X87126190Y-95340476D01*
X87150000Y-95364285D01*
X87173809Y-95411904D01*
X87173809Y-95530952D01*
X87150000Y-95602380D01*
X86697619Y-95792857D02*
X86673809Y-95864285D01*
X86673809Y-95983333D01*
X86697619Y-96030952D01*
X86721428Y-96054761D01*
X86769047Y-96078571D01*
X86816666Y-96078571D01*
X86864285Y-96054761D01*
X86888095Y-96030952D01*
X86911904Y-95983333D01*
X86935714Y-95888095D01*
X86959523Y-95840476D01*
X86983333Y-95816666D01*
X87030952Y-95792857D01*
X87078571Y-95792857D01*
X87126190Y-95816666D01*
X87150000Y-95840476D01*
X87173809Y-95888095D01*
X87173809Y-96007142D01*
X87150000Y-96078571D01*
X86673809Y-96292857D02*
X87173809Y-96292857D01*
X87173809Y-96411904D01*
X87150000Y-96483333D01*
X87102380Y-96530952D01*
X87054761Y-96554761D01*
X86959523Y-96578571D01*
X86888095Y-96578571D01*
X86792857Y-96554761D01*
X86745238Y-96530952D01*
X86697619Y-96483333D01*
X86673809Y-96411904D01*
X86673809Y-96292857D01*
X86673809Y-97054761D02*
X86673809Y-96769047D01*
X86673809Y-96911904D02*
X87173809Y-96911904D01*
X87102380Y-96864285D01*
X87054761Y-96816666D01*
X87030952Y-96769047D01*
X87173809Y-97221428D02*
X87173809Y-97530952D01*
X86983333Y-97364285D01*
X86983333Y-97435714D01*
X86959523Y-97483333D01*
X86935714Y-97507142D01*
X86888095Y-97530952D01*
X86769047Y-97530952D01*
X86721428Y-97507142D01*
X86697619Y-97483333D01*
X86673809Y-97435714D01*
X86673809Y-97292857D01*
X86697619Y-97245238D01*
X86721428Y-97221428D01*
X87173809Y-97840476D02*
X87173809Y-97888095D01*
X87150000Y-97935714D01*
X87126190Y-97959523D01*
X87078571Y-97983333D01*
X86983333Y-98007142D01*
X86864285Y-98007142D01*
X86769047Y-97983333D01*
X86721428Y-97959523D01*
X86697619Y-97935714D01*
X86673809Y-97888095D01*
X86673809Y-97840476D01*
X86697619Y-97792857D01*
X86721428Y-97769047D01*
X86769047Y-97745238D01*
X86864285Y-97721428D01*
X86983333Y-97721428D01*
X87078571Y-97745238D01*
X87126190Y-97769047D01*
X87150000Y-97792857D01*
X87173809Y-97840476D01*
X87173809Y-98435714D02*
X87173809Y-98340476D01*
X87150000Y-98292857D01*
X87126190Y-98269047D01*
X87054761Y-98221428D01*
X86959523Y-98197619D01*
X86769047Y-98197619D01*
X86721428Y-98221428D01*
X86697619Y-98245238D01*
X86673809Y-98292857D01*
X86673809Y-98388095D01*
X86697619Y-98435714D01*
X86721428Y-98459523D01*
X86769047Y-98483333D01*
X86888095Y-98483333D01*
X86935714Y-98459523D01*
X86959523Y-98435714D01*
X86983333Y-98388095D01*
X86983333Y-98292857D01*
X86959523Y-98245238D01*
X86935714Y-98221428D01*
X86888095Y-98197619D01*
X98978571Y-85326190D02*
X98978571Y-84826190D01*
X99097619Y-84826190D01*
X99169047Y-84850000D01*
X99216666Y-84897619D01*
X99240476Y-84945238D01*
X99264285Y-85040476D01*
X99264285Y-85111904D01*
X99240476Y-85207142D01*
X99216666Y-85254761D01*
X99169047Y-85302380D01*
X99097619Y-85326190D01*
X98978571Y-85326190D01*
X99454761Y-85302380D02*
X99526190Y-85326190D01*
X99645238Y-85326190D01*
X99692857Y-85302380D01*
X99716666Y-85278571D01*
X99740476Y-85230952D01*
X99740476Y-85183333D01*
X99716666Y-85135714D01*
X99692857Y-85111904D01*
X99645238Y-85088095D01*
X99550000Y-85064285D01*
X99502380Y-85040476D01*
X99478571Y-85016666D01*
X99454761Y-84969047D01*
X99454761Y-84921428D01*
X99478571Y-84873809D01*
X99502380Y-84850000D01*
X99550000Y-84826190D01*
X99669047Y-84826190D01*
X99740476Y-84850000D01*
X99907142Y-84826190D02*
X100216666Y-84826190D01*
X100050000Y-85016666D01*
X100121428Y-85016666D01*
X100169047Y-85040476D01*
X100192857Y-85064285D01*
X100216666Y-85111904D01*
X100216666Y-85230952D01*
X100192857Y-85278571D01*
X100169047Y-85302380D01*
X100121428Y-85326190D01*
X99978571Y-85326190D01*
X99930952Y-85302380D01*
X99907142Y-85278571D01*
X100407142Y-84873809D02*
X100430952Y-84850000D01*
X100478571Y-84826190D01*
X100597619Y-84826190D01*
X100645238Y-84850000D01*
X100669047Y-84873809D01*
X100692857Y-84921428D01*
X100692857Y-84969047D01*
X100669047Y-85040476D01*
X100383333Y-85326190D01*
X100692857Y-85326190D01*
X100859523Y-84826190D02*
X101169047Y-84826190D01*
X101002380Y-85016666D01*
X101073809Y-85016666D01*
X101121428Y-85040476D01*
X101145238Y-85064285D01*
X101169047Y-85111904D01*
X101169047Y-85230952D01*
X101145238Y-85278571D01*
X101121428Y-85302380D01*
X101073809Y-85326190D01*
X100930952Y-85326190D01*
X100883333Y-85302380D01*
X100859523Y-85278571D01*
X101645238Y-85326190D02*
X101359523Y-85326190D01*
X101502380Y-85326190D02*
X101502380Y-84826190D01*
X101454761Y-84897619D01*
X101407142Y-84945238D01*
X101359523Y-84969047D01*
D11*
X53157142Y-55652380D02*
X53157142Y-54652380D01*
X53395238Y-54652380D01*
X53538095Y-54700000D01*
X53633333Y-54795238D01*
X53680952Y-54890476D01*
X53728571Y-55080952D01*
X53728571Y-55223809D01*
X53680952Y-55414285D01*
X53633333Y-55509523D01*
X53538095Y-55604761D01*
X53395238Y-55652380D01*
X53157142Y-55652380D01*
X54538095Y-55604761D02*
X54442857Y-55652380D01*
X54252380Y-55652380D01*
X54157142Y-55604761D01*
X54109523Y-55509523D01*
X54109523Y-55128571D01*
X54157142Y-55033333D01*
X54252380Y-54985714D01*
X54442857Y-54985714D01*
X54538095Y-55033333D01*
X54585714Y-55128571D01*
X54585714Y-55223809D01*
X54109523Y-55319047D01*
X54966666Y-55604761D02*
X55061904Y-55652380D01*
X55252380Y-55652380D01*
X55347619Y-55604761D01*
X55395238Y-55509523D01*
X55395238Y-55461904D01*
X55347619Y-55366666D01*
X55252380Y-55319047D01*
X55109523Y-55319047D01*
X55014285Y-55271428D01*
X54966666Y-55176190D01*
X54966666Y-55128571D01*
X55014285Y-55033333D01*
X55109523Y-54985714D01*
X55252380Y-54985714D01*
X55347619Y-55033333D01*
X55823809Y-55652380D02*
X55823809Y-54985714D01*
X55823809Y-54652380D02*
X55776190Y-54700000D01*
X55823809Y-54747619D01*
X55871428Y-54700000D01*
X55823809Y-54652380D01*
X55823809Y-54747619D01*
X56728571Y-54985714D02*
X56728571Y-55795238D01*
X56680952Y-55890476D01*
X56633333Y-55938095D01*
X56538095Y-55985714D01*
X56395238Y-55985714D01*
X56300000Y-55938095D01*
X56728571Y-55604761D02*
X56633333Y-55652380D01*
X56442857Y-55652380D01*
X56347619Y-55604761D01*
X56300000Y-55557142D01*
X56252380Y-55461904D01*
X56252380Y-55176190D01*
X56300000Y-55080952D01*
X56347619Y-55033333D01*
X56442857Y-54985714D01*
X56633333Y-54985714D01*
X56728571Y-55033333D01*
X57204761Y-54985714D02*
X57204761Y-55652380D01*
X57204761Y-55080952D02*
X57252380Y-55033333D01*
X57347619Y-54985714D01*
X57490476Y-54985714D01*
X57585714Y-55033333D01*
X57633333Y-55128571D01*
X57633333Y-55652380D01*
X58490476Y-55604761D02*
X58395238Y-55652380D01*
X58204761Y-55652380D01*
X58109523Y-55604761D01*
X58061904Y-55509523D01*
X58061904Y-55128571D01*
X58109523Y-55033333D01*
X58204761Y-54985714D01*
X58395238Y-54985714D01*
X58490476Y-55033333D01*
X58538095Y-55128571D01*
X58538095Y-55223809D01*
X58061904Y-55319047D01*
X59395238Y-55652380D02*
X59395238Y-54652380D01*
X59395238Y-55604761D02*
X59300000Y-55652380D01*
X59109523Y-55652380D01*
X59014285Y-55604761D01*
X58966666Y-55557142D01*
X58919047Y-55461904D01*
X58919047Y-55176190D01*
X58966666Y-55080952D01*
X59014285Y-55033333D01*
X59109523Y-54985714D01*
X59300000Y-54985714D01*
X59395238Y-55033333D01*
X60633333Y-55652380D02*
X60633333Y-54652380D01*
X60633333Y-55033333D02*
X60728571Y-54985714D01*
X60919047Y-54985714D01*
X61014285Y-55033333D01*
X61061904Y-55080952D01*
X61109523Y-55176190D01*
X61109523Y-55461904D01*
X61061904Y-55557142D01*
X61014285Y-55604761D01*
X60919047Y-55652380D01*
X60728571Y-55652380D01*
X60633333Y-55604761D01*
X61442857Y-54985714D02*
X61680952Y-55652380D01*
X61919047Y-54985714D02*
X61680952Y-55652380D01*
X61585714Y-55890476D01*
X61538095Y-55938095D01*
X61442857Y-55985714D01*
X63061904Y-55652380D02*
X63061904Y-54985714D01*
X63061904Y-54652380D02*
X63014285Y-54700000D01*
X63061904Y-54747619D01*
X63109523Y-54700000D01*
X63061904Y-54652380D01*
X63061904Y-54747619D01*
X63538095Y-54985714D02*
X63538095Y-55652380D01*
X63538095Y-55080952D02*
X63585714Y-55033333D01*
X63680952Y-54985714D01*
X63823809Y-54985714D01*
X63919047Y-55033333D01*
X63966666Y-55128571D01*
X63966666Y-55652380D01*
X64347619Y-54985714D02*
X64871428Y-54985714D01*
X64347619Y-55652380D01*
X64871428Y-55652380D01*
X64633333Y-54652380D02*
X64585714Y-54700000D01*
X64633333Y-54747619D01*
X64680952Y-54700000D01*
X64633333Y-54652380D01*
X64633333Y-54747619D01*
X65252380Y-55557142D02*
X65300000Y-55604761D01*
X65252380Y-55652380D01*
X65204761Y-55604761D01*
X65252380Y-55557142D01*
X65252380Y-55652380D01*
X66490476Y-55652380D02*
X66490476Y-54652380D01*
X66823809Y-55366666D01*
X67157142Y-54652380D01*
X67157142Y-55652380D01*
X68061904Y-55652380D02*
X68061904Y-55128571D01*
X68014285Y-55033333D01*
X67919047Y-54985714D01*
X67728571Y-54985714D01*
X67633333Y-55033333D01*
X68061904Y-55604761D02*
X67966666Y-55652380D01*
X67728571Y-55652380D01*
X67633333Y-55604761D01*
X67585714Y-55509523D01*
X67585714Y-55414285D01*
X67633333Y-55319047D01*
X67728571Y-55271428D01*
X67966666Y-55271428D01*
X68061904Y-55223809D01*
X68395238Y-54985714D02*
X68776190Y-54985714D01*
X68538095Y-54652380D02*
X68538095Y-55509523D01*
X68585714Y-55604761D01*
X68680952Y-55652380D01*
X68776190Y-55652380D01*
X69490476Y-55604761D02*
X69395238Y-55652380D01*
X69204761Y-55652380D01*
X69109523Y-55604761D01*
X69061904Y-55509523D01*
X69061904Y-55128571D01*
X69109523Y-55033333D01*
X69204761Y-54985714D01*
X69395238Y-54985714D01*
X69490476Y-55033333D01*
X69538095Y-55128571D01*
X69538095Y-55223809D01*
X69061904Y-55319047D01*
X70395238Y-54985714D02*
X70395238Y-55652380D01*
X69966666Y-54985714D02*
X69966666Y-55509523D01*
X70014285Y-55604761D01*
X70109523Y-55652380D01*
X70252380Y-55652380D01*
X70347619Y-55604761D01*
X70395238Y-55557142D01*
X70823809Y-55604761D02*
X70919047Y-55652380D01*
X71109523Y-55652380D01*
X71204761Y-55604761D01*
X71252380Y-55509523D01*
X71252380Y-55461904D01*
X71204761Y-55366666D01*
X71109523Y-55319047D01*
X70966666Y-55319047D01*
X70871428Y-55271428D01*
X70823809Y-55176190D01*
X70823809Y-55128571D01*
X70871428Y-55033333D01*
X70966666Y-54985714D01*
X71109523Y-54985714D01*
X71204761Y-55033333D01*
X71585714Y-54985714D02*
X72109523Y-54985714D01*
X71585714Y-55652380D01*
X72109523Y-55652380D01*
X73157142Y-54652380D02*
X73395238Y-55652380D01*
X73585714Y-54938095D01*
X73776190Y-55652380D01*
X74014285Y-54652380D01*
X74538095Y-55652380D02*
X74442857Y-55604761D01*
X74395238Y-55557142D01*
X74347619Y-55461904D01*
X74347619Y-55176190D01*
X74395238Y-55080952D01*
X74442857Y-55033333D01*
X74538095Y-54985714D01*
X74680952Y-54985714D01*
X74776190Y-55033333D01*
X74823809Y-55080952D01*
X74871428Y-55176190D01*
X74871428Y-55461904D01*
X74823809Y-55557142D01*
X74776190Y-55604761D01*
X74680952Y-55652380D01*
X74538095Y-55652380D01*
X75300000Y-55652380D02*
X75300000Y-54985714D01*
X75300000Y-55176190D02*
X75347619Y-55080952D01*
X75395238Y-55033333D01*
X75490476Y-54985714D01*
X75585714Y-54985714D01*
X76061904Y-55652380D02*
X75966666Y-55604761D01*
X75919047Y-55557142D01*
X75871428Y-55461904D01*
X75871428Y-55176190D01*
X75919047Y-55080952D01*
X75966666Y-55033333D01*
X76061904Y-54985714D01*
X76204761Y-54985714D01*
X76300000Y-55033333D01*
X76347619Y-55080952D01*
X76395238Y-55176190D01*
X76395238Y-55461904D01*
X76347619Y-55557142D01*
X76300000Y-55604761D01*
X76204761Y-55652380D01*
X76061904Y-55652380D01*
X76680952Y-54985714D02*
X77061904Y-54985714D01*
X76823809Y-54652380D02*
X76823809Y-55509523D01*
X76871428Y-55604761D01*
X76966666Y-55652380D01*
X77061904Y-55652380D01*
X77395238Y-54985714D02*
X77395238Y-55652380D01*
X77395238Y-55080952D02*
X77442857Y-55033333D01*
X77538095Y-54985714D01*
X77680952Y-54985714D01*
X77776190Y-55033333D01*
X77823809Y-55128571D01*
X77823809Y-55652380D01*
X78299999Y-55652380D02*
X78299999Y-54985714D01*
X78299999Y-54652380D02*
X78252380Y-54700000D01*
X78299999Y-54747619D01*
X78347619Y-54700000D01*
X78299999Y-54652380D01*
X78299999Y-54747619D01*
X79204761Y-55604761D02*
X79109523Y-55652380D01*
X78919047Y-55652380D01*
X78823809Y-55604761D01*
X78776190Y-55557142D01*
X78728571Y-55461904D01*
X78728571Y-55176190D01*
X78776190Y-55080952D01*
X78823809Y-55033333D01*
X78919047Y-54985714D01*
X79109523Y-54985714D01*
X79204761Y-55033333D01*
X79633333Y-55652380D02*
X79633333Y-54652380D01*
X79728571Y-55271428D02*
X80014285Y-55652380D01*
X80014285Y-54985714D02*
X79633333Y-55366666D01*
X80442857Y-55652380D02*
X80442857Y-54985714D01*
X80442857Y-54652380D02*
X80395238Y-54700000D01*
X80442857Y-54747619D01*
X80490476Y-54700000D01*
X80442857Y-54652380D01*
X80442857Y-54747619D01*
D10*
X66380952Y-59326190D02*
X66690476Y-59326190D01*
X66523809Y-59516666D01*
X66595238Y-59516666D01*
X66642857Y-59540476D01*
X66666666Y-59564285D01*
X66690476Y-59611904D01*
X66690476Y-59730952D01*
X66666666Y-59778571D01*
X66642857Y-59802380D01*
X66595238Y-59826190D01*
X66452380Y-59826190D01*
X66404761Y-59802380D01*
X66380952Y-59778571D01*
X66833333Y-59326190D02*
X67000000Y-59826190D01*
X67166666Y-59326190D01*
X67285714Y-59326190D02*
X67595238Y-59326190D01*
X67428571Y-59516666D01*
X67500000Y-59516666D01*
X67547619Y-59540476D01*
X67571428Y-59564285D01*
X67595238Y-59611904D01*
X67595238Y-59730952D01*
X67571428Y-59778571D01*
X67547619Y-59802380D01*
X67500000Y-59826190D01*
X67357142Y-59826190D01*
X67309523Y-59802380D01*
X67285714Y-59778571D01*
X74252380Y-64502380D02*
X74323809Y-64526190D01*
X74442857Y-64526190D01*
X74490476Y-64502380D01*
X74514285Y-64478571D01*
X74538095Y-64430952D01*
X74538095Y-64383333D01*
X74514285Y-64335714D01*
X74490476Y-64311904D01*
X74442857Y-64288095D01*
X74347619Y-64264285D01*
X74300000Y-64240476D01*
X74276190Y-64216666D01*
X74252380Y-64169047D01*
X74252380Y-64121428D01*
X74276190Y-64073809D01*
X74300000Y-64050000D01*
X74347619Y-64026190D01*
X74466666Y-64026190D01*
X74538095Y-64050000D01*
X74752380Y-64526190D02*
X74752380Y-64026190D01*
X74871428Y-64026190D01*
X74942857Y-64050000D01*
X74990476Y-64097619D01*
X75014285Y-64145238D01*
X75038095Y-64240476D01*
X75038095Y-64311904D01*
X75014285Y-64407142D01*
X74990476Y-64454761D01*
X74942857Y-64502380D01*
X74871428Y-64526190D01*
X74752380Y-64526190D01*
X75919047Y-64478571D02*
X75895238Y-64502380D01*
X75823809Y-64526190D01*
X75776190Y-64526190D01*
X75704761Y-64502380D01*
X75657142Y-64454761D01*
X75633333Y-64407142D01*
X75609523Y-64311904D01*
X75609523Y-64240476D01*
X75633333Y-64145238D01*
X75657142Y-64097619D01*
X75704761Y-64050000D01*
X75776190Y-64026190D01*
X75823809Y-64026190D01*
X75895238Y-64050000D01*
X75919047Y-64073809D01*
X76109523Y-64383333D02*
X76347619Y-64383333D01*
X76061904Y-64526190D02*
X76228571Y-64026190D01*
X76395238Y-64526190D01*
X76847619Y-64526190D02*
X76680952Y-64288095D01*
X76561904Y-64526190D02*
X76561904Y-64026190D01*
X76752380Y-64026190D01*
X76800000Y-64050000D01*
X76823809Y-64073809D01*
X76847619Y-64121428D01*
X76847619Y-64192857D01*
X76823809Y-64240476D01*
X76800000Y-64264285D01*
X76752380Y-64288095D01*
X76561904Y-64288095D01*
X77061904Y-64526190D02*
X77061904Y-64026190D01*
X77180952Y-64026190D01*
X77252380Y-64050000D01*
X77300000Y-64097619D01*
X77323809Y-64145238D01*
X77347619Y-64240476D01*
X77347619Y-64311904D01*
X77323809Y-64407142D01*
X77300000Y-64454761D01*
X77252380Y-64502380D01*
X77180952Y-64526190D01*
X77061904Y-64526190D01*
X110680952Y-104626190D02*
X110990476Y-104626190D01*
X110823809Y-104816666D01*
X110895238Y-104816666D01*
X110942857Y-104840476D01*
X110966666Y-104864285D01*
X110990476Y-104911904D01*
X110990476Y-105030952D01*
X110966666Y-105078571D01*
X110942857Y-105102380D01*
X110895238Y-105126190D01*
X110752380Y-105126190D01*
X110704761Y-105102380D01*
X110680952Y-105078571D01*
X111133333Y-104626190D02*
X111300000Y-105126190D01*
X111466666Y-104626190D01*
X111585714Y-104626190D02*
X111895238Y-104626190D01*
X111728571Y-104816666D01*
X111800000Y-104816666D01*
X111847619Y-104840476D01*
X111871428Y-104864285D01*
X111895238Y-104911904D01*
X111895238Y-105030952D01*
X111871428Y-105078571D01*
X111847619Y-105102380D01*
X111800000Y-105126190D01*
X111657142Y-105126190D01*
X111609523Y-105102380D01*
X111585714Y-105078571D01*
X104995238Y-92526190D02*
X104995238Y-92026190D01*
X105161904Y-92383333D01*
X105328571Y-92026190D01*
X105328571Y-92526190D01*
X105661904Y-92026190D02*
X105757142Y-92026190D01*
X105804761Y-92050000D01*
X105852380Y-92097619D01*
X105876190Y-92192857D01*
X105876190Y-92359523D01*
X105852380Y-92454761D01*
X105804761Y-92502380D01*
X105757142Y-92526190D01*
X105661904Y-92526190D01*
X105614285Y-92502380D01*
X105566666Y-92454761D01*
X105542857Y-92359523D01*
X105542857Y-92192857D01*
X105566666Y-92097619D01*
X105614285Y-92050000D01*
X105661904Y-92026190D01*
X106090476Y-92526190D02*
X106090476Y-92026190D01*
X106209523Y-92026190D01*
X106280952Y-92050000D01*
X106328571Y-92097619D01*
X106352380Y-92145238D01*
X106376190Y-92240476D01*
X106376190Y-92311904D01*
X106352380Y-92407142D01*
X106328571Y-92454761D01*
X106280952Y-92502380D01*
X106209523Y-92526190D01*
X106090476Y-92526190D01*
X106590476Y-92264285D02*
X106757142Y-92264285D01*
X106828571Y-92526190D02*
X106590476Y-92526190D01*
X106590476Y-92026190D01*
X106828571Y-92026190D01*
X99180952Y-104426190D02*
X99085714Y-104426190D01*
X99038095Y-104450000D01*
X99014285Y-104473809D01*
X98966666Y-104545238D01*
X98942857Y-104640476D01*
X98942857Y-104830952D01*
X98966666Y-104878571D01*
X98990476Y-104902380D01*
X99038095Y-104926190D01*
X99133333Y-104926190D01*
X99180952Y-104902380D01*
X99204761Y-104878571D01*
X99228571Y-104830952D01*
X99228571Y-104711904D01*
X99204761Y-104664285D01*
X99180952Y-104640476D01*
X99133333Y-104616666D01*
X99038095Y-104616666D01*
X98990476Y-104640476D01*
X98966666Y-104664285D01*
X98942857Y-104711904D01*
X99371428Y-104426190D02*
X99538095Y-104926190D01*
X99704761Y-104426190D01*
X99409523Y-94635714D02*
X99790476Y-94635714D01*
X99600000Y-94826190D02*
X99600000Y-94445238D01*
X99309523Y-97235714D02*
X99690476Y-97235714D01*
X94204761Y-98526190D02*
X93966666Y-98526190D01*
X93942857Y-98764285D01*
X93966666Y-98740476D01*
X94014285Y-98716666D01*
X94133333Y-98716666D01*
X94180952Y-98740476D01*
X94204761Y-98764285D01*
X94228571Y-98811904D01*
X94228571Y-98930952D01*
X94204761Y-98978571D01*
X94180952Y-99002380D01*
X94133333Y-99026190D01*
X94014285Y-99026190D01*
X93966666Y-99002380D01*
X93942857Y-98978571D01*
X94371428Y-98526190D02*
X94538095Y-99026190D01*
X94704761Y-98526190D01*
X93380952Y-96450000D02*
X93333333Y-96426190D01*
X93261904Y-96426190D01*
X93190476Y-96450000D01*
X93142857Y-96497619D01*
X93119047Y-96545238D01*
X93095238Y-96640476D01*
X93095238Y-96711904D01*
X93119047Y-96807142D01*
X93142857Y-96854761D01*
X93190476Y-96902380D01*
X93261904Y-96926190D01*
X93309523Y-96926190D01*
X93380952Y-96902380D01*
X93404761Y-96878571D01*
X93404761Y-96711904D01*
X93309523Y-96711904D01*
X93619047Y-96926190D02*
X93619047Y-96426190D01*
X93904761Y-96926190D01*
X93904761Y-96426190D01*
X94142857Y-96926190D02*
X94142857Y-96426190D01*
X94261904Y-96426190D01*
X94333333Y-96450000D01*
X94380952Y-96497619D01*
X94404761Y-96545238D01*
X94428571Y-96640476D01*
X94428571Y-96711904D01*
X94404761Y-96807142D01*
X94380952Y-96854761D01*
X94333333Y-96902380D01*
X94261904Y-96926190D01*
X94142857Y-96926190D01*
X94904761Y-96926190D02*
X94619047Y-96926190D01*
X94761904Y-96926190D02*
X94761904Y-96426190D01*
X94714285Y-96497619D01*
X94666666Y-96545238D01*
X94619047Y-96569047D01*
X94180952Y-94426190D02*
X94085714Y-94426190D01*
X94038095Y-94450000D01*
X94014285Y-94473809D01*
X93966666Y-94545238D01*
X93942857Y-94640476D01*
X93942857Y-94830952D01*
X93966666Y-94878571D01*
X93990476Y-94902380D01*
X94038095Y-94926190D01*
X94133333Y-94926190D01*
X94180952Y-94902380D01*
X94204761Y-94878571D01*
X94228571Y-94830952D01*
X94228571Y-94711904D01*
X94204761Y-94664285D01*
X94180952Y-94640476D01*
X94133333Y-94616666D01*
X94038095Y-94616666D01*
X93990476Y-94640476D01*
X93966666Y-94664285D01*
X93942857Y-94711904D01*
X94371428Y-94426190D02*
X94538095Y-94926190D01*
X94704761Y-94426190D01*
X58726190Y-69845238D02*
X58226190Y-69845238D01*
X58726190Y-69607142D02*
X58226190Y-69607142D01*
X58726190Y-69321428D01*
X58226190Y-69321428D01*
X58583333Y-69107142D02*
X58583333Y-68869047D01*
X58726190Y-69154761D02*
X58226190Y-68988095D01*
X58726190Y-68821428D01*
X58273809Y-68678571D02*
X58250000Y-68654761D01*
X58226190Y-68607142D01*
X58226190Y-68488095D01*
X58250000Y-68440476D01*
X58273809Y-68416666D01*
X58321428Y-68392857D01*
X58369047Y-68392857D01*
X58440476Y-68416666D01*
X58726190Y-68702380D01*
X58726190Y-68392857D01*
X58726190Y-67916666D02*
X58726190Y-68202380D01*
X58726190Y-68059523D02*
X58226190Y-68059523D01*
X58297619Y-68107142D01*
X58345238Y-68154761D01*
X58369047Y-68202380D01*
X58726190Y-67678571D02*
X58726190Y-67583333D01*
X58702380Y-67535714D01*
X58678571Y-67511904D01*
X58607142Y-67464285D01*
X58511904Y-67440476D01*
X58321428Y-67440476D01*
X58273809Y-67464285D01*
X58250000Y-67488095D01*
X58226190Y-67535714D01*
X58226190Y-67630952D01*
X58250000Y-67678571D01*
X58273809Y-67702380D01*
X58321428Y-67726190D01*
X58440476Y-67726190D01*
X58488095Y-67702380D01*
X58511904Y-67678571D01*
X58535714Y-67630952D01*
X58535714Y-67535714D01*
X58511904Y-67488095D01*
X58488095Y-67464285D01*
X58440476Y-67440476D01*
X58726190Y-66845238D02*
X58226190Y-66845238D01*
X58226190Y-66654761D01*
X58250000Y-66607142D01*
X58273809Y-66583333D01*
X58321428Y-66559523D01*
X58392857Y-66559523D01*
X58440476Y-66583333D01*
X58464285Y-66607142D01*
X58488095Y-66654761D01*
X58488095Y-66845238D01*
X58226190Y-66416666D02*
X58726190Y-66250000D01*
X58226190Y-66083333D01*
X58626190Y-88916666D02*
X58126190Y-88916666D01*
X58626190Y-88678571D02*
X58126190Y-88678571D01*
X58626190Y-88392857D01*
X58126190Y-88392857D01*
X58483333Y-88178571D02*
X58483333Y-87940476D01*
X58626190Y-88226190D02*
X58126190Y-88059523D01*
X58626190Y-87892857D01*
X58173809Y-87750000D02*
X58150000Y-87726190D01*
X58126190Y-87678571D01*
X58126190Y-87559523D01*
X58150000Y-87511904D01*
X58173809Y-87488095D01*
X58221428Y-87464285D01*
X58269047Y-87464285D01*
X58340476Y-87488095D01*
X58626190Y-87773809D01*
X58626190Y-87464285D01*
X58626190Y-86988095D02*
X58626190Y-87273809D01*
X58626190Y-87130952D02*
X58126190Y-87130952D01*
X58197619Y-87178571D01*
X58245238Y-87226190D01*
X58269047Y-87273809D01*
X58626190Y-86750000D02*
X58626190Y-86654761D01*
X58602380Y-86607142D01*
X58578571Y-86583333D01*
X58507142Y-86535714D01*
X58411904Y-86511904D01*
X58221428Y-86511904D01*
X58173809Y-86535714D01*
X58150000Y-86559523D01*
X58126190Y-86607142D01*
X58126190Y-86702380D01*
X58150000Y-86750000D01*
X58173809Y-86773809D01*
X58221428Y-86797619D01*
X58340476Y-86797619D01*
X58388095Y-86773809D01*
X58411904Y-86750000D01*
X58435714Y-86702380D01*
X58435714Y-86607142D01*
X58411904Y-86559523D01*
X58388095Y-86535714D01*
X58340476Y-86511904D01*
X58364285Y-85750000D02*
X58388095Y-85678571D01*
X58411904Y-85654761D01*
X58459523Y-85630952D01*
X58530952Y-85630952D01*
X58578571Y-85654761D01*
X58602380Y-85678571D01*
X58626190Y-85726190D01*
X58626190Y-85916666D01*
X58126190Y-85916666D01*
X58126190Y-85750000D01*
X58150000Y-85702380D01*
X58173809Y-85678571D01*
X58221428Y-85654761D01*
X58269047Y-85654761D01*
X58316666Y-85678571D01*
X58340476Y-85702380D01*
X58364285Y-85750000D01*
X58364285Y-85916666D01*
X58483333Y-85440476D02*
X58483333Y-85202380D01*
X58626190Y-85488095D02*
X58126190Y-85321428D01*
X58626190Y-85154761D01*
X58126190Y-85059523D02*
X58126190Y-84773809D01*
X58626190Y-84916666D02*
X58126190Y-84916666D01*
X58126190Y-84678571D02*
X58126190Y-84392857D01*
X58626190Y-84535714D02*
X58126190Y-84535714D01*
X58364285Y-84226190D02*
X58364285Y-84059523D01*
X58626190Y-83988095D02*
X58626190Y-84226190D01*
X58126190Y-84226190D01*
X58126190Y-83988095D01*
X58626190Y-83488095D02*
X58388095Y-83654761D01*
X58626190Y-83773809D02*
X58126190Y-83773809D01*
X58126190Y-83583333D01*
X58150000Y-83535714D01*
X58173809Y-83511904D01*
X58221428Y-83488095D01*
X58292857Y-83488095D01*
X58340476Y-83511904D01*
X58364285Y-83535714D01*
X58388095Y-83583333D01*
X58388095Y-83773809D01*
X58388095Y-83178571D02*
X58626190Y-83178571D01*
X58126190Y-83345238D02*
X58388095Y-83178571D01*
X58126190Y-83011904D01*
X76414285Y-59726190D02*
X76414285Y-59226190D01*
X76580952Y-59583333D01*
X76747619Y-59226190D01*
X76747619Y-59726190D01*
X77080952Y-59226190D02*
X77176190Y-59226190D01*
X77223809Y-59250000D01*
X77271428Y-59297619D01*
X77295238Y-59392857D01*
X77295238Y-59559523D01*
X77271428Y-59654761D01*
X77223809Y-59702380D01*
X77176190Y-59726190D01*
X77080952Y-59726190D01*
X77033333Y-59702380D01*
X76985714Y-59654761D01*
X76961904Y-59559523D01*
X76961904Y-59392857D01*
X76985714Y-59297619D01*
X77033333Y-59250000D01*
X77080952Y-59226190D01*
X77485714Y-59702380D02*
X77557142Y-59726190D01*
X77676190Y-59726190D01*
X77723809Y-59702380D01*
X77747619Y-59678571D01*
X77771428Y-59630952D01*
X77771428Y-59583333D01*
X77747619Y-59535714D01*
X77723809Y-59511904D01*
X77676190Y-59488095D01*
X77580952Y-59464285D01*
X77533333Y-59440476D01*
X77509523Y-59416666D01*
X77485714Y-59369047D01*
X77485714Y-59321428D01*
X77509523Y-59273809D01*
X77533333Y-59250000D01*
X77580952Y-59226190D01*
X77700000Y-59226190D01*
X77771428Y-59250000D01*
X77985714Y-59726190D02*
X77985714Y-59226190D01*
X73957142Y-59702380D02*
X74028571Y-59726190D01*
X74147619Y-59726190D01*
X74195238Y-59702380D01*
X74219047Y-59678571D01*
X74242857Y-59630952D01*
X74242857Y-59583333D01*
X74219047Y-59535714D01*
X74195238Y-59511904D01*
X74147619Y-59488095D01*
X74052380Y-59464285D01*
X74004761Y-59440476D01*
X73980952Y-59416666D01*
X73957142Y-59369047D01*
X73957142Y-59321428D01*
X73980952Y-59273809D01*
X74004761Y-59250000D01*
X74052380Y-59226190D01*
X74171428Y-59226190D01*
X74242857Y-59250000D01*
X74742857Y-59678571D02*
X74719047Y-59702380D01*
X74647619Y-59726190D01*
X74600000Y-59726190D01*
X74528571Y-59702380D01*
X74480952Y-59654761D01*
X74457142Y-59607142D01*
X74433333Y-59511904D01*
X74433333Y-59440476D01*
X74457142Y-59345238D01*
X74480952Y-59297619D01*
X74528571Y-59250000D01*
X74600000Y-59226190D01*
X74647619Y-59226190D01*
X74719047Y-59250000D01*
X74742857Y-59273809D01*
X74957142Y-59726190D02*
X74957142Y-59226190D01*
X75242857Y-59726190D02*
X75028571Y-59440476D01*
X75242857Y-59226190D02*
X74957142Y-59511904D01*
X71314285Y-59726190D02*
X71314285Y-59226190D01*
X71480952Y-59583333D01*
X71647619Y-59226190D01*
X71647619Y-59726190D01*
X71885714Y-59726190D02*
X71885714Y-59226190D01*
X72100000Y-59702380D02*
X72171428Y-59726190D01*
X72290476Y-59726190D01*
X72338095Y-59702380D01*
X72361904Y-59678571D01*
X72385714Y-59630952D01*
X72385714Y-59583333D01*
X72361904Y-59535714D01*
X72338095Y-59511904D01*
X72290476Y-59488095D01*
X72195238Y-59464285D01*
X72147619Y-59440476D01*
X72123809Y-59416666D01*
X72100000Y-59369047D01*
X72100000Y-59321428D01*
X72123809Y-59273809D01*
X72147619Y-59250000D01*
X72195238Y-59226190D01*
X72314285Y-59226190D01*
X72385714Y-59250000D01*
X72695238Y-59226190D02*
X72790476Y-59226190D01*
X72838095Y-59250000D01*
X72885714Y-59297619D01*
X72909523Y-59392857D01*
X72909523Y-59559523D01*
X72885714Y-59654761D01*
X72838095Y-59702380D01*
X72790476Y-59726190D01*
X72695238Y-59726190D01*
X72647619Y-59702380D01*
X72600000Y-59654761D01*
X72576190Y-59559523D01*
X72576190Y-59392857D01*
X72600000Y-59297619D01*
X72647619Y-59250000D01*
X72695238Y-59226190D01*
X58564285Y-103478571D02*
X58588095Y-103407142D01*
X58611904Y-103383333D01*
X58659523Y-103359523D01*
X58730952Y-103359523D01*
X58778571Y-103383333D01*
X58802380Y-103407142D01*
X58826190Y-103454761D01*
X58826190Y-103645238D01*
X58326190Y-103645238D01*
X58326190Y-103478571D01*
X58350000Y-103430952D01*
X58373809Y-103407142D01*
X58421428Y-103383333D01*
X58469047Y-103383333D01*
X58516666Y-103407142D01*
X58540476Y-103430952D01*
X58564285Y-103478571D01*
X58564285Y-103645238D01*
X58826190Y-103145238D02*
X58326190Y-103145238D01*
X58564285Y-103145238D02*
X58564285Y-102859523D01*
X58826190Y-102859523D02*
X58326190Y-102859523D01*
X58826190Y-102359523D02*
X58826190Y-102645238D01*
X58826190Y-102502380D02*
X58326190Y-102502380D01*
X58397619Y-102550000D01*
X58445238Y-102597619D01*
X58469047Y-102645238D01*
X58326190Y-102192857D02*
X58326190Y-101859523D01*
X58826190Y-102073809D01*
X58326190Y-101430952D02*
X58326190Y-101669047D01*
X58564285Y-101692857D01*
X58540476Y-101669047D01*
X58516666Y-101621428D01*
X58516666Y-101502380D01*
X58540476Y-101454761D01*
X58564285Y-101430952D01*
X58611904Y-101407142D01*
X58730952Y-101407142D01*
X58778571Y-101430952D01*
X58802380Y-101454761D01*
X58826190Y-101502380D01*
X58826190Y-101621428D01*
X58802380Y-101669047D01*
X58778571Y-101692857D01*
X58326190Y-101097619D02*
X58326190Y-101050000D01*
X58350000Y-101002380D01*
X58373809Y-100978571D01*
X58421428Y-100954761D01*
X58516666Y-100930952D01*
X58635714Y-100930952D01*
X58730952Y-100954761D01*
X58778571Y-100978571D01*
X58802380Y-101002380D01*
X58826190Y-101050000D01*
X58826190Y-101097619D01*
X58802380Y-101145238D01*
X58778571Y-101169047D01*
X58730952Y-101192857D01*
X58635714Y-101216666D01*
X58516666Y-101216666D01*
X58421428Y-101192857D01*
X58373809Y-101169047D01*
X58350000Y-101145238D01*
X58326190Y-101097619D01*
X71509523Y-104564285D02*
X71580952Y-104588095D01*
X71604761Y-104611904D01*
X71628571Y-104659523D01*
X71628571Y-104730952D01*
X71604761Y-104778571D01*
X71580952Y-104802380D01*
X71533333Y-104826190D01*
X71342857Y-104826190D01*
X71342857Y-104326190D01*
X71509523Y-104326190D01*
X71557142Y-104350000D01*
X71580952Y-104373809D01*
X71604761Y-104421428D01*
X71604761Y-104469047D01*
X71580952Y-104516666D01*
X71557142Y-104540476D01*
X71509523Y-104564285D01*
X71342857Y-104564285D01*
X71842857Y-104826190D02*
X71842857Y-104326190D01*
X72009523Y-104683333D01*
X72176190Y-104326190D01*
X72176190Y-104826190D01*
X72414285Y-104564285D02*
X72580952Y-104564285D01*
X72652380Y-104826190D02*
X72414285Y-104826190D01*
X72414285Y-104326190D01*
X72652380Y-104326190D01*
X72842857Y-104373809D02*
X72866666Y-104350000D01*
X72914285Y-104326190D01*
X73033333Y-104326190D01*
X73080952Y-104350000D01*
X73104761Y-104373809D01*
X73128571Y-104421428D01*
X73128571Y-104469047D01*
X73104761Y-104540476D01*
X72819047Y-104826190D01*
X73128571Y-104826190D01*
X73414285Y-104540476D02*
X73366666Y-104516666D01*
X73342857Y-104492857D01*
X73319047Y-104445238D01*
X73319047Y-104421428D01*
X73342857Y-104373809D01*
X73366666Y-104350000D01*
X73414285Y-104326190D01*
X73509523Y-104326190D01*
X73557142Y-104350000D01*
X73580952Y-104373809D01*
X73604761Y-104421428D01*
X73604761Y-104445238D01*
X73580952Y-104492857D01*
X73557142Y-104516666D01*
X73509523Y-104540476D01*
X73414285Y-104540476D01*
X73366666Y-104564285D01*
X73342857Y-104588095D01*
X73319047Y-104635714D01*
X73319047Y-104730952D01*
X73342857Y-104778571D01*
X73366666Y-104802380D01*
X73414285Y-104826190D01*
X73509523Y-104826190D01*
X73557142Y-104802380D01*
X73580952Y-104778571D01*
X73604761Y-104730952D01*
X73604761Y-104635714D01*
X73580952Y-104588095D01*
X73557142Y-104564285D01*
X73509523Y-104540476D01*
X73914285Y-104326190D02*
X73961904Y-104326190D01*
X74009523Y-104350000D01*
X74033333Y-104373809D01*
X74057142Y-104421428D01*
X74080952Y-104516666D01*
X74080952Y-104635714D01*
X74057142Y-104730952D01*
X74033333Y-104778571D01*
X74009523Y-104802380D01*
X73961904Y-104826190D01*
X73914285Y-104826190D01*
X73866666Y-104802380D01*
X73842857Y-104778571D01*
X73819047Y-104730952D01*
X73795238Y-104635714D01*
X73795238Y-104516666D01*
X73819047Y-104421428D01*
X73842857Y-104373809D01*
X73866666Y-104350000D01*
X73914285Y-104326190D01*
X104100000Y-97483333D02*
X104338095Y-97483333D01*
X104052380Y-97626190D02*
X104219047Y-97126190D01*
X104385714Y-97626190D01*
X104552380Y-97364285D02*
X104719047Y-97364285D01*
X104790476Y-97626190D02*
X104552380Y-97626190D01*
X104552380Y-97126190D01*
X104790476Y-97126190D01*
X105004761Y-97626190D02*
X105004761Y-97126190D01*
X105290476Y-97626190D01*
X105290476Y-97126190D01*
X105504761Y-97483333D02*
X105742857Y-97483333D01*
X105457142Y-97626190D02*
X105623809Y-97126190D01*
X105790476Y-97626190D01*
X106123809Y-97364285D02*
X106195238Y-97388095D01*
X106219047Y-97411904D01*
X106242857Y-97459523D01*
X106242857Y-97530952D01*
X106219047Y-97578571D01*
X106195238Y-97602380D01*
X106147619Y-97626190D01*
X105957142Y-97626190D01*
X105957142Y-97126190D01*
X106123809Y-97126190D01*
X106171428Y-97150000D01*
X106195238Y-97173809D01*
X106219047Y-97221428D01*
X106219047Y-97269047D01*
X106195238Y-97316666D01*
X106171428Y-97340476D01*
X106123809Y-97364285D01*
X105957142Y-97364285D01*
X106695238Y-97626190D02*
X106457142Y-97626190D01*
X106457142Y-97126190D01*
X106861904Y-97364285D02*
X107028571Y-97364285D01*
X107100000Y-97626190D02*
X106861904Y-97626190D01*
X106861904Y-97126190D01*
X107100000Y-97126190D01*
X104490476Y-94883333D02*
X104728571Y-94883333D01*
X104442857Y-95026190D02*
X104609523Y-94526190D01*
X104776190Y-95026190D01*
X104942857Y-95026190D02*
X104942857Y-94526190D01*
X105133333Y-94526190D01*
X105180952Y-94550000D01*
X105204761Y-94573809D01*
X105228571Y-94621428D01*
X105228571Y-94692857D01*
X105204761Y-94740476D01*
X105180952Y-94764285D01*
X105133333Y-94788095D01*
X104942857Y-94788095D01*
X105442857Y-95026190D02*
X105442857Y-94526190D01*
X105442857Y-94764285D02*
X105728571Y-94764285D01*
X105728571Y-95026190D02*
X105728571Y-94526190D01*
X105942857Y-94883333D02*
X106180952Y-94883333D01*
X105895238Y-95026190D02*
X106061904Y-94526190D01*
X106228571Y-95026190D01*
X106371428Y-95002380D02*
X106442857Y-95026190D01*
X106561904Y-95026190D01*
X106609523Y-95002380D01*
X106633333Y-94978571D01*
X106657142Y-94930952D01*
X106657142Y-94883333D01*
X106633333Y-94835714D01*
X106609523Y-94811904D01*
X106561904Y-94788095D01*
X106466666Y-94764285D01*
X106419047Y-94740476D01*
X106395238Y-94716666D01*
X106371428Y-94669047D01*
X106371428Y-94621428D01*
X106395238Y-94573809D01*
X106419047Y-94550000D01*
X106466666Y-94526190D01*
X106585714Y-94526190D01*
X106657142Y-94550000D01*
X106871428Y-94764285D02*
X107038095Y-94764285D01*
X107109523Y-95026190D02*
X106871428Y-95026190D01*
X106871428Y-94526190D01*
X107109523Y-94526190D01*
X84804761Y-109226190D02*
X84566666Y-109226190D01*
X84542857Y-109464285D01*
X84566666Y-109440476D01*
X84614285Y-109416666D01*
X84733333Y-109416666D01*
X84780952Y-109440476D01*
X84804761Y-109464285D01*
X84828571Y-109511904D01*
X84828571Y-109630952D01*
X84804761Y-109678571D01*
X84780952Y-109702380D01*
X84733333Y-109726190D01*
X84614285Y-109726190D01*
X84566666Y-109702380D01*
X84542857Y-109678571D01*
X84971428Y-109226190D02*
X85138095Y-109726190D01*
X85304761Y-109226190D01*
D11*
X93419047Y-109547619D02*
X94180952Y-109547619D01*
X96219047Y-109571428D02*
X96980952Y-109571428D01*
X96600000Y-109952380D02*
X96600000Y-109190476D01*
D10*
X62073809Y-31616666D02*
X61835714Y-31616666D01*
X62121428Y-31473809D02*
X61954761Y-31973809D01*
X61788095Y-31473809D01*
X61335714Y-31521428D02*
X61359523Y-31497619D01*
X61430952Y-31473809D01*
X61478571Y-31473809D01*
X61550000Y-31497619D01*
X61597619Y-31545238D01*
X61621428Y-31592857D01*
X61645238Y-31688095D01*
X61645238Y-31759523D01*
X61621428Y-31854761D01*
X61597619Y-31902380D01*
X61550000Y-31950000D01*
X61478571Y-31973809D01*
X61430952Y-31973809D01*
X61359523Y-31950000D01*
X61335714Y-31926190D01*
X61192857Y-31973809D02*
X60907142Y-31973809D01*
X61050000Y-31473809D02*
X61050000Y-31973809D01*
X60740476Y-31473809D02*
X60740476Y-31973809D01*
X60573809Y-31973809D02*
X60407142Y-31473809D01*
X60240476Y-31973809D01*
X60097619Y-31616666D02*
X59859523Y-31616666D01*
X60145238Y-31473809D02*
X59978571Y-31973809D01*
X59811904Y-31473809D01*
X59716666Y-31973809D02*
X59430952Y-31973809D01*
X59573809Y-31473809D02*
X59573809Y-31973809D01*
X59264285Y-31735714D02*
X59097619Y-31735714D01*
X59026190Y-31473809D02*
X59264285Y-31473809D01*
X59264285Y-31973809D01*
X59026190Y-31973809D01*
X58811904Y-31473809D02*
X58811904Y-31973809D01*
X58692857Y-31973809D01*
X58621428Y-31950000D01*
X58573809Y-31902380D01*
X58550000Y-31854761D01*
X58526190Y-31759523D01*
X58526190Y-31688095D01*
X58550000Y-31592857D01*
X58573809Y-31545238D01*
X58621428Y-31497619D01*
X58692857Y-31473809D01*
X58811904Y-31473809D01*
X78030952Y-31873809D02*
X77935714Y-31873809D01*
X77888095Y-31850000D01*
X77840476Y-31802380D01*
X77816666Y-31707142D01*
X77816666Y-31540476D01*
X77840476Y-31445238D01*
X77888095Y-31397619D01*
X77935714Y-31373809D01*
X78030952Y-31373809D01*
X78078571Y-31397619D01*
X78126190Y-31445238D01*
X78150000Y-31540476D01*
X78150000Y-31707142D01*
X78126190Y-31802380D01*
X78078571Y-31850000D01*
X78030952Y-31873809D01*
X77602380Y-31373809D02*
X77602380Y-31873809D01*
X77411904Y-31873809D01*
X77364285Y-31850000D01*
X77340476Y-31826190D01*
X77316666Y-31778571D01*
X77316666Y-31707142D01*
X77340476Y-31659523D01*
X77364285Y-31635714D01*
X77411904Y-31611904D01*
X77602380Y-31611904D01*
X77173809Y-31873809D02*
X76888095Y-31873809D01*
X77030952Y-31373809D02*
X77030952Y-31873809D01*
X76721428Y-31373809D02*
X76721428Y-31873809D01*
X76388095Y-31873809D02*
X76292857Y-31873809D01*
X76245238Y-31850000D01*
X76197619Y-31802380D01*
X76173809Y-31707142D01*
X76173809Y-31540476D01*
X76197619Y-31445238D01*
X76245238Y-31397619D01*
X76292857Y-31373809D01*
X76388095Y-31373809D01*
X76435714Y-31397619D01*
X76483333Y-31445238D01*
X76507142Y-31540476D01*
X76507142Y-31707142D01*
X76483333Y-31802380D01*
X76435714Y-31850000D01*
X76388095Y-31873809D01*
X75959523Y-31373809D02*
X75959523Y-31873809D01*
X75673809Y-31373809D01*
X75673809Y-31873809D01*
X94040476Y-31473809D02*
X94040476Y-31973809D01*
X93921428Y-31973809D01*
X93850000Y-31950000D01*
X93802380Y-31902380D01*
X93778571Y-31854761D01*
X93754761Y-31759523D01*
X93754761Y-31688095D01*
X93778571Y-31592857D01*
X93802380Y-31545238D01*
X93850000Y-31497619D01*
X93921428Y-31473809D01*
X94040476Y-31473809D01*
X93445238Y-31973809D02*
X93350000Y-31973809D01*
X93302380Y-31950000D01*
X93254761Y-31902380D01*
X93230952Y-31807142D01*
X93230952Y-31640476D01*
X93254761Y-31545238D01*
X93302380Y-31497619D01*
X93350000Y-31473809D01*
X93445238Y-31473809D01*
X93492857Y-31497619D01*
X93540476Y-31545238D01*
X93564285Y-31640476D01*
X93564285Y-31807142D01*
X93540476Y-31902380D01*
X93492857Y-31950000D01*
X93445238Y-31973809D01*
X93064285Y-31973809D02*
X92945238Y-31473809D01*
X92850000Y-31830952D01*
X92754761Y-31473809D01*
X92635714Y-31973809D01*
X92445238Y-31473809D02*
X92445238Y-31973809D01*
X92159523Y-31473809D01*
X92159523Y-31973809D01*
X110492857Y-31773809D02*
X110492857Y-31369047D01*
X110469047Y-31321428D01*
X110445238Y-31297619D01*
X110397619Y-31273809D01*
X110302380Y-31273809D01*
X110254761Y-31297619D01*
X110230952Y-31321428D01*
X110207142Y-31369047D01*
X110207142Y-31773809D01*
X109969047Y-31273809D02*
X109969047Y-31773809D01*
X109778571Y-31773809D01*
X109730952Y-31750000D01*
X109707142Y-31726190D01*
X109683333Y-31678571D01*
X109683333Y-31607142D01*
X109707142Y-31559523D01*
X109730952Y-31535714D01*
X109778571Y-31511904D01*
X109969047Y-31511904D01*
X113819047Y-50450000D02*
X113771428Y-50426190D01*
X113700000Y-50426190D01*
X113628571Y-50450000D01*
X113580952Y-50497619D01*
X113557142Y-50545238D01*
X113533333Y-50640476D01*
X113533333Y-50711904D01*
X113557142Y-50807142D01*
X113580952Y-50854761D01*
X113628571Y-50902380D01*
X113700000Y-50926190D01*
X113747619Y-50926190D01*
X113819047Y-50902380D01*
X113842857Y-50878571D01*
X113842857Y-50711904D01*
X113747619Y-50711904D01*
X114057142Y-50926190D02*
X114057142Y-50426190D01*
X114342857Y-50926190D01*
X114342857Y-50426190D01*
X114580952Y-50926190D02*
X114580952Y-50426190D01*
X114700000Y-50426190D01*
X114771428Y-50450000D01*
X114819047Y-50497619D01*
X114842857Y-50545238D01*
X114866666Y-50640476D01*
X114866666Y-50711904D01*
X114842857Y-50807142D01*
X114819047Y-50854761D01*
X114771428Y-50902380D01*
X114700000Y-50926190D01*
X114580952Y-50926190D01*
X116180952Y-50526190D02*
X116490476Y-50526190D01*
X116323809Y-50716666D01*
X116395238Y-50716666D01*
X116442857Y-50740476D01*
X116466666Y-50764285D01*
X116490476Y-50811904D01*
X116490476Y-50930952D01*
X116466666Y-50978571D01*
X116442857Y-51002380D01*
X116395238Y-51026190D01*
X116252380Y-51026190D01*
X116204761Y-51002380D01*
X116180952Y-50978571D01*
X116633333Y-50526190D02*
X116800000Y-51026190D01*
X116966666Y-50526190D01*
X117085714Y-50526190D02*
X117395238Y-50526190D01*
X117228571Y-50716666D01*
X117300000Y-50716666D01*
X117347619Y-50740476D01*
X117371428Y-50764285D01*
X117395238Y-50811904D01*
X117395238Y-50930952D01*
X117371428Y-50978571D01*
X117347619Y-51002380D01*
X117300000Y-51026190D01*
X117157142Y-51026190D01*
X117109523Y-51002380D01*
X117085714Y-50978571D01*
X62880952Y-74326190D02*
X63190476Y-74326190D01*
X63023809Y-74516666D01*
X63095238Y-74516666D01*
X63142857Y-74540476D01*
X63166666Y-74564285D01*
X63190476Y-74611904D01*
X63190476Y-74730952D01*
X63166666Y-74778571D01*
X63142857Y-74802380D01*
X63095238Y-74826190D01*
X62952380Y-74826190D01*
X62904761Y-74802380D01*
X62880952Y-74778571D01*
X63333333Y-74326190D02*
X63500000Y-74826190D01*
X63666666Y-74326190D01*
X63785714Y-74326190D02*
X64095238Y-74326190D01*
X63928571Y-74516666D01*
X64000000Y-74516666D01*
X64047619Y-74540476D01*
X64071428Y-74564285D01*
X64095238Y-74611904D01*
X64095238Y-74730952D01*
X64071428Y-74778571D01*
X64047619Y-74802380D01*
X64000000Y-74826190D01*
X63857142Y-74826190D01*
X63809523Y-74802380D01*
X63785714Y-74778571D01*
X62780952Y-92026190D02*
X63090476Y-92026190D01*
X62923809Y-92216666D01*
X62995238Y-92216666D01*
X63042857Y-92240476D01*
X63066666Y-92264285D01*
X63090476Y-92311904D01*
X63090476Y-92430952D01*
X63066666Y-92478571D01*
X63042857Y-92502380D01*
X62995238Y-92526190D01*
X62852380Y-92526190D01*
X62804761Y-92502380D01*
X62780952Y-92478571D01*
X63233333Y-92026190D02*
X63400000Y-92526190D01*
X63566666Y-92026190D01*
X63685714Y-92026190D02*
X63995238Y-92026190D01*
X63828571Y-92216666D01*
X63900000Y-92216666D01*
X63947619Y-92240476D01*
X63971428Y-92264285D01*
X63995238Y-92311904D01*
X63995238Y-92430952D01*
X63971428Y-92478571D01*
X63947619Y-92502380D01*
X63900000Y-92526190D01*
X63757142Y-92526190D01*
X63709523Y-92502380D01*
X63685714Y-92478571D01*
X62680952Y-107326190D02*
X62990476Y-107326190D01*
X62823809Y-107516666D01*
X62895238Y-107516666D01*
X62942857Y-107540476D01*
X62966666Y-107564285D01*
X62990476Y-107611904D01*
X62990476Y-107730952D01*
X62966666Y-107778571D01*
X62942857Y-107802380D01*
X62895238Y-107826190D01*
X62752380Y-107826190D01*
X62704761Y-107802380D01*
X62680952Y-107778571D01*
X63133333Y-107326190D02*
X63300000Y-107826190D01*
X63466666Y-107326190D01*
X63585714Y-107326190D02*
X63895238Y-107326190D01*
X63728571Y-107516666D01*
X63800000Y-107516666D01*
X63847619Y-107540476D01*
X63871428Y-107564285D01*
X63895238Y-107611904D01*
X63895238Y-107730952D01*
X63871428Y-107778571D01*
X63847619Y-107802380D01*
X63800000Y-107826190D01*
X63657142Y-107826190D01*
X63609523Y-107802380D01*
X63585714Y-107778571D01*
X78380952Y-109326190D02*
X78690476Y-109326190D01*
X78523809Y-109516666D01*
X78595238Y-109516666D01*
X78642857Y-109540476D01*
X78666666Y-109564285D01*
X78690476Y-109611904D01*
X78690476Y-109730952D01*
X78666666Y-109778571D01*
X78642857Y-109802380D01*
X78595238Y-109826190D01*
X78452380Y-109826190D01*
X78404761Y-109802380D01*
X78380952Y-109778571D01*
X78833333Y-109326190D02*
X79000000Y-109826190D01*
X79166666Y-109326190D01*
X79285714Y-109326190D02*
X79595238Y-109326190D01*
X79428571Y-109516666D01*
X79500000Y-109516666D01*
X79547619Y-109540476D01*
X79571428Y-109564285D01*
X79595238Y-109611904D01*
X79595238Y-109730952D01*
X79571428Y-109778571D01*
X79547619Y-109802380D01*
X79500000Y-109826190D01*
X79357142Y-109826190D01*
X79309523Y-109802380D01*
X79285714Y-109778571D01*
X81680952Y-95526190D02*
X81990476Y-95526190D01*
X81823809Y-95716666D01*
X81895238Y-95716666D01*
X81942857Y-95740476D01*
X81966666Y-95764285D01*
X81990476Y-95811904D01*
X81990476Y-95930952D01*
X81966666Y-95978571D01*
X81942857Y-96002380D01*
X81895238Y-96026190D01*
X81752380Y-96026190D01*
X81704761Y-96002380D01*
X81680952Y-95978571D01*
X82133333Y-95526190D02*
X82300000Y-96026190D01*
X82466666Y-95526190D01*
X82585714Y-95526190D02*
X82895238Y-95526190D01*
X82728571Y-95716666D01*
X82800000Y-95716666D01*
X82847619Y-95740476D01*
X82871428Y-95764285D01*
X82895238Y-95811904D01*
X82895238Y-95930952D01*
X82871428Y-95978571D01*
X82847619Y-96002380D01*
X82800000Y-96026190D01*
X82657142Y-96026190D01*
X82609523Y-96002380D01*
X82585714Y-95978571D01*
X98380952Y-89026190D02*
X98690476Y-89026190D01*
X98523809Y-89216666D01*
X98595238Y-89216666D01*
X98642857Y-89240476D01*
X98666666Y-89264285D01*
X98690476Y-89311904D01*
X98690476Y-89430952D01*
X98666666Y-89478571D01*
X98642857Y-89502380D01*
X98595238Y-89526190D01*
X98452380Y-89526190D01*
X98404761Y-89502380D01*
X98380952Y-89478571D01*
X98833333Y-89026190D02*
X99000000Y-89526190D01*
X99166666Y-89026190D01*
X99285714Y-89026190D02*
X99595238Y-89026190D01*
X99428571Y-89216666D01*
X99500000Y-89216666D01*
X99547619Y-89240476D01*
X99571428Y-89264285D01*
X99595238Y-89311904D01*
X99595238Y-89430952D01*
X99571428Y-89478571D01*
X99547619Y-89502380D01*
X99500000Y-89526190D01*
X99357142Y-89526190D01*
X99309523Y-89502380D01*
X99285714Y-89478571D01*
X96019047Y-89050000D02*
X95971428Y-89026190D01*
X95900000Y-89026190D01*
X95828571Y-89050000D01*
X95780952Y-89097619D01*
X95757142Y-89145238D01*
X95733333Y-89240476D01*
X95733333Y-89311904D01*
X95757142Y-89407142D01*
X95780952Y-89454761D01*
X95828571Y-89502380D01*
X95900000Y-89526190D01*
X95947619Y-89526190D01*
X96019047Y-89502380D01*
X96042857Y-89478571D01*
X96042857Y-89311904D01*
X95947619Y-89311904D01*
X96257142Y-89526190D02*
X96257142Y-89026190D01*
X96542857Y-89526190D01*
X96542857Y-89026190D01*
X96780952Y-89526190D02*
X96780952Y-89026190D01*
X96900000Y-89026190D01*
X96971428Y-89050000D01*
X97019047Y-89097619D01*
X97042857Y-89145238D01*
X97066666Y-89240476D01*
X97066666Y-89311904D01*
X97042857Y-89407142D01*
X97019047Y-89454761D01*
X96971428Y-89502380D01*
X96900000Y-89526190D01*
X96780952Y-89526190D01*
X81819047Y-92950000D02*
X81771428Y-92926190D01*
X81700000Y-92926190D01*
X81628571Y-92950000D01*
X81580952Y-92997619D01*
X81557142Y-93045238D01*
X81533333Y-93140476D01*
X81533333Y-93211904D01*
X81557142Y-93307142D01*
X81580952Y-93354761D01*
X81628571Y-93402380D01*
X81700000Y-93426190D01*
X81747619Y-93426190D01*
X81819047Y-93402380D01*
X81842857Y-93378571D01*
X81842857Y-93211904D01*
X81747619Y-93211904D01*
X82057142Y-93426190D02*
X82057142Y-92926190D01*
X82342857Y-93426190D01*
X82342857Y-92926190D01*
X82580952Y-93426190D02*
X82580952Y-92926190D01*
X82700000Y-92926190D01*
X82771428Y-92950000D01*
X82819047Y-92997619D01*
X82842857Y-93045238D01*
X82866666Y-93140476D01*
X82866666Y-93211904D01*
X82842857Y-93307142D01*
X82819047Y-93354761D01*
X82771428Y-93402380D01*
X82700000Y-93426190D01*
X82580952Y-93426190D01*
X100892857Y-89502380D02*
X100964285Y-89526190D01*
X101083333Y-89526190D01*
X101130952Y-89502380D01*
X101154761Y-89478571D01*
X101178571Y-89430952D01*
X101178571Y-89383333D01*
X101154761Y-89335714D01*
X101130952Y-89311904D01*
X101083333Y-89288095D01*
X100988095Y-89264285D01*
X100940476Y-89240476D01*
X100916666Y-89216666D01*
X100892857Y-89169047D01*
X100892857Y-89121428D01*
X100916666Y-89073809D01*
X100940476Y-89050000D01*
X100988095Y-89026190D01*
X101107142Y-89026190D01*
X101178571Y-89050000D01*
X101392857Y-89526190D02*
X101392857Y-89026190D01*
X101511904Y-89026190D01*
X101583333Y-89050000D01*
X101630952Y-89097619D01*
X101654761Y-89145238D01*
X101678571Y-89240476D01*
X101678571Y-89311904D01*
X101654761Y-89407142D01*
X101630952Y-89454761D01*
X101583333Y-89502380D01*
X101511904Y-89526190D01*
X101392857Y-89526190D01*
X101869047Y-89383333D02*
X102107142Y-89383333D01*
X101821428Y-89526190D02*
X101988095Y-89026190D01*
X102154761Y-89526190D01*
X81692857Y-100902380D02*
X81764285Y-100926190D01*
X81883333Y-100926190D01*
X81930952Y-100902380D01*
X81954761Y-100878571D01*
X81978571Y-100830952D01*
X81978571Y-100783333D01*
X81954761Y-100735714D01*
X81930952Y-100711904D01*
X81883333Y-100688095D01*
X81788095Y-100664285D01*
X81740476Y-100640476D01*
X81716666Y-100616666D01*
X81692857Y-100569047D01*
X81692857Y-100521428D01*
X81716666Y-100473809D01*
X81740476Y-100450000D01*
X81788095Y-100426190D01*
X81907142Y-100426190D01*
X81978571Y-100450000D01*
X82192857Y-100926190D02*
X82192857Y-100426190D01*
X82311904Y-100426190D01*
X82383333Y-100450000D01*
X82430952Y-100497619D01*
X82454761Y-100545238D01*
X82478571Y-100640476D01*
X82478571Y-100711904D01*
X82454761Y-100807142D01*
X82430952Y-100854761D01*
X82383333Y-100902380D01*
X82311904Y-100926190D01*
X82192857Y-100926190D01*
X82669047Y-100783333D02*
X82907142Y-100783333D01*
X82621428Y-100926190D02*
X82788095Y-100426190D01*
X82954761Y-100926190D01*
X98780952Y-107250000D02*
X98733333Y-107226190D01*
X98661904Y-107226190D01*
X98590476Y-107250000D01*
X98542857Y-107297619D01*
X98519047Y-107345238D01*
X98495238Y-107440476D01*
X98495238Y-107511904D01*
X98519047Y-107607142D01*
X98542857Y-107654761D01*
X98590476Y-107702380D01*
X98661904Y-107726190D01*
X98709523Y-107726190D01*
X98780952Y-107702380D01*
X98804761Y-107678571D01*
X98804761Y-107511904D01*
X98709523Y-107511904D01*
X99019047Y-107726190D02*
X99019047Y-107226190D01*
X99304761Y-107726190D01*
X99304761Y-107226190D01*
X99542857Y-107726190D02*
X99542857Y-107226190D01*
X99661904Y-107226190D01*
X99733333Y-107250000D01*
X99780952Y-107297619D01*
X99804761Y-107345238D01*
X99828571Y-107440476D01*
X99828571Y-107511904D01*
X99804761Y-107607142D01*
X99780952Y-107654761D01*
X99733333Y-107702380D01*
X99661904Y-107726190D01*
X99542857Y-107726190D01*
X100304761Y-107726190D02*
X100019047Y-107726190D01*
X100161904Y-107726190D02*
X100161904Y-107226190D01*
X100114285Y-107297619D01*
X100066666Y-107345238D01*
X100019047Y-107369047D01*
X111019047Y-107250000D02*
X110971428Y-107226190D01*
X110900000Y-107226190D01*
X110828571Y-107250000D01*
X110780952Y-107297619D01*
X110757142Y-107345238D01*
X110733333Y-107440476D01*
X110733333Y-107511904D01*
X110757142Y-107607142D01*
X110780952Y-107654761D01*
X110828571Y-107702380D01*
X110900000Y-107726190D01*
X110947619Y-107726190D01*
X111019047Y-107702380D01*
X111042857Y-107678571D01*
X111042857Y-107511904D01*
X110947619Y-107511904D01*
X111257142Y-107726190D02*
X111257142Y-107226190D01*
X111542857Y-107726190D01*
X111542857Y-107226190D01*
X111780952Y-107726190D02*
X111780952Y-107226190D01*
X111900000Y-107226190D01*
X111971428Y-107250000D01*
X112019047Y-107297619D01*
X112042857Y-107345238D01*
X112066666Y-107440476D01*
X112066666Y-107511904D01*
X112042857Y-107607142D01*
X112019047Y-107654761D01*
X111971428Y-107702380D01*
X111900000Y-107726190D01*
X111780952Y-107726190D01*
X87219047Y-109250000D02*
X87171428Y-109226190D01*
X87100000Y-109226190D01*
X87028571Y-109250000D01*
X86980952Y-109297619D01*
X86957142Y-109345238D01*
X86933333Y-109440476D01*
X86933333Y-109511904D01*
X86957142Y-109607142D01*
X86980952Y-109654761D01*
X87028571Y-109702380D01*
X87100000Y-109726190D01*
X87147619Y-109726190D01*
X87219047Y-109702380D01*
X87242857Y-109678571D01*
X87242857Y-109511904D01*
X87147619Y-109511904D01*
X87457142Y-109726190D02*
X87457142Y-109226190D01*
X87742857Y-109726190D01*
X87742857Y-109226190D01*
X87980952Y-109726190D02*
X87980952Y-109226190D01*
X88100000Y-109226190D01*
X88171428Y-109250000D01*
X88219047Y-109297619D01*
X88242857Y-109345238D01*
X88266666Y-109440476D01*
X88266666Y-109511904D01*
X88242857Y-109607142D01*
X88219047Y-109654761D01*
X88171428Y-109702380D01*
X88100000Y-109726190D01*
X87980952Y-109726190D01*
X76119047Y-109350000D02*
X76071428Y-109326190D01*
X76000000Y-109326190D01*
X75928571Y-109350000D01*
X75880952Y-109397619D01*
X75857142Y-109445238D01*
X75833333Y-109540476D01*
X75833333Y-109611904D01*
X75857142Y-109707142D01*
X75880952Y-109754761D01*
X75928571Y-109802380D01*
X76000000Y-109826190D01*
X76047619Y-109826190D01*
X76119047Y-109802380D01*
X76142857Y-109778571D01*
X76142857Y-109611904D01*
X76047619Y-109611904D01*
X76357142Y-109826190D02*
X76357142Y-109326190D01*
X76642857Y-109826190D01*
X76642857Y-109326190D01*
X76880952Y-109826190D02*
X76880952Y-109326190D01*
X77000000Y-109326190D01*
X77071428Y-109350000D01*
X77119047Y-109397619D01*
X77142857Y-109445238D01*
X77166666Y-109540476D01*
X77166666Y-109611904D01*
X77142857Y-109707142D01*
X77119047Y-109754761D01*
X77071428Y-109802380D01*
X77000000Y-109826190D01*
X76880952Y-109826190D01*
X62919047Y-104750000D02*
X62871428Y-104726190D01*
X62800000Y-104726190D01*
X62728571Y-104750000D01*
X62680952Y-104797619D01*
X62657142Y-104845238D01*
X62633333Y-104940476D01*
X62633333Y-105011904D01*
X62657142Y-105107142D01*
X62680952Y-105154761D01*
X62728571Y-105202380D01*
X62800000Y-105226190D01*
X62847619Y-105226190D01*
X62919047Y-105202380D01*
X62942857Y-105178571D01*
X62942857Y-105011904D01*
X62847619Y-105011904D01*
X63157142Y-105226190D02*
X63157142Y-104726190D01*
X63442857Y-105226190D01*
X63442857Y-104726190D01*
X63680952Y-105226190D02*
X63680952Y-104726190D01*
X63800000Y-104726190D01*
X63871428Y-104750000D01*
X63919047Y-104797619D01*
X63942857Y-104845238D01*
X63966666Y-104940476D01*
X63966666Y-105011904D01*
X63942857Y-105107142D01*
X63919047Y-105154761D01*
X63871428Y-105202380D01*
X63800000Y-105226190D01*
X63680952Y-105226190D01*
X63019047Y-89450000D02*
X62971428Y-89426190D01*
X62900000Y-89426190D01*
X62828571Y-89450000D01*
X62780952Y-89497619D01*
X62757142Y-89545238D01*
X62733333Y-89640476D01*
X62733333Y-89711904D01*
X62757142Y-89807142D01*
X62780952Y-89854761D01*
X62828571Y-89902380D01*
X62900000Y-89926190D01*
X62947619Y-89926190D01*
X63019047Y-89902380D01*
X63042857Y-89878571D01*
X63042857Y-89711904D01*
X62947619Y-89711904D01*
X63257142Y-89926190D02*
X63257142Y-89426190D01*
X63542857Y-89926190D01*
X63542857Y-89426190D01*
X63780952Y-89926190D02*
X63780952Y-89426190D01*
X63900000Y-89426190D01*
X63971428Y-89450000D01*
X64019047Y-89497619D01*
X64042857Y-89545238D01*
X64066666Y-89640476D01*
X64066666Y-89711904D01*
X64042857Y-89807142D01*
X64019047Y-89854761D01*
X63971428Y-89902380D01*
X63900000Y-89926190D01*
X63780952Y-89926190D01*
X84419047Y-59250000D02*
X84371428Y-59226190D01*
X84300000Y-59226190D01*
X84228571Y-59250000D01*
X84180952Y-59297619D01*
X84157142Y-59345238D01*
X84133333Y-59440476D01*
X84133333Y-59511904D01*
X84157142Y-59607142D01*
X84180952Y-59654761D01*
X84228571Y-59702380D01*
X84300000Y-59726190D01*
X84347619Y-59726190D01*
X84419047Y-59702380D01*
X84442857Y-59678571D01*
X84442857Y-59511904D01*
X84347619Y-59511904D01*
X84657142Y-59726190D02*
X84657142Y-59226190D01*
X84942857Y-59726190D01*
X84942857Y-59226190D01*
X85180952Y-59726190D02*
X85180952Y-59226190D01*
X85300000Y-59226190D01*
X85371428Y-59250000D01*
X85419047Y-59297619D01*
X85442857Y-59345238D01*
X85466666Y-59440476D01*
X85466666Y-59511904D01*
X85442857Y-59607142D01*
X85419047Y-59654761D01*
X85371428Y-59702380D01*
X85300000Y-59726190D01*
X85180952Y-59726190D01*
X63119047Y-71650000D02*
X63071428Y-71626190D01*
X63000000Y-71626190D01*
X62928571Y-71650000D01*
X62880952Y-71697619D01*
X62857142Y-71745238D01*
X62833333Y-71840476D01*
X62833333Y-71911904D01*
X62857142Y-72007142D01*
X62880952Y-72054761D01*
X62928571Y-72102380D01*
X63000000Y-72126190D01*
X63047619Y-72126190D01*
X63119047Y-72102380D01*
X63142857Y-72078571D01*
X63142857Y-71911904D01*
X63047619Y-71911904D01*
X63357142Y-72126190D02*
X63357142Y-71626190D01*
X63642857Y-72126190D01*
X63642857Y-71626190D01*
X63880952Y-72126190D02*
X63880952Y-71626190D01*
X64000000Y-71626190D01*
X64071428Y-71650000D01*
X64119047Y-71697619D01*
X64142857Y-71745238D01*
X64166666Y-71840476D01*
X64166666Y-71911904D01*
X64142857Y-72007142D01*
X64119047Y-72054761D01*
X64071428Y-72102380D01*
X64000000Y-72126190D01*
X63880952Y-72126190D01*
X113592857Y-58702380D02*
X113664285Y-58726190D01*
X113783333Y-58726190D01*
X113830952Y-58702380D01*
X113854761Y-58678571D01*
X113878571Y-58630952D01*
X113878571Y-58583333D01*
X113854761Y-58535714D01*
X113830952Y-58511904D01*
X113783333Y-58488095D01*
X113688095Y-58464285D01*
X113640476Y-58440476D01*
X113616666Y-58416666D01*
X113592857Y-58369047D01*
X113592857Y-58321428D01*
X113616666Y-58273809D01*
X113640476Y-58250000D01*
X113688095Y-58226190D01*
X113807142Y-58226190D01*
X113878571Y-58250000D01*
X114092857Y-58726190D02*
X114092857Y-58226190D01*
X114211904Y-58226190D01*
X114283333Y-58250000D01*
X114330952Y-58297619D01*
X114354761Y-58345238D01*
X114378571Y-58440476D01*
X114378571Y-58511904D01*
X114354761Y-58607142D01*
X114330952Y-58654761D01*
X114283333Y-58702380D01*
X114211904Y-58726190D01*
X114092857Y-58726190D01*
X114569047Y-58583333D02*
X114807142Y-58583333D01*
X114521428Y-58726190D02*
X114688095Y-58226190D01*
X114854761Y-58726190D01*
X62792857Y-67002380D02*
X62864285Y-67026190D01*
X62983333Y-67026190D01*
X63030952Y-67002380D01*
X63054761Y-66978571D01*
X63078571Y-66930952D01*
X63078571Y-66883333D01*
X63054761Y-66835714D01*
X63030952Y-66811904D01*
X62983333Y-66788095D01*
X62888095Y-66764285D01*
X62840476Y-66740476D01*
X62816666Y-66716666D01*
X62792857Y-66669047D01*
X62792857Y-66621428D01*
X62816666Y-66573809D01*
X62840476Y-66550000D01*
X62888095Y-66526190D01*
X63007142Y-66526190D01*
X63078571Y-66550000D01*
X63292857Y-67026190D02*
X63292857Y-66526190D01*
X63411904Y-66526190D01*
X63483333Y-66550000D01*
X63530952Y-66597619D01*
X63554761Y-66645238D01*
X63578571Y-66740476D01*
X63578571Y-66811904D01*
X63554761Y-66907142D01*
X63530952Y-66954761D01*
X63483333Y-67002380D01*
X63411904Y-67026190D01*
X63292857Y-67026190D01*
X63769047Y-66883333D02*
X64007142Y-66883333D01*
X63721428Y-67026190D02*
X63888095Y-66526190D01*
X64054761Y-67026190D01*
X62792857Y-84802380D02*
X62864285Y-84826190D01*
X62983333Y-84826190D01*
X63030952Y-84802380D01*
X63054761Y-84778571D01*
X63078571Y-84730952D01*
X63078571Y-84683333D01*
X63054761Y-84635714D01*
X63030952Y-84611904D01*
X62983333Y-84588095D01*
X62888095Y-84564285D01*
X62840476Y-84540476D01*
X62816666Y-84516666D01*
X62792857Y-84469047D01*
X62792857Y-84421428D01*
X62816666Y-84373809D01*
X62840476Y-84350000D01*
X62888095Y-84326190D01*
X63007142Y-84326190D01*
X63078571Y-84350000D01*
X63292857Y-84826190D02*
X63292857Y-84326190D01*
X63411904Y-84326190D01*
X63483333Y-84350000D01*
X63530952Y-84397619D01*
X63554761Y-84445238D01*
X63578571Y-84540476D01*
X63578571Y-84611904D01*
X63554761Y-84707142D01*
X63530952Y-84754761D01*
X63483333Y-84802380D01*
X63411904Y-84826190D01*
X63292857Y-84826190D01*
X63769047Y-84683333D02*
X64007142Y-84683333D01*
X63721428Y-84826190D02*
X63888095Y-84326190D01*
X64054761Y-84826190D01*
X62804761Y-69702380D02*
X62876190Y-69726190D01*
X62995238Y-69726190D01*
X63042857Y-69702380D01*
X63066666Y-69678571D01*
X63090476Y-69630952D01*
X63090476Y-69583333D01*
X63066666Y-69535714D01*
X63042857Y-69511904D01*
X62995238Y-69488095D01*
X62900000Y-69464285D01*
X62852380Y-69440476D01*
X62828571Y-69416666D01*
X62804761Y-69369047D01*
X62804761Y-69321428D01*
X62828571Y-69273809D01*
X62852380Y-69250000D01*
X62900000Y-69226190D01*
X63019047Y-69226190D01*
X63090476Y-69250000D01*
X63590476Y-69678571D02*
X63566666Y-69702380D01*
X63495238Y-69726190D01*
X63447619Y-69726190D01*
X63376190Y-69702380D01*
X63328571Y-69654761D01*
X63304761Y-69607142D01*
X63280952Y-69511904D01*
X63280952Y-69440476D01*
X63304761Y-69345238D01*
X63328571Y-69297619D01*
X63376190Y-69250000D01*
X63447619Y-69226190D01*
X63495238Y-69226190D01*
X63566666Y-69250000D01*
X63590476Y-69273809D01*
X64042857Y-69726190D02*
X63804761Y-69726190D01*
X63804761Y-69226190D01*
X116204761Y-58702380D02*
X116276190Y-58726190D01*
X116395238Y-58726190D01*
X116442857Y-58702380D01*
X116466666Y-58678571D01*
X116490476Y-58630952D01*
X116490476Y-58583333D01*
X116466666Y-58535714D01*
X116442857Y-58511904D01*
X116395238Y-58488095D01*
X116300000Y-58464285D01*
X116252380Y-58440476D01*
X116228571Y-58416666D01*
X116204761Y-58369047D01*
X116204761Y-58321428D01*
X116228571Y-58273809D01*
X116252380Y-58250000D01*
X116300000Y-58226190D01*
X116419047Y-58226190D01*
X116490476Y-58250000D01*
X116990476Y-58678571D02*
X116966666Y-58702380D01*
X116895238Y-58726190D01*
X116847619Y-58726190D01*
X116776190Y-58702380D01*
X116728571Y-58654761D01*
X116704761Y-58607142D01*
X116680952Y-58511904D01*
X116680952Y-58440476D01*
X116704761Y-58345238D01*
X116728571Y-58297619D01*
X116776190Y-58250000D01*
X116847619Y-58226190D01*
X116895238Y-58226190D01*
X116966666Y-58250000D01*
X116990476Y-58273809D01*
X117442857Y-58726190D02*
X117204761Y-58726190D01*
X117204761Y-58226190D01*
X103504761Y-89502380D02*
X103576190Y-89526190D01*
X103695238Y-89526190D01*
X103742857Y-89502380D01*
X103766666Y-89478571D01*
X103790476Y-89430952D01*
X103790476Y-89383333D01*
X103766666Y-89335714D01*
X103742857Y-89311904D01*
X103695238Y-89288095D01*
X103600000Y-89264285D01*
X103552380Y-89240476D01*
X103528571Y-89216666D01*
X103504761Y-89169047D01*
X103504761Y-89121428D01*
X103528571Y-89073809D01*
X103552380Y-89050000D01*
X103600000Y-89026190D01*
X103719047Y-89026190D01*
X103790476Y-89050000D01*
X104290476Y-89478571D02*
X104266666Y-89502380D01*
X104195238Y-89526190D01*
X104147619Y-89526190D01*
X104076190Y-89502380D01*
X104028571Y-89454761D01*
X104004761Y-89407142D01*
X103980952Y-89311904D01*
X103980952Y-89240476D01*
X104004761Y-89145238D01*
X104028571Y-89097619D01*
X104076190Y-89050000D01*
X104147619Y-89026190D01*
X104195238Y-89026190D01*
X104266666Y-89050000D01*
X104290476Y-89073809D01*
X104742857Y-89526190D02*
X104504761Y-89526190D01*
X104504761Y-89026190D01*
X81604761Y-98502380D02*
X81676190Y-98526190D01*
X81795238Y-98526190D01*
X81842857Y-98502380D01*
X81866666Y-98478571D01*
X81890476Y-98430952D01*
X81890476Y-98383333D01*
X81866666Y-98335714D01*
X81842857Y-98311904D01*
X81795238Y-98288095D01*
X81700000Y-98264285D01*
X81652380Y-98240476D01*
X81628571Y-98216666D01*
X81604761Y-98169047D01*
X81604761Y-98121428D01*
X81628571Y-98073809D01*
X81652380Y-98050000D01*
X81700000Y-98026190D01*
X81819047Y-98026190D01*
X81890476Y-98050000D01*
X82390476Y-98478571D02*
X82366666Y-98502380D01*
X82295238Y-98526190D01*
X82247619Y-98526190D01*
X82176190Y-98502380D01*
X82128571Y-98454761D01*
X82104761Y-98407142D01*
X82080952Y-98311904D01*
X82080952Y-98240476D01*
X82104761Y-98145238D01*
X82128571Y-98097619D01*
X82176190Y-98050000D01*
X82247619Y-98026190D01*
X82295238Y-98026190D01*
X82366666Y-98050000D01*
X82390476Y-98073809D01*
X82842857Y-98526190D02*
X82604761Y-98526190D01*
X82604761Y-98026190D01*
X62704761Y-87402380D02*
X62776190Y-87426190D01*
X62895238Y-87426190D01*
X62942857Y-87402380D01*
X62966666Y-87378571D01*
X62990476Y-87330952D01*
X62990476Y-87283333D01*
X62966666Y-87235714D01*
X62942857Y-87211904D01*
X62895238Y-87188095D01*
X62800000Y-87164285D01*
X62752380Y-87140476D01*
X62728571Y-87116666D01*
X62704761Y-87069047D01*
X62704761Y-87021428D01*
X62728571Y-86973809D01*
X62752380Y-86950000D01*
X62800000Y-86926190D01*
X62919047Y-86926190D01*
X62990476Y-86950000D01*
X63490476Y-87378571D02*
X63466666Y-87402380D01*
X63395238Y-87426190D01*
X63347619Y-87426190D01*
X63276190Y-87402380D01*
X63228571Y-87354761D01*
X63204761Y-87307142D01*
X63180952Y-87211904D01*
X63180952Y-87140476D01*
X63204761Y-87045238D01*
X63228571Y-86997619D01*
X63276190Y-86950000D01*
X63347619Y-86926190D01*
X63395238Y-86926190D01*
X63466666Y-86950000D01*
X63490476Y-86973809D01*
X63942857Y-87426190D02*
X63704761Y-87426190D01*
X63704761Y-86926190D01*
X70892857Y-109802380D02*
X70964285Y-109826190D01*
X71083333Y-109826190D01*
X71130952Y-109802380D01*
X71154761Y-109778571D01*
X71178571Y-109730952D01*
X71178571Y-109683333D01*
X71154761Y-109635714D01*
X71130952Y-109611904D01*
X71083333Y-109588095D01*
X70988095Y-109564285D01*
X70940476Y-109540476D01*
X70916666Y-109516666D01*
X70892857Y-109469047D01*
X70892857Y-109421428D01*
X70916666Y-109373809D01*
X70940476Y-109350000D01*
X70988095Y-109326190D01*
X71107142Y-109326190D01*
X71178571Y-109350000D01*
X71392857Y-109826190D02*
X71392857Y-109326190D01*
X71511904Y-109326190D01*
X71583333Y-109350000D01*
X71630952Y-109397619D01*
X71654761Y-109445238D01*
X71678571Y-109540476D01*
X71678571Y-109611904D01*
X71654761Y-109707142D01*
X71630952Y-109754761D01*
X71583333Y-109802380D01*
X71511904Y-109826190D01*
X71392857Y-109826190D01*
X71869047Y-109683333D02*
X72107142Y-109683333D01*
X71821428Y-109826190D02*
X71988095Y-109326190D01*
X72154761Y-109826190D01*
X73404761Y-109802380D02*
X73476190Y-109826190D01*
X73595238Y-109826190D01*
X73642857Y-109802380D01*
X73666666Y-109778571D01*
X73690476Y-109730952D01*
X73690476Y-109683333D01*
X73666666Y-109635714D01*
X73642857Y-109611904D01*
X73595238Y-109588095D01*
X73500000Y-109564285D01*
X73452380Y-109540476D01*
X73428571Y-109516666D01*
X73404761Y-109469047D01*
X73404761Y-109421428D01*
X73428571Y-109373809D01*
X73452380Y-109350000D01*
X73500000Y-109326190D01*
X73619047Y-109326190D01*
X73690476Y-109350000D01*
X74190476Y-109778571D02*
X74166666Y-109802380D01*
X74095238Y-109826190D01*
X74047619Y-109826190D01*
X73976190Y-109802380D01*
X73928571Y-109754761D01*
X73904761Y-109707142D01*
X73880952Y-109611904D01*
X73880952Y-109540476D01*
X73904761Y-109445238D01*
X73928571Y-109397619D01*
X73976190Y-109350000D01*
X74047619Y-109326190D01*
X74095238Y-109326190D01*
X74166666Y-109350000D01*
X74190476Y-109373809D01*
X74642857Y-109826190D02*
X74404761Y-109826190D01*
X74404761Y-109326190D01*
X62704761Y-102602380D02*
X62776190Y-102626190D01*
X62895238Y-102626190D01*
X62942857Y-102602380D01*
X62966666Y-102578571D01*
X62990476Y-102530952D01*
X62990476Y-102483333D01*
X62966666Y-102435714D01*
X62942857Y-102411904D01*
X62895238Y-102388095D01*
X62800000Y-102364285D01*
X62752380Y-102340476D01*
X62728571Y-102316666D01*
X62704761Y-102269047D01*
X62704761Y-102221428D01*
X62728571Y-102173809D01*
X62752380Y-102150000D01*
X62800000Y-102126190D01*
X62919047Y-102126190D01*
X62990476Y-102150000D01*
X63490476Y-102578571D02*
X63466666Y-102602380D01*
X63395238Y-102626190D01*
X63347619Y-102626190D01*
X63276190Y-102602380D01*
X63228571Y-102554761D01*
X63204761Y-102507142D01*
X63180952Y-102411904D01*
X63180952Y-102340476D01*
X63204761Y-102245238D01*
X63228571Y-102197619D01*
X63276190Y-102150000D01*
X63347619Y-102126190D01*
X63395238Y-102126190D01*
X63466666Y-102150000D01*
X63490476Y-102173809D01*
X63942857Y-102626190D02*
X63704761Y-102626190D01*
X63704761Y-102126190D01*
X62592857Y-100002380D02*
X62664285Y-100026190D01*
X62783333Y-100026190D01*
X62830952Y-100002380D01*
X62854761Y-99978571D01*
X62878571Y-99930952D01*
X62878571Y-99883333D01*
X62854761Y-99835714D01*
X62830952Y-99811904D01*
X62783333Y-99788095D01*
X62688095Y-99764285D01*
X62640476Y-99740476D01*
X62616666Y-99716666D01*
X62592857Y-99669047D01*
X62592857Y-99621428D01*
X62616666Y-99573809D01*
X62640476Y-99550000D01*
X62688095Y-99526190D01*
X62807142Y-99526190D01*
X62878571Y-99550000D01*
X63092857Y-100026190D02*
X63092857Y-99526190D01*
X63211904Y-99526190D01*
X63283333Y-99550000D01*
X63330952Y-99597619D01*
X63354761Y-99645238D01*
X63378571Y-99740476D01*
X63378571Y-99811904D01*
X63354761Y-99907142D01*
X63330952Y-99954761D01*
X63283333Y-100002380D01*
X63211904Y-100026190D01*
X63092857Y-100026190D01*
X63569047Y-99883333D02*
X63807142Y-99883333D01*
X63521428Y-100026190D02*
X63688095Y-99526190D01*
X63854761Y-100026190D01*
D12*
%TO.C,J4*%
X97650000Y-88430000D02*
X97650000Y-85770000D01*
X97650000Y-88430000D02*
X105330000Y-88430000D01*
X105330000Y-88430000D02*
X105330000Y-85770000D01*
X97650000Y-85770000D02*
X105330000Y-85770000D01*
X95050000Y-85770000D02*
X96380000Y-85770000D01*
X95050000Y-87100000D02*
X95050000Y-85770000D01*
%TO.C,J9*%
X109000000Y-108750000D02*
X107670000Y-108750000D01*
X107670000Y-108750000D02*
X107670000Y-107420000D01*
X107670000Y-106150000D02*
X107670000Y-90850000D01*
X110330000Y-90850000D02*
X107670000Y-90850000D01*
X110330000Y-106150000D02*
X110330000Y-90850000D01*
X110330000Y-106150000D02*
X107670000Y-106150000D01*
X102328280Y-108750860D02*
X100998280Y-108750860D01*
X103658280Y-90850860D02*
X100998280Y-90850860D01*
X103658280Y-106150860D02*
X103658280Y-90850860D01*
X100998280Y-106150860D02*
X100998280Y-90850860D01*
X103658280Y-106150860D02*
X100998280Y-106150860D01*
X100998280Y-108750860D02*
X100998280Y-107420860D01*
%TO.C,J15*%
X83510000Y-60410000D02*
X83510000Y-63070000D01*
X83510000Y-60410000D02*
X65670000Y-60410000D01*
X65670000Y-60410000D02*
X65670000Y-63070000D01*
X83510000Y-63070000D02*
X65670000Y-63070000D01*
X86110000Y-63070000D02*
X84780000Y-63070000D01*
X86110000Y-61740000D02*
X86110000Y-63070000D01*
%TO.C,J1*%
X80330000Y-107420000D02*
X80330000Y-108750000D01*
X80330000Y-108750000D02*
X79000000Y-108750000D01*
X77730000Y-108750000D02*
X64970000Y-108750000D01*
X64970000Y-106090000D02*
X64970000Y-108750000D01*
X77730000Y-106090000D02*
X64970000Y-106090000D01*
X77730000Y-106090000D02*
X77730000Y-108750000D01*
%TO.C,J13*%
X95440000Y-95720000D02*
X97560000Y-95720000D01*
X95440000Y-95720000D02*
X95440000Y-99780000D01*
X95440000Y-99780000D02*
X97560000Y-99780000D01*
X97560000Y-95720000D02*
X97560000Y-99780000D01*
X97560000Y-93660000D02*
X97560000Y-94720000D01*
X96500000Y-93660000D02*
X97560000Y-93660000D01*
%TO.C,J3*%
X83470000Y-94370000D02*
X86130000Y-94370000D01*
X83470000Y-94370000D02*
X83470000Y-102050000D01*
X83470000Y-102050000D02*
X86130000Y-102050000D01*
X86130000Y-94370000D02*
X86130000Y-102050000D01*
X86130000Y-91770000D02*
X86130000Y-93100000D01*
X84800000Y-91770000D02*
X86130000Y-91770000D01*
%TO.C,J2*%
X62200000Y-106190000D02*
X59540000Y-106190000D01*
X62200000Y-106190000D02*
X62200000Y-95970000D01*
X62200000Y-95970000D02*
X59540000Y-95970000D01*
X59540000Y-106190000D02*
X59540000Y-95970000D01*
X59540000Y-108790000D02*
X59540000Y-107460000D01*
X60870000Y-108790000D02*
X59540000Y-108790000D01*
%TO.C,J6*%
X62200000Y-90950000D02*
X59540000Y-90950000D01*
X62200000Y-90950000D02*
X62200000Y-78190000D01*
X62200000Y-78190000D02*
X59540000Y-78190000D01*
X59540000Y-90950000D02*
X59540000Y-78190000D01*
X59540000Y-93550000D02*
X59540000Y-92220000D01*
X60870000Y-93550000D02*
X59540000Y-93550000D01*
%TO.C,J5*%
X62200000Y-73170000D02*
X59540000Y-73170000D01*
X62200000Y-73170000D02*
X62200000Y-60410000D01*
X62200000Y-60410000D02*
X59540000Y-60410000D01*
X59540000Y-73170000D02*
X59540000Y-60410000D01*
X59540000Y-75770000D02*
X59540000Y-74440000D01*
X60870000Y-75770000D02*
X59540000Y-75770000D01*
%TO.C,SW4*%
X54100000Y-34600000D02*
X56820000Y-34600000D01*
X63680000Y-34600000D02*
X66400000Y-34600000D01*
X61820000Y-46900000D02*
X58680000Y-46900000D01*
X66400000Y-46900000D02*
X63680000Y-46900000D01*
X64869050Y-40650000D02*
G75*
G03*
X64869050Y-40650000I-4579050J0D01*
G01*
X56820000Y-46900000D02*
X54100000Y-46900000D01*
X66400000Y-34600000D02*
X66400000Y-46900000D01*
X58680000Y-34600000D02*
X61820000Y-34600000D01*
X54100000Y-46900000D02*
X54100000Y-34600000D01*
%TO.C,SW3*%
X70600000Y-34600000D02*
X73320000Y-34600000D01*
X80180000Y-34600000D02*
X82900000Y-34600000D01*
X78320000Y-46900000D02*
X75180000Y-46900000D01*
X82900000Y-46900000D02*
X80180000Y-46900000D01*
X81369050Y-40650000D02*
G75*
G03*
X81369050Y-40650000I-4579050J0D01*
G01*
X73320000Y-46900000D02*
X70600000Y-46900000D01*
X82900000Y-34600000D02*
X82900000Y-46900000D01*
X75180000Y-34600000D02*
X78320000Y-34600000D01*
X70600000Y-46900000D02*
X70600000Y-34600000D01*
%TO.C,SW2*%
X87100000Y-34600000D02*
X89820000Y-34600000D01*
X96680000Y-34600000D02*
X99400000Y-34600000D01*
X94820000Y-46900000D02*
X91680000Y-46900000D01*
X99400000Y-46900000D02*
X96680000Y-46900000D01*
X97869050Y-40650000D02*
G75*
G03*
X97869050Y-40650000I-4579050J0D01*
G01*
X89820000Y-46900000D02*
X87100000Y-46900000D01*
X99400000Y-34600000D02*
X99400000Y-46900000D01*
X91680000Y-34600000D02*
X94820000Y-34600000D01*
X87100000Y-46900000D02*
X87100000Y-34600000D01*
%TO.C,SW1*%
X103600000Y-34600000D02*
X106320000Y-34600000D01*
X113180000Y-34600000D02*
X115900000Y-34600000D01*
X111320000Y-46900000D02*
X108180000Y-46900000D01*
X115900000Y-46900000D02*
X113180000Y-46900000D01*
X114369050Y-40650000D02*
G75*
G03*
X114369050Y-40650000I-4579050J0D01*
G01*
X106320000Y-46900000D02*
X103600000Y-46900000D01*
X115900000Y-34600000D02*
X115900000Y-46900000D01*
X108180000Y-34600000D02*
X111320000Y-34600000D01*
X103600000Y-46900000D02*
X103600000Y-34600000D01*
%TO.C,J16*%
X118080000Y-52500000D02*
X118080000Y-53830000D01*
X118080000Y-53830000D02*
X116750000Y-53830000D01*
X115480000Y-53830000D02*
X112880000Y-53830000D01*
X112880000Y-51170000D02*
X112880000Y-53830000D01*
X115480000Y-51170000D02*
X112880000Y-51170000D01*
X115480000Y-51170000D02*
X115480000Y-53830000D01*
%TO.C,J14*%
X83140000Y-111070000D02*
X83540000Y-111070000D01*
X83140000Y-110430000D02*
X83140000Y-111070000D01*
X89160000Y-104090000D02*
X89160000Y-110830000D01*
X83380000Y-104090000D02*
X83380000Y-110830000D01*
X83380000Y-110830000D02*
X89160000Y-110830000D01*
X83380000Y-104090000D02*
X89160000Y-104090000D01*
X83380000Y-105210000D02*
X89160000Y-105210000D01*
X83380000Y-110310000D02*
X89160000Y-110310000D01*
%TO.C,J12*%
X92140000Y-111070000D02*
X92540000Y-111070000D01*
X92140000Y-110430000D02*
X92140000Y-111070000D01*
X98160000Y-104090000D02*
X98160000Y-110830000D01*
X92380000Y-104090000D02*
X92380000Y-110830000D01*
X92380000Y-110830000D02*
X98160000Y-110830000D01*
X92380000Y-104090000D02*
X98160000Y-104090000D01*
X92380000Y-105210000D02*
X98160000Y-105210000D01*
X92380000Y-110310000D02*
X98160000Y-110310000D01*
%TO.C,J8*%
X118080000Y-56620000D02*
X118080000Y-57950000D01*
X118080000Y-57950000D02*
X116750000Y-57950000D01*
X115480000Y-57950000D02*
X112880000Y-57950000D01*
X112880000Y-55290000D02*
X112880000Y-57950000D01*
X115480000Y-55290000D02*
X112880000Y-55290000D01*
X115480000Y-55290000D02*
X115480000Y-57950000D01*
%TO.C,J4*%
D11*
X93062380Y-87433333D02*
X93776666Y-87433333D01*
X93919523Y-87480952D01*
X94014761Y-87576190D01*
X94062380Y-87719047D01*
X94062380Y-87814285D01*
X93395714Y-86528571D02*
X94062380Y-86528571D01*
X93014761Y-86766666D02*
X93729047Y-87004761D01*
X93729047Y-86385714D01*
%TO.C,J9*%
X108666666Y-109642380D02*
X108666666Y-110356666D01*
X108619047Y-110499523D01*
X108523809Y-110594761D01*
X108380952Y-110642380D01*
X108285714Y-110642380D01*
X109190476Y-110642380D02*
X109380952Y-110642380D01*
X109476190Y-110594761D01*
X109523809Y-110547142D01*
X109619047Y-110404285D01*
X109666666Y-110213809D01*
X109666666Y-109832857D01*
X109619047Y-109737619D01*
X109571428Y-109690000D01*
X109476190Y-109642380D01*
X109285714Y-109642380D01*
X109190476Y-109690000D01*
X109142857Y-109737619D01*
X109095238Y-109832857D01*
X109095238Y-110070952D01*
X109142857Y-110166190D01*
X109190476Y-110213809D01*
X109285714Y-110261428D01*
X109476190Y-110261428D01*
X109571428Y-110213809D01*
X109619047Y-110166190D01*
X109666666Y-110070952D01*
%TO.C,J15*%
X86490476Y-58352380D02*
X86490476Y-59066666D01*
X86442857Y-59209523D01*
X86347619Y-59304761D01*
X86204761Y-59352380D01*
X86109523Y-59352380D01*
X87490476Y-59352380D02*
X86919047Y-59352380D01*
X87204761Y-59352380D02*
X87204761Y-58352380D01*
X87109523Y-58495238D01*
X87014285Y-58590476D01*
X86919047Y-58638095D01*
X88395238Y-58352380D02*
X87919047Y-58352380D01*
X87871428Y-58828571D01*
X87919047Y-58780952D01*
X88014285Y-58733333D01*
X88252380Y-58733333D01*
X88347619Y-58780952D01*
X88395238Y-58828571D01*
X88442857Y-58923809D01*
X88442857Y-59161904D01*
X88395238Y-59257142D01*
X88347619Y-59304761D01*
X88252380Y-59352380D01*
X88014285Y-59352380D01*
X87919047Y-59304761D01*
X87871428Y-59257142D01*
%TO.C,J1*%
X80666666Y-110352380D02*
X80666666Y-111066666D01*
X80619047Y-111209523D01*
X80523809Y-111304761D01*
X80380952Y-111352380D01*
X80285714Y-111352380D01*
X81666666Y-111352380D02*
X81095238Y-111352380D01*
X81380952Y-111352380D02*
X81380952Y-110352380D01*
X81285714Y-110495238D01*
X81190476Y-110590476D01*
X81095238Y-110638095D01*
%TO.C,J13*%
X95690476Y-91672380D02*
X95690476Y-92386666D01*
X95642857Y-92529523D01*
X95547619Y-92624761D01*
X95404761Y-92672380D01*
X95309523Y-92672380D01*
X96690476Y-92672380D02*
X96119047Y-92672380D01*
X96404761Y-92672380D02*
X96404761Y-91672380D01*
X96309523Y-91815238D01*
X96214285Y-91910476D01*
X96119047Y-91958095D01*
X97023809Y-91672380D02*
X97642857Y-91672380D01*
X97309523Y-92053333D01*
X97452380Y-92053333D01*
X97547619Y-92100952D01*
X97595238Y-92148571D01*
X97642857Y-92243809D01*
X97642857Y-92481904D01*
X97595238Y-92577142D01*
X97547619Y-92624761D01*
X97452380Y-92672380D01*
X97166666Y-92672380D01*
X97071428Y-92624761D01*
X97023809Y-92577142D01*
%TO.C,J3*%
X84466666Y-89782380D02*
X84466666Y-90496666D01*
X84419047Y-90639523D01*
X84323809Y-90734761D01*
X84180952Y-90782380D01*
X84085714Y-90782380D01*
X84847619Y-89782380D02*
X85466666Y-89782380D01*
X85133333Y-90163333D01*
X85276190Y-90163333D01*
X85371428Y-90210952D01*
X85419047Y-90258571D01*
X85466666Y-90353809D01*
X85466666Y-90591904D01*
X85419047Y-90687142D01*
X85371428Y-90734761D01*
X85276190Y-90782380D01*
X84990476Y-90782380D01*
X84895238Y-90734761D01*
X84847619Y-90687142D01*
%TO.C,J2*%
X62416666Y-109952380D02*
X62416666Y-110666666D01*
X62369047Y-110809523D01*
X62273809Y-110904761D01*
X62130952Y-110952380D01*
X62035714Y-110952380D01*
X62845238Y-110047619D02*
X62892857Y-110000000D01*
X62988095Y-109952380D01*
X63226190Y-109952380D01*
X63321428Y-110000000D01*
X63369047Y-110047619D01*
X63416666Y-110142857D01*
X63416666Y-110238095D01*
X63369047Y-110380952D01*
X62797619Y-110952380D01*
X63416666Y-110952380D01*
%TO.C,J6*%
X60536666Y-94252380D02*
X60536666Y-94966666D01*
X60489047Y-95109523D01*
X60393809Y-95204761D01*
X60250952Y-95252380D01*
X60155714Y-95252380D01*
X61441428Y-94252380D02*
X61250952Y-94252380D01*
X61155714Y-94300000D01*
X61108095Y-94347619D01*
X61012857Y-94490476D01*
X60965238Y-94680952D01*
X60965238Y-95061904D01*
X61012857Y-95157142D01*
X61060476Y-95204761D01*
X61155714Y-95252380D01*
X61346190Y-95252380D01*
X61441428Y-95204761D01*
X61489047Y-95157142D01*
X61536666Y-95061904D01*
X61536666Y-94823809D01*
X61489047Y-94728571D01*
X61441428Y-94680952D01*
X61346190Y-94633333D01*
X61155714Y-94633333D01*
X61060476Y-94680952D01*
X61012857Y-94728571D01*
X60965238Y-94823809D01*
%TO.C,J5*%
X60366666Y-76452380D02*
X60366666Y-77166666D01*
X60319047Y-77309523D01*
X60223809Y-77404761D01*
X60080952Y-77452380D01*
X59985714Y-77452380D01*
X61319047Y-76452380D02*
X60842857Y-76452380D01*
X60795238Y-76928571D01*
X60842857Y-76880952D01*
X60938095Y-76833333D01*
X61176190Y-76833333D01*
X61271428Y-76880952D01*
X61319047Y-76928571D01*
X61366666Y-77023809D01*
X61366666Y-77261904D01*
X61319047Y-77357142D01*
X61271428Y-77404761D01*
X61176190Y-77452380D01*
X60938095Y-77452380D01*
X60842857Y-77404761D01*
X60795238Y-77357142D01*
%TO.C,SW4*%
X50766666Y-32604761D02*
X50909523Y-32652380D01*
X51147619Y-32652380D01*
X51242857Y-32604761D01*
X51290476Y-32557142D01*
X51338095Y-32461904D01*
X51338095Y-32366666D01*
X51290476Y-32271428D01*
X51242857Y-32223809D01*
X51147619Y-32176190D01*
X50957142Y-32128571D01*
X50861904Y-32080952D01*
X50814285Y-32033333D01*
X50766666Y-31938095D01*
X50766666Y-31842857D01*
X50814285Y-31747619D01*
X50861904Y-31700000D01*
X50957142Y-31652380D01*
X51195238Y-31652380D01*
X51338095Y-31700000D01*
X51671428Y-31652380D02*
X51909523Y-32652380D01*
X52100000Y-31938095D01*
X52290476Y-32652380D01*
X52528571Y-31652380D01*
X53338095Y-31985714D02*
X53338095Y-32652380D01*
X53100000Y-31604761D02*
X52861904Y-32319047D01*
X53480952Y-32319047D01*
%TO.C,SW3*%
X67466666Y-32504761D02*
X67609523Y-32552380D01*
X67847619Y-32552380D01*
X67942857Y-32504761D01*
X67990476Y-32457142D01*
X68038095Y-32361904D01*
X68038095Y-32266666D01*
X67990476Y-32171428D01*
X67942857Y-32123809D01*
X67847619Y-32076190D01*
X67657142Y-32028571D01*
X67561904Y-31980952D01*
X67514285Y-31933333D01*
X67466666Y-31838095D01*
X67466666Y-31742857D01*
X67514285Y-31647619D01*
X67561904Y-31600000D01*
X67657142Y-31552380D01*
X67895238Y-31552380D01*
X68038095Y-31600000D01*
X68371428Y-31552380D02*
X68609523Y-32552380D01*
X68800000Y-31838095D01*
X68990476Y-32552380D01*
X69228571Y-31552380D01*
X69514285Y-31552380D02*
X70133333Y-31552380D01*
X69800000Y-31933333D01*
X69942857Y-31933333D01*
X70038095Y-31980952D01*
X70085714Y-32028571D01*
X70133333Y-32123809D01*
X70133333Y-32361904D01*
X70085714Y-32457142D01*
X70038095Y-32504761D01*
X69942857Y-32552380D01*
X69657142Y-32552380D01*
X69561904Y-32504761D01*
X69514285Y-32457142D01*
%TO.C,SW2*%
X83766666Y-32604761D02*
X83909523Y-32652380D01*
X84147619Y-32652380D01*
X84242857Y-32604761D01*
X84290476Y-32557142D01*
X84338095Y-32461904D01*
X84338095Y-32366666D01*
X84290476Y-32271428D01*
X84242857Y-32223809D01*
X84147619Y-32176190D01*
X83957142Y-32128571D01*
X83861904Y-32080952D01*
X83814285Y-32033333D01*
X83766666Y-31938095D01*
X83766666Y-31842857D01*
X83814285Y-31747619D01*
X83861904Y-31700000D01*
X83957142Y-31652380D01*
X84195238Y-31652380D01*
X84338095Y-31700000D01*
X84671428Y-31652380D02*
X84909523Y-32652380D01*
X85100000Y-31938095D01*
X85290476Y-32652380D01*
X85528571Y-31652380D01*
X85861904Y-31747619D02*
X85909523Y-31700000D01*
X86004761Y-31652380D01*
X86242857Y-31652380D01*
X86338095Y-31700000D01*
X86385714Y-31747619D01*
X86433333Y-31842857D01*
X86433333Y-31938095D01*
X86385714Y-32080952D01*
X85814285Y-32652380D01*
X86433333Y-32652380D01*
%TO.C,SW1*%
X100366666Y-32604761D02*
X100509523Y-32652380D01*
X100747619Y-32652380D01*
X100842857Y-32604761D01*
X100890476Y-32557142D01*
X100938095Y-32461904D01*
X100938095Y-32366666D01*
X100890476Y-32271428D01*
X100842857Y-32223809D01*
X100747619Y-32176190D01*
X100557142Y-32128571D01*
X100461904Y-32080952D01*
X100414285Y-32033333D01*
X100366666Y-31938095D01*
X100366666Y-31842857D01*
X100414285Y-31747619D01*
X100461904Y-31700000D01*
X100557142Y-31652380D01*
X100795238Y-31652380D01*
X100938095Y-31700000D01*
X101271428Y-31652380D02*
X101509523Y-32652380D01*
X101700000Y-31938095D01*
X101890476Y-32652380D01*
X102128571Y-31652380D01*
X103033333Y-32652380D02*
X102461904Y-32652380D01*
X102747619Y-32652380D02*
X102747619Y-31652380D01*
X102652380Y-31795238D01*
X102557142Y-31890476D01*
X102461904Y-31938095D01*
%TO.C,J16*%
X109390476Y-52252380D02*
X109390476Y-52966666D01*
X109342857Y-53109523D01*
X109247619Y-53204761D01*
X109104761Y-53252380D01*
X109009523Y-53252380D01*
X110390476Y-53252380D02*
X109819047Y-53252380D01*
X110104761Y-53252380D02*
X110104761Y-52252380D01*
X110009523Y-52395238D01*
X109914285Y-52490476D01*
X109819047Y-52538095D01*
X111247619Y-52252380D02*
X111057142Y-52252380D01*
X110961904Y-52300000D01*
X110914285Y-52347619D01*
X110819047Y-52490476D01*
X110771428Y-52680952D01*
X110771428Y-53061904D01*
X110819047Y-53157142D01*
X110866666Y-53204761D01*
X110961904Y-53252380D01*
X111152380Y-53252380D01*
X111247619Y-53204761D01*
X111295238Y-53157142D01*
X111342857Y-53061904D01*
X111342857Y-52823809D01*
X111295238Y-52728571D01*
X111247619Y-52680952D01*
X111152380Y-52633333D01*
X110961904Y-52633333D01*
X110866666Y-52680952D01*
X110819047Y-52728571D01*
X110771428Y-52823809D01*
%TO.C,J14*%
X87490476Y-102252380D02*
X87490476Y-102966666D01*
X87442857Y-103109523D01*
X87347619Y-103204761D01*
X87204761Y-103252380D01*
X87109523Y-103252380D01*
X88490476Y-103252380D02*
X87919047Y-103252380D01*
X88204761Y-103252380D02*
X88204761Y-102252380D01*
X88109523Y-102395238D01*
X88014285Y-102490476D01*
X87919047Y-102538095D01*
X89347619Y-102585714D02*
X89347619Y-103252380D01*
X89109523Y-102204761D02*
X88871428Y-102919047D01*
X89490476Y-102919047D01*
%TO.C,J12*%
X92290476Y-102152380D02*
X92290476Y-102866666D01*
X92242857Y-103009523D01*
X92147619Y-103104761D01*
X92004761Y-103152380D01*
X91909523Y-103152380D01*
X93290476Y-103152380D02*
X92719047Y-103152380D01*
X93004761Y-103152380D02*
X93004761Y-102152380D01*
X92909523Y-102295238D01*
X92814285Y-102390476D01*
X92719047Y-102438095D01*
X93671428Y-102247619D02*
X93719047Y-102200000D01*
X93814285Y-102152380D01*
X94052380Y-102152380D01*
X94147619Y-102200000D01*
X94195238Y-102247619D01*
X94242857Y-102342857D01*
X94242857Y-102438095D01*
X94195238Y-102580952D01*
X93623809Y-103152380D01*
X94242857Y-103152380D01*
%TO.C,J8*%
X110366666Y-55852380D02*
X110366666Y-56566666D01*
X110319047Y-56709523D01*
X110223809Y-56804761D01*
X110080952Y-56852380D01*
X109985714Y-56852380D01*
X110985714Y-56280952D02*
X110890476Y-56233333D01*
X110842857Y-56185714D01*
X110795238Y-56090476D01*
X110795238Y-56042857D01*
X110842857Y-55947619D01*
X110890476Y-55900000D01*
X110985714Y-55852380D01*
X111176190Y-55852380D01*
X111271428Y-55900000D01*
X111319047Y-55947619D01*
X111366666Y-56042857D01*
X111366666Y-56090476D01*
X111319047Y-56185714D01*
X111271428Y-56233333D01*
X111176190Y-56280952D01*
X110985714Y-56280952D01*
X110890476Y-56328571D01*
X110842857Y-56376190D01*
X110795238Y-56471428D01*
X110795238Y-56661904D01*
X110842857Y-56757142D01*
X110890476Y-56804761D01*
X110985714Y-56852380D01*
X111176190Y-56852380D01*
X111271428Y-56804761D01*
X111319047Y-56757142D01*
X111366666Y-56661904D01*
X111366666Y-56471428D01*
X111319047Y-56376190D01*
X111271428Y-56328571D01*
X111176190Y-56280952D01*
%TD*%
M02*
