M48
; DRILL file {KiCad (5.1.10)-1} date 07/04/24 18:26:12
; FORMAT={-:-/ absolute / metric / decimal}
; #@! TF.CreationDate,2024-07-04T18:26:12+02:00
; #@! TF.GenerationSoftware,Kicad,Pcbnew,(5.1.10)-1
; #@! TF.FileFunction,Plated,1,2,PTH
FMAT,2
METRIC
T1C0.400
T2C0.800
T3C1.000
T4C1.100
T5C1.300
%
G90
G05
T1
X51.4Y-103.5
X51.5Y-50.9
X52.0Y-98.7
X53.305Y-58.1
X53.51Y-49.25
X55.86Y-58.1
X56.104Y-49.25
X56.34Y-52.3
X57.0Y-75.8
X57.1Y-68.1
X57.1Y-83.6
X57.3Y-94.3
X58.8Y-111.0
X58.931Y-52.3
X59.3Y-68.1
X59.3Y-77.0
X59.3Y-83.6
X59.5Y-94.2
X61.0Y-44.9
X61.521Y-52.3
X63.4Y-68.1
X63.4Y-71.0
X63.5Y-109.6
X63.525Y-58.1
X63.6Y-65.9
X64.112Y-52.3
X66.2Y-109.6
X66.479Y-49.25
X66.702Y-52.3
X66.845Y-42.8
X66.845Y-45.4
X68.4Y-94.7
X68.4Y-98.3
X68.4Y-101.5
X68.7Y-89.3
X68.8Y-82.0
X68.8Y-85.1
X68.9Y-109.6
X69.072Y-49.25
X69.2Y-73.9
X69.293Y-52.3
X69.3Y-76.1
X69.69Y-42.8
X69.69Y-45.4
X70.6Y-85.1
X71.19Y-58.1
X71.4Y-73.9
X71.4Y-89.2
X71.5Y-101.5
X71.6Y-93.4
X71.6Y-109.6
X71.666Y-49.25
X71.883Y-52.3
X72.7Y-76.3
X72.7Y-81.9
X73.745Y-58.1
X74.3Y-109.6
X74.474Y-52.3
X74.6Y-88.1
X75.0Y-67.0
X75.2Y-43.1
X76.3Y-58.1
X76.854Y-49.25
X77.064Y-52.3
X77.544Y-67.0
X77.73Y-70.05
X78.6Y-111.3
X79.655Y-52.3
X80.087Y-67.0
X80.274Y-70.05
X80.9Y-105.4
X81.367Y-46.0
X82.041Y-49.25
X82.245Y-52.3
X82.631Y-67.0
X82.817Y-70.05
X83.6Y-105.4
X83.6Y-109.9
X84.133Y-43.4
X84.133Y-46.0
X84.635Y-49.25
X84.835Y-52.3
X85.175Y-67.0
X85.361Y-70.05
X86.9Y-43.4
X86.9Y-46.0
X87.229Y-49.25
X87.426Y-52.3
X87.718Y-67.0
X87.905Y-70.05
X88.6Y-100.7
X90.0Y-92.0
X90.016Y-52.3
X90.262Y-67.0
X90.4Y-97.9
X90.448Y-70.05
X91.7Y-93.3
X92.416Y-49.25
X92.607Y-52.3
X92.805Y-67.0
X92.992Y-70.05
X93.8Y-43.7
X94.2Y-95.0
X94.3Y-100.8
X95.197Y-52.3
X95.349Y-67.0
X95.535Y-70.05
X96.2Y-104.0
X96.7Y-89.6
X97.788Y-49.7
X97.788Y-52.3
X97.893Y-67.0
X98.079Y-70.05
X98.3Y-93.6
X99.7Y-43.2
X99.7Y-45.8
X100.378Y-49.7
X100.378Y-52.3
X100.4Y-101.248
X100.4Y-104.562
X100.436Y-67.0
X100.623Y-70.05
X102.2Y-43.2
X102.2Y-45.8
X102.969Y-49.7
X102.969Y-52.3
X103.166Y-70.05
X103.8Y-109.7
X104.7Y-43.2
X104.7Y-45.8
X105.3Y-85.3
X105.559Y-49.7
X105.559Y-52.3
X106.4Y-66.3
X107.2Y-110.8
X107.38Y-69.58
X107.38Y-72.38
X107.38Y-75.18
X108.0Y-64.7
X108.1Y-66.2
X108.15Y-49.7
X108.15Y-52.3
X109.2Y-85.9
X109.7Y-45.8
X110.43Y-68.77
X110.43Y-71.57
X110.43Y-74.37
X110.43Y-77.17
X110.74Y-52.3
X110.76Y-110.0
X111.1Y-55.5
X111.1Y-57.7
X111.2Y-43.5
X111.715Y-61.785
X111.8Y-38.7
X112.12Y-110.0
X113.48Y-110.0
X114.2Y-38.7
X114.2Y-47.0
X114.84Y-110.0
X115.4Y-49.8
X116.3Y-45.1
X117.0Y-54.7
X118.2Y-49.8
X119.0Y-52.9
X119.1Y-110.3
T2
X96.5Y-94.72
X96.5Y-96.72
X96.5Y-98.72
T3
X53.25Y-61.74
X53.25Y-64.28
X53.25Y-66.82
X53.25Y-69.36
X53.25Y-71.9
X53.25Y-74.44
X53.25Y-76.98
X53.25Y-79.52
X53.25Y-82.06
X53.25Y-84.6
X53.25Y-87.14
X53.25Y-89.68
X53.25Y-92.22
X53.25Y-94.76
X53.25Y-97.3
X53.25Y-99.84
X53.25Y-102.38
X53.25Y-104.92
X53.25Y-107.46
X55.79Y-61.74
X55.79Y-64.28
X55.79Y-66.82
X55.79Y-69.36
X55.79Y-71.9
X55.79Y-74.44
X55.79Y-76.98
X55.79Y-79.52
X55.79Y-82.06
X55.79Y-84.6
X55.79Y-87.14
X55.79Y-89.68
X55.79Y-92.22
X55.79Y-94.76
X55.79Y-97.3
X55.79Y-99.84
X55.79Y-102.38
X55.79Y-104.92
X55.79Y-107.46
X60.87Y-61.74
X60.87Y-64.28
X60.87Y-66.82
X60.87Y-69.36
X60.87Y-71.9
X60.87Y-74.44
X60.87Y-79.52
X60.87Y-82.06
X60.87Y-84.6
X60.87Y-87.14
X60.87Y-89.68
X60.87Y-92.22
X60.87Y-97.3
X60.87Y-99.84
X60.87Y-102.38
X60.87Y-104.92
X60.87Y-107.46
X66.3Y-107.42
X67.0Y-61.74
X68.84Y-107.42
X69.54Y-61.74
X71.38Y-107.42
X72.08Y-61.74
X73.92Y-107.42
X74.62Y-61.74
X76.46Y-107.42
X77.16Y-61.74
X79.0Y-107.42
X79.7Y-61.74
X82.24Y-61.74
X84.78Y-61.74
X84.8Y-93.1
X84.8Y-95.64
X84.8Y-98.18
X84.8Y-100.72
X96.38Y-87.1
X98.92Y-87.1
X101.46Y-87.1
X102.328Y-92.181
X102.328Y-94.721
X102.328Y-97.261
X102.328Y-99.801
X102.328Y-102.341
X102.328Y-104.881
X102.328Y-107.421
X104.0Y-87.1
X109.0Y-92.18
X109.0Y-94.72
X109.0Y-97.26
X109.0Y-99.8
X109.0Y-102.34
X109.0Y-104.88
X109.0Y-107.42
X114.21Y-52.5
X114.21Y-56.62
X114.21Y-61.74
X114.21Y-64.28
X114.21Y-66.82
X114.21Y-69.36
X114.21Y-71.9
X114.21Y-74.44
X114.21Y-76.98
X114.21Y-79.52
X114.21Y-82.06
X114.21Y-84.6
X114.21Y-87.14
X114.21Y-89.68
X114.21Y-92.22
X114.21Y-94.76
X114.21Y-97.3
X114.21Y-99.84
X114.21Y-102.38
X114.21Y-104.92
X114.21Y-107.46
X116.75Y-52.5
X116.75Y-56.62
X116.75Y-61.74
X116.75Y-64.28
X116.75Y-66.82
X116.75Y-69.36
X116.75Y-71.9
X116.75Y-74.44
X116.75Y-76.98
X116.75Y-79.52
X116.75Y-82.06
X116.75Y-84.6
X116.75Y-87.14
X116.75Y-89.68
X116.75Y-92.22
X116.75Y-94.76
X116.75Y-97.3
X116.75Y-99.84
X116.75Y-102.38
X116.75Y-104.92
X116.75Y-107.46
T4
X85.0Y-107.46
X87.54Y-107.46
X94.0Y-107.46
X96.54Y-107.46
T5
X57.75Y-34.5
X57.75Y-47.0
X62.75Y-34.5
X62.75Y-47.0
X74.25Y-34.5
X74.25Y-47.0
X79.25Y-34.5
X79.25Y-47.0
X90.75Y-34.5
X90.75Y-47.0
X95.75Y-34.5
X95.75Y-47.0
X107.25Y-34.5
X107.25Y-47.0
X112.25Y-34.5
X112.25Y-47.0
T0
M30
