%TF.GenerationSoftware,KiCad,Pcbnew,(5.1.10)-1*%
%TF.CreationDate,2024-07-04T18:25:41+02:00*%
%TF.ProjectId,ApiaryWaterDispensingSystem,41706961-7279-4576-9174-657244697370,rev?*%
%TF.SameCoordinates,Original*%
%TF.FileFunction,Paste,Bot*%
%TF.FilePolarity,Positive*%
%FSLAX46Y46*%
G04 Gerber Fmt 4.6, Leading zero omitted, Abs format (unit mm)*
G04 Created by KiCad (PCBNEW (5.1.10)-1) date 2024-07-04 18:25:41*
%MOMM*%
%LPD*%
G01*
G04 APERTURE LIST*
G04 APERTURE END LIST*
%TO.C,C12*%
G36*
G01*
X67584000Y-57161000D02*
X67584000Y-58111000D01*
G75*
G02*
X67334000Y-58361000I-250000J0D01*
G01*
X66834000Y-58361000D01*
G75*
G02*
X66584000Y-58111000I0J250000D01*
G01*
X66584000Y-57161000D01*
G75*
G02*
X66834000Y-56911000I250000J0D01*
G01*
X67334000Y-56911000D01*
G75*
G02*
X67584000Y-57161000I0J-250000D01*
G01*
G37*
G36*
G01*
X69484000Y-57161000D02*
X69484000Y-58111000D01*
G75*
G02*
X69234000Y-58361000I-250000J0D01*
G01*
X68734000Y-58361000D01*
G75*
G02*
X68484000Y-58111000I0J250000D01*
G01*
X68484000Y-57161000D01*
G75*
G02*
X68734000Y-56911000I250000J0D01*
G01*
X69234000Y-56911000D01*
G75*
G02*
X69484000Y-57161000I0J-250000D01*
G01*
G37*
%TD*%
%TO.C,C11*%
G36*
G01*
X97948000Y-82495000D02*
X97948000Y-81545000D01*
G75*
G02*
X98198000Y-81295000I250000J0D01*
G01*
X98698000Y-81295000D01*
G75*
G02*
X98948000Y-81545000I0J-250000D01*
G01*
X98948000Y-82495000D01*
G75*
G02*
X98698000Y-82745000I-250000J0D01*
G01*
X98198000Y-82745000D01*
G75*
G02*
X97948000Y-82495000I0J250000D01*
G01*
G37*
G36*
G01*
X96048000Y-82495000D02*
X96048000Y-81545000D01*
G75*
G02*
X96298000Y-81295000I250000J0D01*
G01*
X96798000Y-81295000D01*
G75*
G02*
X97048000Y-81545000I0J-250000D01*
G01*
X97048000Y-82495000D01*
G75*
G02*
X96798000Y-82745000I-250000J0D01*
G01*
X96298000Y-82745000D01*
G75*
G02*
X96048000Y-82495000I0J250000D01*
G01*
G37*
%TD*%
%TO.C,C10*%
G36*
G01*
X80005000Y-94350000D02*
X80955000Y-94350000D01*
G75*
G02*
X81205000Y-94600000I0J-250000D01*
G01*
X81205000Y-95100000D01*
G75*
G02*
X80955000Y-95350000I-250000J0D01*
G01*
X80005000Y-95350000D01*
G75*
G02*
X79755000Y-95100000I0J250000D01*
G01*
X79755000Y-94600000D01*
G75*
G02*
X80005000Y-94350000I250000J0D01*
G01*
G37*
G36*
G01*
X80005000Y-92450000D02*
X80955000Y-92450000D01*
G75*
G02*
X81205000Y-92700000I0J-250000D01*
G01*
X81205000Y-93200000D01*
G75*
G02*
X80955000Y-93450000I-250000J0D01*
G01*
X80005000Y-93450000D01*
G75*
G02*
X79755000Y-93200000I0J250000D01*
G01*
X79755000Y-92700000D01*
G75*
G02*
X80005000Y-92450000I250000J0D01*
G01*
G37*
%TD*%
%TO.C,C9*%
G36*
G01*
X65715000Y-72680000D02*
X64765000Y-72680000D01*
G75*
G02*
X64515000Y-72430000I0J250000D01*
G01*
X64515000Y-71930000D01*
G75*
G02*
X64765000Y-71680000I250000J0D01*
G01*
X65715000Y-71680000D01*
G75*
G02*
X65965000Y-71930000I0J-250000D01*
G01*
X65965000Y-72430000D01*
G75*
G02*
X65715000Y-72680000I-250000J0D01*
G01*
G37*
G36*
G01*
X65715000Y-74580000D02*
X64765000Y-74580000D01*
G75*
G02*
X64515000Y-74330000I0J250000D01*
G01*
X64515000Y-73830000D01*
G75*
G02*
X64765000Y-73580000I250000J0D01*
G01*
X65715000Y-73580000D01*
G75*
G02*
X65965000Y-73830000I0J-250000D01*
G01*
X65965000Y-74330000D01*
G75*
G02*
X65715000Y-74580000I-250000J0D01*
G01*
G37*
%TD*%
%TO.C,C8*%
G36*
G01*
X65825000Y-103250000D02*
X66775000Y-103250000D01*
G75*
G02*
X67025000Y-103500000I0J-250000D01*
G01*
X67025000Y-104000000D01*
G75*
G02*
X66775000Y-104250000I-250000J0D01*
G01*
X65825000Y-104250000D01*
G75*
G02*
X65575000Y-104000000I0J250000D01*
G01*
X65575000Y-103500000D01*
G75*
G02*
X65825000Y-103250000I250000J0D01*
G01*
G37*
G36*
G01*
X65825000Y-101350000D02*
X66775000Y-101350000D01*
G75*
G02*
X67025000Y-101600000I0J-250000D01*
G01*
X67025000Y-102100000D01*
G75*
G02*
X66775000Y-102350000I-250000J0D01*
G01*
X65825000Y-102350000D01*
G75*
G02*
X65575000Y-102100000I0J250000D01*
G01*
X65575000Y-101600000D01*
G75*
G02*
X65825000Y-101350000I250000J0D01*
G01*
G37*
%TD*%
%TO.C,C7*%
G36*
G01*
X65969000Y-90206000D02*
X65019000Y-90206000D01*
G75*
G02*
X64769000Y-89956000I0J250000D01*
G01*
X64769000Y-89456000D01*
G75*
G02*
X65019000Y-89206000I250000J0D01*
G01*
X65969000Y-89206000D01*
G75*
G02*
X66219000Y-89456000I0J-250000D01*
G01*
X66219000Y-89956000D01*
G75*
G02*
X65969000Y-90206000I-250000J0D01*
G01*
G37*
G36*
G01*
X65969000Y-92106000D02*
X65019000Y-92106000D01*
G75*
G02*
X64769000Y-91856000I0J250000D01*
G01*
X64769000Y-91356000D01*
G75*
G02*
X65019000Y-91106000I250000J0D01*
G01*
X65969000Y-91106000D01*
G75*
G02*
X66219000Y-91356000I0J-250000D01*
G01*
X66219000Y-91856000D01*
G75*
G02*
X65969000Y-92106000I-250000J0D01*
G01*
G37*
%TD*%
%TO.C,C6*%
G36*
G01*
X77550000Y-103025000D02*
X77550000Y-103975000D01*
G75*
G02*
X77300000Y-104225000I-250000J0D01*
G01*
X76800000Y-104225000D01*
G75*
G02*
X76550000Y-103975000I0J250000D01*
G01*
X76550000Y-103025000D01*
G75*
G02*
X76800000Y-102775000I250000J0D01*
G01*
X77300000Y-102775000D01*
G75*
G02*
X77550000Y-103025000I0J-250000D01*
G01*
G37*
G36*
G01*
X79450000Y-103025000D02*
X79450000Y-103975000D01*
G75*
G02*
X79200000Y-104225000I-250000J0D01*
G01*
X78700000Y-104225000D01*
G75*
G02*
X78450000Y-103975000I0J250000D01*
G01*
X78450000Y-103025000D01*
G75*
G02*
X78700000Y-102775000I250000J0D01*
G01*
X79200000Y-102775000D01*
G75*
G02*
X79450000Y-103025000I0J-250000D01*
G01*
G37*
%TD*%
%TO.C,C5*%
G36*
G01*
X105593000Y-105634000D02*
X104643000Y-105634000D01*
G75*
G02*
X104393000Y-105384000I0J250000D01*
G01*
X104393000Y-104884000D01*
G75*
G02*
X104643000Y-104634000I250000J0D01*
G01*
X105593000Y-104634000D01*
G75*
G02*
X105843000Y-104884000I0J-250000D01*
G01*
X105843000Y-105384000D01*
G75*
G02*
X105593000Y-105634000I-250000J0D01*
G01*
G37*
G36*
G01*
X105593000Y-107534000D02*
X104643000Y-107534000D01*
G75*
G02*
X104393000Y-107284000I0J250000D01*
G01*
X104393000Y-106784000D01*
G75*
G02*
X104643000Y-106534000I250000J0D01*
G01*
X105593000Y-106534000D01*
G75*
G02*
X105843000Y-106784000I0J-250000D01*
G01*
X105843000Y-107284000D01*
G75*
G02*
X105593000Y-107534000I-250000J0D01*
G01*
G37*
%TD*%
%TO.C,R10*%
G36*
G01*
X63825001Y-41137500D02*
X62924999Y-41137500D01*
G75*
G02*
X62675000Y-40887501I0J249999D01*
G01*
X62675000Y-40362499D01*
G75*
G02*
X62924999Y-40112500I249999J0D01*
G01*
X63825001Y-40112500D01*
G75*
G02*
X64075000Y-40362499I0J-249999D01*
G01*
X64075000Y-40887501D01*
G75*
G02*
X63825001Y-41137500I-249999J0D01*
G01*
G37*
G36*
G01*
X63825001Y-42962500D02*
X62924999Y-42962500D01*
G75*
G02*
X62675000Y-42712501I0J249999D01*
G01*
X62675000Y-42187499D01*
G75*
G02*
X62924999Y-41937500I249999J0D01*
G01*
X63825001Y-41937500D01*
G75*
G02*
X64075000Y-42187499I0J-249999D01*
G01*
X64075000Y-42712501D01*
G75*
G02*
X63825001Y-42962500I-249999J0D01*
G01*
G37*
%TD*%
%TO.C,R9*%
G36*
G01*
X60700001Y-41137500D02*
X59799999Y-41137500D01*
G75*
G02*
X59550000Y-40887501I0J249999D01*
G01*
X59550000Y-40362499D01*
G75*
G02*
X59799999Y-40112500I249999J0D01*
G01*
X60700001Y-40112500D01*
G75*
G02*
X60950000Y-40362499I0J-249999D01*
G01*
X60950000Y-40887501D01*
G75*
G02*
X60700001Y-41137500I-249999J0D01*
G01*
G37*
G36*
G01*
X60700001Y-42962500D02*
X59799999Y-42962500D01*
G75*
G02*
X59550000Y-42712501I0J249999D01*
G01*
X59550000Y-42187499D01*
G75*
G02*
X59799999Y-41937500I249999J0D01*
G01*
X60700001Y-41937500D01*
G75*
G02*
X60950000Y-42187499I0J-249999D01*
G01*
X60950000Y-42712501D01*
G75*
G02*
X60700001Y-42962500I-249999J0D01*
G01*
G37*
%TD*%
%TO.C,R8*%
G36*
G01*
X80325001Y-41137500D02*
X79424999Y-41137500D01*
G75*
G02*
X79175000Y-40887501I0J249999D01*
G01*
X79175000Y-40362499D01*
G75*
G02*
X79424999Y-40112500I249999J0D01*
G01*
X80325001Y-40112500D01*
G75*
G02*
X80575000Y-40362499I0J-249999D01*
G01*
X80575000Y-40887501D01*
G75*
G02*
X80325001Y-41137500I-249999J0D01*
G01*
G37*
G36*
G01*
X80325001Y-42962500D02*
X79424999Y-42962500D01*
G75*
G02*
X79175000Y-42712501I0J249999D01*
G01*
X79175000Y-42187499D01*
G75*
G02*
X79424999Y-41937500I249999J0D01*
G01*
X80325001Y-41937500D01*
G75*
G02*
X80575000Y-42187499I0J-249999D01*
G01*
X80575000Y-42712501D01*
G75*
G02*
X80325001Y-42962500I-249999J0D01*
G01*
G37*
%TD*%
%TO.C,R7*%
G36*
G01*
X77200001Y-41137500D02*
X76299999Y-41137500D01*
G75*
G02*
X76050000Y-40887501I0J249999D01*
G01*
X76050000Y-40362499D01*
G75*
G02*
X76299999Y-40112500I249999J0D01*
G01*
X77200001Y-40112500D01*
G75*
G02*
X77450000Y-40362499I0J-249999D01*
G01*
X77450000Y-40887501D01*
G75*
G02*
X77200001Y-41137500I-249999J0D01*
G01*
G37*
G36*
G01*
X77200001Y-42962500D02*
X76299999Y-42962500D01*
G75*
G02*
X76050000Y-42712501I0J249999D01*
G01*
X76050000Y-42187499D01*
G75*
G02*
X76299999Y-41937500I249999J0D01*
G01*
X77200001Y-41937500D01*
G75*
G02*
X77450000Y-42187499I0J-249999D01*
G01*
X77450000Y-42712501D01*
G75*
G02*
X77200001Y-42962500I-249999J0D01*
G01*
G37*
%TD*%
%TO.C,R6*%
G36*
G01*
X96825001Y-41137500D02*
X95924999Y-41137500D01*
G75*
G02*
X95675000Y-40887501I0J249999D01*
G01*
X95675000Y-40362499D01*
G75*
G02*
X95924999Y-40112500I249999J0D01*
G01*
X96825001Y-40112500D01*
G75*
G02*
X97075000Y-40362499I0J-249999D01*
G01*
X97075000Y-40887501D01*
G75*
G02*
X96825001Y-41137500I-249999J0D01*
G01*
G37*
G36*
G01*
X96825001Y-42962500D02*
X95924999Y-42962500D01*
G75*
G02*
X95675000Y-42712501I0J249999D01*
G01*
X95675000Y-42187499D01*
G75*
G02*
X95924999Y-41937500I249999J0D01*
G01*
X96825001Y-41937500D01*
G75*
G02*
X97075000Y-42187499I0J-249999D01*
G01*
X97075000Y-42712501D01*
G75*
G02*
X96825001Y-42962500I-249999J0D01*
G01*
G37*
%TD*%
%TO.C,R5*%
G36*
G01*
X93700001Y-41137500D02*
X92799999Y-41137500D01*
G75*
G02*
X92550000Y-40887501I0J249999D01*
G01*
X92550000Y-40362499D01*
G75*
G02*
X92799999Y-40112500I249999J0D01*
G01*
X93700001Y-40112500D01*
G75*
G02*
X93950000Y-40362499I0J-249999D01*
G01*
X93950000Y-40887501D01*
G75*
G02*
X93700001Y-41137500I-249999J0D01*
G01*
G37*
G36*
G01*
X93700001Y-42962500D02*
X92799999Y-42962500D01*
G75*
G02*
X92550000Y-42712501I0J249999D01*
G01*
X92550000Y-42187499D01*
G75*
G02*
X92799999Y-41937500I249999J0D01*
G01*
X93700001Y-41937500D01*
G75*
G02*
X93950000Y-42187499I0J-249999D01*
G01*
X93950000Y-42712501D01*
G75*
G02*
X93700001Y-42962500I-249999J0D01*
G01*
G37*
%TD*%
%TO.C,R4*%
G36*
G01*
X113325001Y-41137500D02*
X112424999Y-41137500D01*
G75*
G02*
X112175000Y-40887501I0J249999D01*
G01*
X112175000Y-40362499D01*
G75*
G02*
X112424999Y-40112500I249999J0D01*
G01*
X113325001Y-40112500D01*
G75*
G02*
X113575000Y-40362499I0J-249999D01*
G01*
X113575000Y-40887501D01*
G75*
G02*
X113325001Y-41137500I-249999J0D01*
G01*
G37*
G36*
G01*
X113325001Y-42962500D02*
X112424999Y-42962500D01*
G75*
G02*
X112175000Y-42712501I0J249999D01*
G01*
X112175000Y-42187499D01*
G75*
G02*
X112424999Y-41937500I249999J0D01*
G01*
X113325001Y-41937500D01*
G75*
G02*
X113575000Y-42187499I0J-249999D01*
G01*
X113575000Y-42712501D01*
G75*
G02*
X113325001Y-42962500I-249999J0D01*
G01*
G37*
%TD*%
%TO.C,R3*%
G36*
G01*
X106139999Y-61187500D02*
X107040001Y-61187500D01*
G75*
G02*
X107290000Y-61437499I0J-249999D01*
G01*
X107290000Y-61962501D01*
G75*
G02*
X107040001Y-62212500I-249999J0D01*
G01*
X106139999Y-62212500D01*
G75*
G02*
X105890000Y-61962501I0J249999D01*
G01*
X105890000Y-61437499D01*
G75*
G02*
X106139999Y-61187500I249999J0D01*
G01*
G37*
G36*
G01*
X106139999Y-59362500D02*
X107040001Y-59362500D01*
G75*
G02*
X107290000Y-59612499I0J-249999D01*
G01*
X107290000Y-60137501D01*
G75*
G02*
X107040001Y-60387500I-249999J0D01*
G01*
X106139999Y-60387500D01*
G75*
G02*
X105890000Y-60137501I0J249999D01*
G01*
X105890000Y-59612499D01*
G75*
G02*
X106139999Y-59362500I249999J0D01*
G01*
G37*
%TD*%
%TO.C,R2*%
G36*
G01*
X110200001Y-41137500D02*
X109299999Y-41137500D01*
G75*
G02*
X109050000Y-40887501I0J249999D01*
G01*
X109050000Y-40362499D01*
G75*
G02*
X109299999Y-40112500I249999J0D01*
G01*
X110200001Y-40112500D01*
G75*
G02*
X110450000Y-40362499I0J-249999D01*
G01*
X110450000Y-40887501D01*
G75*
G02*
X110200001Y-41137500I-249999J0D01*
G01*
G37*
G36*
G01*
X110200001Y-42962500D02*
X109299999Y-42962500D01*
G75*
G02*
X109050000Y-42712501I0J249999D01*
G01*
X109050000Y-42187499D01*
G75*
G02*
X109299999Y-41937500I249999J0D01*
G01*
X110200001Y-41937500D01*
G75*
G02*
X110450000Y-42187499I0J-249999D01*
G01*
X110450000Y-42712501D01*
G75*
G02*
X110200001Y-42962500I-249999J0D01*
G01*
G37*
%TD*%
%TO.C,R1*%
G36*
G01*
X108679999Y-61187500D02*
X109580001Y-61187500D01*
G75*
G02*
X109830000Y-61437499I0J-249999D01*
G01*
X109830000Y-61962501D01*
G75*
G02*
X109580001Y-62212500I-249999J0D01*
G01*
X108679999Y-62212500D01*
G75*
G02*
X108430000Y-61962501I0J249999D01*
G01*
X108430000Y-61437499D01*
G75*
G02*
X108679999Y-61187500I249999J0D01*
G01*
G37*
G36*
G01*
X108679999Y-59362500D02*
X109580001Y-59362500D01*
G75*
G02*
X109830000Y-59612499I0J-249999D01*
G01*
X109830000Y-60137501D01*
G75*
G02*
X109580001Y-60387500I-249999J0D01*
G01*
X108679999Y-60387500D01*
G75*
G02*
X108430000Y-60137501I0J249999D01*
G01*
X108430000Y-59612499D01*
G75*
G02*
X108679999Y-59362500I249999J0D01*
G01*
G37*
%TD*%
%TO.C,C4*%
G36*
G01*
X56650000Y-41950000D02*
X57600000Y-41950000D01*
G75*
G02*
X57850000Y-42200000I0J-250000D01*
G01*
X57850000Y-42700000D01*
G75*
G02*
X57600000Y-42950000I-250000J0D01*
G01*
X56650000Y-42950000D01*
G75*
G02*
X56400000Y-42700000I0J250000D01*
G01*
X56400000Y-42200000D01*
G75*
G02*
X56650000Y-41950000I250000J0D01*
G01*
G37*
G36*
G01*
X56650000Y-40050000D02*
X57600000Y-40050000D01*
G75*
G02*
X57850000Y-40300000I0J-250000D01*
G01*
X57850000Y-40800000D01*
G75*
G02*
X57600000Y-41050000I-250000J0D01*
G01*
X56650000Y-41050000D01*
G75*
G02*
X56400000Y-40800000I0J250000D01*
G01*
X56400000Y-40300000D01*
G75*
G02*
X56650000Y-40050000I250000J0D01*
G01*
G37*
%TD*%
%TO.C,C3*%
G36*
G01*
X73150000Y-41950000D02*
X74100000Y-41950000D01*
G75*
G02*
X74350000Y-42200000I0J-250000D01*
G01*
X74350000Y-42700000D01*
G75*
G02*
X74100000Y-42950000I-250000J0D01*
G01*
X73150000Y-42950000D01*
G75*
G02*
X72900000Y-42700000I0J250000D01*
G01*
X72900000Y-42200000D01*
G75*
G02*
X73150000Y-41950000I250000J0D01*
G01*
G37*
G36*
G01*
X73150000Y-40050000D02*
X74100000Y-40050000D01*
G75*
G02*
X74350000Y-40300000I0J-250000D01*
G01*
X74350000Y-40800000D01*
G75*
G02*
X74100000Y-41050000I-250000J0D01*
G01*
X73150000Y-41050000D01*
G75*
G02*
X72900000Y-40800000I0J250000D01*
G01*
X72900000Y-40300000D01*
G75*
G02*
X73150000Y-40050000I250000J0D01*
G01*
G37*
%TD*%
%TO.C,C2*%
G36*
G01*
X89650000Y-41950000D02*
X90600000Y-41950000D01*
G75*
G02*
X90850000Y-42200000I0J-250000D01*
G01*
X90850000Y-42700000D01*
G75*
G02*
X90600000Y-42950000I-250000J0D01*
G01*
X89650000Y-42950000D01*
G75*
G02*
X89400000Y-42700000I0J250000D01*
G01*
X89400000Y-42200000D01*
G75*
G02*
X89650000Y-41950000I250000J0D01*
G01*
G37*
G36*
G01*
X89650000Y-40050000D02*
X90600000Y-40050000D01*
G75*
G02*
X90850000Y-40300000I0J-250000D01*
G01*
X90850000Y-40800000D01*
G75*
G02*
X90600000Y-41050000I-250000J0D01*
G01*
X89650000Y-41050000D01*
G75*
G02*
X89400000Y-40800000I0J250000D01*
G01*
X89400000Y-40300000D01*
G75*
G02*
X89650000Y-40050000I250000J0D01*
G01*
G37*
%TD*%
%TO.C,C1*%
G36*
G01*
X106150000Y-41950000D02*
X107100000Y-41950000D01*
G75*
G02*
X107350000Y-42200000I0J-250000D01*
G01*
X107350000Y-42700000D01*
G75*
G02*
X107100000Y-42950000I-250000J0D01*
G01*
X106150000Y-42950000D01*
G75*
G02*
X105900000Y-42700000I0J250000D01*
G01*
X105900000Y-42200000D01*
G75*
G02*
X106150000Y-41950000I250000J0D01*
G01*
G37*
G36*
G01*
X106150000Y-40050000D02*
X107100000Y-40050000D01*
G75*
G02*
X107350000Y-40300000I0J-250000D01*
G01*
X107350000Y-40800000D01*
G75*
G02*
X107100000Y-41050000I-250000J0D01*
G01*
X106150000Y-41050000D01*
G75*
G02*
X105900000Y-40800000I0J250000D01*
G01*
X105900000Y-40300000D01*
G75*
G02*
X106150000Y-40050000I250000J0D01*
G01*
G37*
%TD*%
M02*
