%TF.GenerationSoftware,KiCad,Pcbnew,(5.1.10)-1*%
%TF.CreationDate,2024-07-04T18:25:42+02:00*%
%TF.ProjectId,ApiaryWaterDispensingSystem,41706961-7279-4576-9174-657244697370,rev?*%
%TF.SameCoordinates,Original*%
%TF.FileFunction,Soldermask,Top*%
%TF.FilePolarity,Negative*%
%FSLAX46Y46*%
G04 Gerber Fmt 4.6, Leading zero omitted, Abs format (unit mm)*
G04 Created by KiCad (PCBNEW (5.1.10)-1) date 2024-07-04 18:25:42*
%MOMM*%
%LPD*%
G01*
G04 APERTURE LIST*
%ADD10O,1.700000X1.700000*%
%ADD11R,1.700000X1.700000*%
%ADD12O,1.350000X1.350000*%
%ADD13R,1.350000X1.350000*%
%ADD14O,1.850000X3.048000*%
%ADD15C,2.100000*%
%ADD16R,2.100000X2.100000*%
G04 APERTURE END LIST*
D10*
%TO.C,J4*%
X104000000Y-87100000D03*
X101460000Y-87100000D03*
X98920000Y-87100000D03*
D11*
X96380000Y-87100000D03*
%TD*%
D10*
%TO.C,J9*%
X102328280Y-94720860D03*
X102328280Y-99800860D03*
X102328280Y-97260860D03*
X102328280Y-92180860D03*
D11*
X102328280Y-107420860D03*
D10*
X102328280Y-102340860D03*
X102328280Y-104880860D03*
X109000000Y-92180000D03*
X109000000Y-94720000D03*
X109000000Y-97260000D03*
X109000000Y-99800000D03*
X109000000Y-102340000D03*
X109000000Y-104880000D03*
D11*
X109000000Y-107420000D03*
%TD*%
D10*
%TO.C,J15*%
X67000000Y-61740000D03*
X69540000Y-61740000D03*
X72080000Y-61740000D03*
X74620000Y-61740000D03*
X77160000Y-61740000D03*
X79700000Y-61740000D03*
X82240000Y-61740000D03*
D11*
X84780000Y-61740000D03*
%TD*%
D10*
%TO.C,J7*%
X55790000Y-107460000D03*
X53250000Y-107460000D03*
X55790000Y-104920000D03*
X53250000Y-104920000D03*
X55790000Y-102380000D03*
X53250000Y-102380000D03*
X55790000Y-99840000D03*
X53250000Y-99840000D03*
X55790000Y-97300000D03*
X53250000Y-97300000D03*
X55790000Y-94760000D03*
X53250000Y-94760000D03*
X55790000Y-92220000D03*
X53250000Y-92220000D03*
X55790000Y-89680000D03*
X53250000Y-89680000D03*
X55790000Y-87140000D03*
X53250000Y-87140000D03*
X55790000Y-84600000D03*
X53250000Y-84600000D03*
X55790000Y-82060000D03*
X53250000Y-82060000D03*
X55790000Y-79520000D03*
X53250000Y-79520000D03*
X55790000Y-76980000D03*
X53250000Y-76980000D03*
X55790000Y-74440000D03*
X53250000Y-74440000D03*
X55790000Y-71900000D03*
X53250000Y-71900000D03*
X55790000Y-69360000D03*
X53250000Y-69360000D03*
X55790000Y-66820000D03*
X53250000Y-66820000D03*
X55790000Y-64280000D03*
X53250000Y-64280000D03*
X55790000Y-61740000D03*
D11*
X53250000Y-61740000D03*
%TD*%
D10*
%TO.C,J1*%
X66300000Y-107420000D03*
X68840000Y-107420000D03*
X71380000Y-107420000D03*
X73920000Y-107420000D03*
X76460000Y-107420000D03*
D11*
X79000000Y-107420000D03*
%TD*%
D12*
%TO.C,J13*%
X96500000Y-98720000D03*
X96500000Y-96720000D03*
D13*
X96500000Y-94720000D03*
%TD*%
D10*
%TO.C,J3*%
X84800000Y-100720000D03*
X84800000Y-98180000D03*
X84800000Y-95640000D03*
D11*
X84800000Y-93100000D03*
%TD*%
D10*
%TO.C,J2*%
X60870000Y-97300000D03*
X60870000Y-99840000D03*
X60870000Y-102380000D03*
X60870000Y-104920000D03*
D11*
X60870000Y-107460000D03*
%TD*%
D10*
%TO.C,J6*%
X60870000Y-79520000D03*
X60870000Y-82060000D03*
X60870000Y-84600000D03*
X60870000Y-87140000D03*
X60870000Y-89680000D03*
D11*
X60870000Y-92220000D03*
%TD*%
D10*
%TO.C,J5*%
X60870000Y-61740000D03*
X60870000Y-64280000D03*
X60870000Y-66820000D03*
X60870000Y-69360000D03*
X60870000Y-71900000D03*
D11*
X60870000Y-74440000D03*
%TD*%
D10*
%TO.C,J10*%
X116750000Y-107460000D03*
X114210000Y-107460000D03*
X116750000Y-104920000D03*
X114210000Y-104920000D03*
X116750000Y-102380000D03*
X114210000Y-102380000D03*
X116750000Y-99840000D03*
X114210000Y-99840000D03*
X116750000Y-97300000D03*
X114210000Y-97300000D03*
X116750000Y-94760000D03*
X114210000Y-94760000D03*
X116750000Y-92220000D03*
X114210000Y-92220000D03*
X116750000Y-89680000D03*
X114210000Y-89680000D03*
X116750000Y-87140000D03*
X114210000Y-87140000D03*
X116750000Y-84600000D03*
X114210000Y-84600000D03*
X116750000Y-82060000D03*
X114210000Y-82060000D03*
X116750000Y-79520000D03*
X114210000Y-79520000D03*
X116750000Y-76980000D03*
X114210000Y-76980000D03*
X116750000Y-74440000D03*
X114210000Y-74440000D03*
X116750000Y-71900000D03*
X114210000Y-71900000D03*
X116750000Y-69360000D03*
X114210000Y-69360000D03*
X116750000Y-66820000D03*
X114210000Y-66820000D03*
X116750000Y-64280000D03*
X114210000Y-64280000D03*
X116750000Y-61740000D03*
D11*
X114210000Y-61740000D03*
%TD*%
D14*
%TO.C,SW4*%
X62750000Y-47000000D03*
X57750000Y-47000000D03*
X62750000Y-34500000D03*
X57750000Y-34500000D03*
%TD*%
%TO.C,SW3*%
X79250000Y-47000000D03*
X74250000Y-47000000D03*
X79250000Y-34500000D03*
X74250000Y-34500000D03*
%TD*%
%TO.C,SW2*%
X95750000Y-47000000D03*
X90750000Y-47000000D03*
X95750000Y-34500000D03*
X90750000Y-34500000D03*
%TD*%
%TO.C,SW1*%
X112250000Y-47000000D03*
X107250000Y-47000000D03*
X112250000Y-34500000D03*
X107250000Y-34500000D03*
%TD*%
D10*
%TO.C,J16*%
X114210000Y-52500000D03*
D11*
X116750000Y-52500000D03*
%TD*%
D15*
%TO.C,J14*%
X87540000Y-107460000D03*
D16*
X85000000Y-107460000D03*
%TD*%
D15*
%TO.C,J12*%
X96540000Y-107460000D03*
D16*
X94000000Y-107460000D03*
%TD*%
D10*
%TO.C,J8*%
X114210000Y-56620000D03*
D11*
X116750000Y-56620000D03*
%TD*%
M02*
