%TF.GenerationSoftware,KiCad,Pcbnew,(5.1.10)-1*%
%TF.CreationDate,2024-07-04T18:25:42+02:00*%
%TF.ProjectId,ApiaryWaterDispensingSystem,41706961-7279-4576-9174-657244697370,rev?*%
%TF.SameCoordinates,Original*%
%TF.FileFunction,Legend,Bot*%
%TF.FilePolarity,Positive*%
%FSLAX46Y46*%
G04 Gerber Fmt 4.6, Leading zero omitted, Abs format (unit mm)*
G04 Created by KiCad (PCBNEW (5.1.10)-1) date 2024-07-04 18:25:42*
%MOMM*%
%LPD*%
G01*
G04 APERTURE LIST*
%ADD10C,0.120000*%
%ADD11C,0.150000*%
G04 APERTURE END LIST*
D10*
%TO.C,J7*%
X57120000Y-60410000D02*
X54520000Y-60410000D01*
X57120000Y-60410000D02*
X57120000Y-108790000D01*
X57120000Y-108790000D02*
X51920000Y-108790000D01*
X51920000Y-63010000D02*
X51920000Y-108790000D01*
X54520000Y-63010000D02*
X51920000Y-63010000D01*
X54520000Y-60410000D02*
X54520000Y-63010000D01*
X51920000Y-60410000D02*
X51920000Y-61740000D01*
X53250000Y-60410000D02*
X51920000Y-60410000D01*
%TO.C,C12*%
X68295252Y-58371000D02*
X67772748Y-58371000D01*
X68295252Y-56901000D02*
X67772748Y-56901000D01*
%TO.C,C11*%
X97236748Y-81285000D02*
X97759252Y-81285000D01*
X97236748Y-82755000D02*
X97759252Y-82755000D01*
%TO.C,C10*%
X81215000Y-93638748D02*
X81215000Y-94161252D01*
X79745000Y-93638748D02*
X79745000Y-94161252D01*
%TO.C,C9*%
X64505000Y-73391252D02*
X64505000Y-72868748D01*
X65975000Y-73391252D02*
X65975000Y-72868748D01*
%TO.C,C8*%
X67035000Y-102538748D02*
X67035000Y-103061252D01*
X65565000Y-102538748D02*
X65565000Y-103061252D01*
%TO.C,C7*%
X64759000Y-90917252D02*
X64759000Y-90394748D01*
X66229000Y-90917252D02*
X66229000Y-90394748D01*
%TO.C,C6*%
X78261252Y-104235000D02*
X77738748Y-104235000D01*
X78261252Y-102765000D02*
X77738748Y-102765000D01*
%TO.C,C5*%
X104383000Y-106345252D02*
X104383000Y-105822748D01*
X105853000Y-106345252D02*
X105853000Y-105822748D01*
%TO.C,J10*%
X118080000Y-60410000D02*
X115480000Y-60410000D01*
X118080000Y-60410000D02*
X118080000Y-108790000D01*
X118080000Y-108790000D02*
X112880000Y-108790000D01*
X112880000Y-63010000D02*
X112880000Y-108790000D01*
X115480000Y-63010000D02*
X112880000Y-63010000D01*
X115480000Y-60410000D02*
X115480000Y-63010000D01*
X112880000Y-60410000D02*
X112880000Y-61740000D01*
X114210000Y-60410000D02*
X112880000Y-60410000D01*
%TO.C,R10*%
X62640000Y-41764564D02*
X62640000Y-41310436D01*
X64110000Y-41764564D02*
X64110000Y-41310436D01*
%TO.C,R9*%
X59515000Y-41764564D02*
X59515000Y-41310436D01*
X60985000Y-41764564D02*
X60985000Y-41310436D01*
%TO.C,R8*%
X79140000Y-41764564D02*
X79140000Y-41310436D01*
X80610000Y-41764564D02*
X80610000Y-41310436D01*
%TO.C,R7*%
X76015000Y-41764564D02*
X76015000Y-41310436D01*
X77485000Y-41764564D02*
X77485000Y-41310436D01*
%TO.C,R6*%
X95640000Y-41764564D02*
X95640000Y-41310436D01*
X97110000Y-41764564D02*
X97110000Y-41310436D01*
%TO.C,R5*%
X92515000Y-41764564D02*
X92515000Y-41310436D01*
X93985000Y-41764564D02*
X93985000Y-41310436D01*
%TO.C,R4*%
X112140000Y-41764564D02*
X112140000Y-41310436D01*
X113610000Y-41764564D02*
X113610000Y-41310436D01*
%TO.C,R3*%
X107325000Y-60560436D02*
X107325000Y-61014564D01*
X105855000Y-60560436D02*
X105855000Y-61014564D01*
%TO.C,R2*%
X109015000Y-41764564D02*
X109015000Y-41310436D01*
X110485000Y-41764564D02*
X110485000Y-41310436D01*
%TO.C,R1*%
X109865000Y-60560436D02*
X109865000Y-61014564D01*
X108395000Y-60560436D02*
X108395000Y-61014564D01*
%TO.C,C4*%
X57860000Y-41238748D02*
X57860000Y-41761252D01*
X56390000Y-41238748D02*
X56390000Y-41761252D01*
%TO.C,C3*%
X74360000Y-41238748D02*
X74360000Y-41761252D01*
X72890000Y-41238748D02*
X72890000Y-41761252D01*
%TO.C,C2*%
X90860000Y-41238748D02*
X90860000Y-41761252D01*
X89390000Y-41238748D02*
X89390000Y-41761252D01*
%TO.C,C1*%
X107360000Y-41238748D02*
X107360000Y-41761252D01*
X105890000Y-41238748D02*
X105890000Y-41761252D01*
%TO.C,J7*%
D11*
X54853333Y-58422380D02*
X54853333Y-59136666D01*
X54900952Y-59279523D01*
X54996190Y-59374761D01*
X55139047Y-59422380D01*
X55234285Y-59422380D01*
X54472380Y-58422380D02*
X53805714Y-58422380D01*
X54234285Y-59422380D01*
%TO.C,C12*%
X68676857Y-56313142D02*
X68724476Y-56360761D01*
X68867333Y-56408380D01*
X68962571Y-56408380D01*
X69105428Y-56360761D01*
X69200666Y-56265523D01*
X69248285Y-56170285D01*
X69295904Y-55979809D01*
X69295904Y-55836952D01*
X69248285Y-55646476D01*
X69200666Y-55551238D01*
X69105428Y-55456000D01*
X68962571Y-55408380D01*
X68867333Y-55408380D01*
X68724476Y-55456000D01*
X68676857Y-55503619D01*
X67724476Y-56408380D02*
X68295904Y-56408380D01*
X68010190Y-56408380D02*
X68010190Y-55408380D01*
X68105428Y-55551238D01*
X68200666Y-55646476D01*
X68295904Y-55694095D01*
X67343523Y-55503619D02*
X67295904Y-55456000D01*
X67200666Y-55408380D01*
X66962571Y-55408380D01*
X66867333Y-55456000D01*
X66819714Y-55503619D01*
X66772095Y-55598857D01*
X66772095Y-55694095D01*
X66819714Y-55836952D01*
X67391142Y-56408380D01*
X66772095Y-56408380D01*
%TO.C,C11*%
X97857142Y-78757142D02*
X97904761Y-78709523D01*
X97952380Y-78566666D01*
X97952380Y-78471428D01*
X97904761Y-78328571D01*
X97809523Y-78233333D01*
X97714285Y-78185714D01*
X97523809Y-78138095D01*
X97380952Y-78138095D01*
X97190476Y-78185714D01*
X97095238Y-78233333D01*
X97000000Y-78328571D01*
X96952380Y-78471428D01*
X96952380Y-78566666D01*
X97000000Y-78709523D01*
X97047619Y-78757142D01*
X97952380Y-79709523D02*
X97952380Y-79138095D01*
X97952380Y-79423809D02*
X96952380Y-79423809D01*
X97095238Y-79328571D01*
X97190476Y-79233333D01*
X97238095Y-79138095D01*
X97952380Y-80661904D02*
X97952380Y-80090476D01*
X97952380Y-80376190D02*
X96952380Y-80376190D01*
X97095238Y-80280952D01*
X97190476Y-80185714D01*
X97238095Y-80090476D01*
%TO.C,C10*%
X78805142Y-93257142D02*
X78852761Y-93209523D01*
X78900380Y-93066666D01*
X78900380Y-92971428D01*
X78852761Y-92828571D01*
X78757523Y-92733333D01*
X78662285Y-92685714D01*
X78471809Y-92638095D01*
X78328952Y-92638095D01*
X78138476Y-92685714D01*
X78043238Y-92733333D01*
X77948000Y-92828571D01*
X77900380Y-92971428D01*
X77900380Y-93066666D01*
X77948000Y-93209523D01*
X77995619Y-93257142D01*
X78900380Y-94209523D02*
X78900380Y-93638095D01*
X78900380Y-93923809D02*
X77900380Y-93923809D01*
X78043238Y-93828571D01*
X78138476Y-93733333D01*
X78186095Y-93638095D01*
X77900380Y-94828571D02*
X77900380Y-94923809D01*
X77948000Y-95019047D01*
X77995619Y-95066666D01*
X78090857Y-95114285D01*
X78281333Y-95161904D01*
X78519428Y-95161904D01*
X78709904Y-95114285D01*
X78805142Y-95066666D01*
X78852761Y-95019047D01*
X78900380Y-94923809D01*
X78900380Y-94828571D01*
X78852761Y-94733333D01*
X78805142Y-94685714D01*
X78709904Y-94638095D01*
X78519428Y-94590476D01*
X78281333Y-94590476D01*
X78090857Y-94638095D01*
X77995619Y-94685714D01*
X77948000Y-94733333D01*
X77900380Y-94828571D01*
%TO.C,C9*%
X67277142Y-72963333D02*
X67324761Y-72915714D01*
X67372380Y-72772857D01*
X67372380Y-72677619D01*
X67324761Y-72534761D01*
X67229523Y-72439523D01*
X67134285Y-72391904D01*
X66943809Y-72344285D01*
X66800952Y-72344285D01*
X66610476Y-72391904D01*
X66515238Y-72439523D01*
X66420000Y-72534761D01*
X66372380Y-72677619D01*
X66372380Y-72772857D01*
X66420000Y-72915714D01*
X66467619Y-72963333D01*
X67372380Y-73439523D02*
X67372380Y-73630000D01*
X67324761Y-73725238D01*
X67277142Y-73772857D01*
X67134285Y-73868095D01*
X66943809Y-73915714D01*
X66562857Y-73915714D01*
X66467619Y-73868095D01*
X66420000Y-73820476D01*
X66372380Y-73725238D01*
X66372380Y-73534761D01*
X66420000Y-73439523D01*
X66467619Y-73391904D01*
X66562857Y-73344285D01*
X66800952Y-73344285D01*
X66896190Y-73391904D01*
X66943809Y-73439523D01*
X66991428Y-73534761D01*
X66991428Y-73725238D01*
X66943809Y-73820476D01*
X66896190Y-73868095D01*
X66800952Y-73915714D01*
%TO.C,C8*%
X68557142Y-102533333D02*
X68604761Y-102485714D01*
X68652380Y-102342857D01*
X68652380Y-102247619D01*
X68604761Y-102104761D01*
X68509523Y-102009523D01*
X68414285Y-101961904D01*
X68223809Y-101914285D01*
X68080952Y-101914285D01*
X67890476Y-101961904D01*
X67795238Y-102009523D01*
X67700000Y-102104761D01*
X67652380Y-102247619D01*
X67652380Y-102342857D01*
X67700000Y-102485714D01*
X67747619Y-102533333D01*
X68080952Y-103104761D02*
X68033333Y-103009523D01*
X67985714Y-102961904D01*
X67890476Y-102914285D01*
X67842857Y-102914285D01*
X67747619Y-102961904D01*
X67700000Y-103009523D01*
X67652380Y-103104761D01*
X67652380Y-103295238D01*
X67700000Y-103390476D01*
X67747619Y-103438095D01*
X67842857Y-103485714D01*
X67890476Y-103485714D01*
X67985714Y-103438095D01*
X68033333Y-103390476D01*
X68080952Y-103295238D01*
X68080952Y-103104761D01*
X68128571Y-103009523D01*
X68176190Y-102961904D01*
X68271428Y-102914285D01*
X68461904Y-102914285D01*
X68557142Y-102961904D01*
X68604761Y-103009523D01*
X68652380Y-103104761D01*
X68652380Y-103295238D01*
X68604761Y-103390476D01*
X68557142Y-103438095D01*
X68461904Y-103485714D01*
X68271428Y-103485714D01*
X68176190Y-103438095D01*
X68128571Y-103390476D01*
X68080952Y-103295238D01*
%TO.C,C7*%
X67883142Y-90489333D02*
X67930761Y-90441714D01*
X67978380Y-90298857D01*
X67978380Y-90203619D01*
X67930761Y-90060761D01*
X67835523Y-89965523D01*
X67740285Y-89917904D01*
X67549809Y-89870285D01*
X67406952Y-89870285D01*
X67216476Y-89917904D01*
X67121238Y-89965523D01*
X67026000Y-90060761D01*
X66978380Y-90203619D01*
X66978380Y-90298857D01*
X67026000Y-90441714D01*
X67073619Y-90489333D01*
X66978380Y-90822666D02*
X66978380Y-91489333D01*
X67978380Y-91060761D01*
%TO.C,C6*%
X81357142Y-103433333D02*
X81404761Y-103385714D01*
X81452380Y-103242857D01*
X81452380Y-103147619D01*
X81404761Y-103004761D01*
X81309523Y-102909523D01*
X81214285Y-102861904D01*
X81023809Y-102814285D01*
X80880952Y-102814285D01*
X80690476Y-102861904D01*
X80595238Y-102909523D01*
X80500000Y-103004761D01*
X80452380Y-103147619D01*
X80452380Y-103242857D01*
X80500000Y-103385714D01*
X80547619Y-103433333D01*
X80452380Y-104290476D02*
X80452380Y-104100000D01*
X80500000Y-104004761D01*
X80547619Y-103957142D01*
X80690476Y-103861904D01*
X80880952Y-103814285D01*
X81261904Y-103814285D01*
X81357142Y-103861904D01*
X81404761Y-103909523D01*
X81452380Y-104004761D01*
X81452380Y-104195238D01*
X81404761Y-104290476D01*
X81357142Y-104338095D01*
X81261904Y-104385714D01*
X81023809Y-104385714D01*
X80928571Y-104338095D01*
X80880952Y-104290476D01*
X80833333Y-104195238D01*
X80833333Y-104004761D01*
X80880952Y-103909523D01*
X80928571Y-103861904D01*
X81023809Y-103814285D01*
%TO.C,C5*%
X105557142Y-103133333D02*
X105604761Y-103085714D01*
X105652380Y-102942857D01*
X105652380Y-102847619D01*
X105604761Y-102704761D01*
X105509523Y-102609523D01*
X105414285Y-102561904D01*
X105223809Y-102514285D01*
X105080952Y-102514285D01*
X104890476Y-102561904D01*
X104795238Y-102609523D01*
X104700000Y-102704761D01*
X104652380Y-102847619D01*
X104652380Y-102942857D01*
X104700000Y-103085714D01*
X104747619Y-103133333D01*
X104652380Y-104038095D02*
X104652380Y-103561904D01*
X105128571Y-103514285D01*
X105080952Y-103561904D01*
X105033333Y-103657142D01*
X105033333Y-103895238D01*
X105080952Y-103990476D01*
X105128571Y-104038095D01*
X105223809Y-104085714D01*
X105461904Y-104085714D01*
X105557142Y-104038095D01*
X105604761Y-103990476D01*
X105652380Y-103895238D01*
X105652380Y-103657142D01*
X105604761Y-103561904D01*
X105557142Y-103514285D01*
%TO.C,J10*%
X119009523Y-58652380D02*
X119009523Y-59366666D01*
X119057142Y-59509523D01*
X119152380Y-59604761D01*
X119295238Y-59652380D01*
X119390476Y-59652380D01*
X118009523Y-59652380D02*
X118580952Y-59652380D01*
X118295238Y-59652380D02*
X118295238Y-58652380D01*
X118390476Y-58795238D01*
X118485714Y-58890476D01*
X118580952Y-58938095D01*
X117390476Y-58652380D02*
X117295238Y-58652380D01*
X117200000Y-58700000D01*
X117152380Y-58747619D01*
X117104761Y-58842857D01*
X117057142Y-59033333D01*
X117057142Y-59271428D01*
X117104761Y-59461904D01*
X117152380Y-59557142D01*
X117200000Y-59604761D01*
X117295238Y-59652380D01*
X117390476Y-59652380D01*
X117485714Y-59604761D01*
X117533333Y-59557142D01*
X117580952Y-59461904D01*
X117628571Y-59271428D01*
X117628571Y-59033333D01*
X117580952Y-58842857D01*
X117533333Y-58747619D01*
X117485714Y-58700000D01*
X117390476Y-58652380D01*
%TO.C,R10*%
X62947619Y-38842857D02*
X63423809Y-39176190D01*
X62947619Y-39414285D02*
X63947619Y-39414285D01*
X63947619Y-39033333D01*
X63900000Y-38938095D01*
X63852380Y-38890476D01*
X63757142Y-38842857D01*
X63614285Y-38842857D01*
X63519047Y-38890476D01*
X63471428Y-38938095D01*
X63423809Y-39033333D01*
X63423809Y-39414285D01*
X62947619Y-37890476D02*
X62947619Y-38461904D01*
X62947619Y-38176190D02*
X63947619Y-38176190D01*
X63804761Y-38271428D01*
X63709523Y-38366666D01*
X63661904Y-38461904D01*
X63947619Y-37271428D02*
X63947619Y-37176190D01*
X63900000Y-37080952D01*
X63852380Y-37033333D01*
X63757142Y-36985714D01*
X63566666Y-36938095D01*
X63328571Y-36938095D01*
X63138095Y-36985714D01*
X63042857Y-37033333D01*
X62995238Y-37080952D01*
X62947619Y-37176190D01*
X62947619Y-37271428D01*
X62995238Y-37366666D01*
X63042857Y-37414285D01*
X63138095Y-37461904D01*
X63328571Y-37509523D01*
X63566666Y-37509523D01*
X63757142Y-37461904D01*
X63852380Y-37414285D01*
X63900000Y-37366666D01*
X63947619Y-37271428D01*
%TO.C,R9*%
X59847619Y-38766666D02*
X60323809Y-39100000D01*
X59847619Y-39338095D02*
X60847619Y-39338095D01*
X60847619Y-38957142D01*
X60800000Y-38861904D01*
X60752380Y-38814285D01*
X60657142Y-38766666D01*
X60514285Y-38766666D01*
X60419047Y-38814285D01*
X60371428Y-38861904D01*
X60323809Y-38957142D01*
X60323809Y-39338095D01*
X59847619Y-38290476D02*
X59847619Y-38100000D01*
X59895238Y-38004761D01*
X59942857Y-37957142D01*
X60085714Y-37861904D01*
X60276190Y-37814285D01*
X60657142Y-37814285D01*
X60752380Y-37861904D01*
X60800000Y-37909523D01*
X60847619Y-38004761D01*
X60847619Y-38195238D01*
X60800000Y-38290476D01*
X60752380Y-38338095D01*
X60657142Y-38385714D01*
X60419047Y-38385714D01*
X60323809Y-38338095D01*
X60276190Y-38290476D01*
X60228571Y-38195238D01*
X60228571Y-38004761D01*
X60276190Y-37909523D01*
X60323809Y-37861904D01*
X60419047Y-37814285D01*
%TO.C,R8*%
X79372619Y-38766666D02*
X79848809Y-39100000D01*
X79372619Y-39338095D02*
X80372619Y-39338095D01*
X80372619Y-38957142D01*
X80325000Y-38861904D01*
X80277380Y-38814285D01*
X80182142Y-38766666D01*
X80039285Y-38766666D01*
X79944047Y-38814285D01*
X79896428Y-38861904D01*
X79848809Y-38957142D01*
X79848809Y-39338095D01*
X79944047Y-38195238D02*
X79991666Y-38290476D01*
X80039285Y-38338095D01*
X80134523Y-38385714D01*
X80182142Y-38385714D01*
X80277380Y-38338095D01*
X80325000Y-38290476D01*
X80372619Y-38195238D01*
X80372619Y-38004761D01*
X80325000Y-37909523D01*
X80277380Y-37861904D01*
X80182142Y-37814285D01*
X80134523Y-37814285D01*
X80039285Y-37861904D01*
X79991666Y-37909523D01*
X79944047Y-38004761D01*
X79944047Y-38195238D01*
X79896428Y-38290476D01*
X79848809Y-38338095D01*
X79753571Y-38385714D01*
X79563095Y-38385714D01*
X79467857Y-38338095D01*
X79420238Y-38290476D01*
X79372619Y-38195238D01*
X79372619Y-38004761D01*
X79420238Y-37909523D01*
X79467857Y-37861904D01*
X79563095Y-37814285D01*
X79753571Y-37814285D01*
X79848809Y-37861904D01*
X79896428Y-37909523D01*
X79944047Y-38004761D01*
%TO.C,R7*%
X76322619Y-38766666D02*
X76798809Y-39100000D01*
X76322619Y-39338095D02*
X77322619Y-39338095D01*
X77322619Y-38957142D01*
X77275000Y-38861904D01*
X77227380Y-38814285D01*
X77132142Y-38766666D01*
X76989285Y-38766666D01*
X76894047Y-38814285D01*
X76846428Y-38861904D01*
X76798809Y-38957142D01*
X76798809Y-39338095D01*
X77322619Y-38433333D02*
X77322619Y-37766666D01*
X76322619Y-38195238D01*
%TO.C,R6*%
X92847619Y-38766666D02*
X93323809Y-39100000D01*
X92847619Y-39338095D02*
X93847619Y-39338095D01*
X93847619Y-38957142D01*
X93800000Y-38861904D01*
X93752380Y-38814285D01*
X93657142Y-38766666D01*
X93514285Y-38766666D01*
X93419047Y-38814285D01*
X93371428Y-38861904D01*
X93323809Y-38957142D01*
X93323809Y-39338095D01*
X93847619Y-37909523D02*
X93847619Y-38100000D01*
X93800000Y-38195238D01*
X93752380Y-38242857D01*
X93609523Y-38338095D01*
X93419047Y-38385714D01*
X93038095Y-38385714D01*
X92942857Y-38338095D01*
X92895238Y-38290476D01*
X92847619Y-38195238D01*
X92847619Y-38004761D01*
X92895238Y-37909523D01*
X92942857Y-37861904D01*
X93038095Y-37814285D01*
X93276190Y-37814285D01*
X93371428Y-37861904D01*
X93419047Y-37909523D01*
X93466666Y-38004761D01*
X93466666Y-38195238D01*
X93419047Y-38290476D01*
X93371428Y-38338095D01*
X93276190Y-38385714D01*
%TO.C,R5*%
X95947619Y-38766666D02*
X96423809Y-39100000D01*
X95947619Y-39338095D02*
X96947619Y-39338095D01*
X96947619Y-38957142D01*
X96900000Y-38861904D01*
X96852380Y-38814285D01*
X96757142Y-38766666D01*
X96614285Y-38766666D01*
X96519047Y-38814285D01*
X96471428Y-38861904D01*
X96423809Y-38957142D01*
X96423809Y-39338095D01*
X96947619Y-37861904D02*
X96947619Y-38338095D01*
X96471428Y-38385714D01*
X96519047Y-38338095D01*
X96566666Y-38242857D01*
X96566666Y-38004761D01*
X96519047Y-37909523D01*
X96471428Y-37861904D01*
X96376190Y-37814285D01*
X96138095Y-37814285D01*
X96042857Y-37861904D01*
X95995238Y-37909523D01*
X95947619Y-38004761D01*
X95947619Y-38242857D01*
X95995238Y-38338095D01*
X96042857Y-38385714D01*
%TO.C,R4*%
X112447619Y-38766666D02*
X112923809Y-39100000D01*
X112447619Y-39338095D02*
X113447619Y-39338095D01*
X113447619Y-38957142D01*
X113400000Y-38861904D01*
X113352380Y-38814285D01*
X113257142Y-38766666D01*
X113114285Y-38766666D01*
X113019047Y-38814285D01*
X112971428Y-38861904D01*
X112923809Y-38957142D01*
X112923809Y-39338095D01*
X113114285Y-37909523D02*
X112447619Y-37909523D01*
X113495238Y-38147619D02*
X112780952Y-38385714D01*
X112780952Y-37766666D01*
%TO.C,R3*%
X107032380Y-63508333D02*
X106556190Y-63175000D01*
X107032380Y-62936904D02*
X106032380Y-62936904D01*
X106032380Y-63317857D01*
X106080000Y-63413095D01*
X106127619Y-63460714D01*
X106222857Y-63508333D01*
X106365714Y-63508333D01*
X106460952Y-63460714D01*
X106508571Y-63413095D01*
X106556190Y-63317857D01*
X106556190Y-62936904D01*
X106032380Y-63841666D02*
X106032380Y-64460714D01*
X106413333Y-64127380D01*
X106413333Y-64270238D01*
X106460952Y-64365476D01*
X106508571Y-64413095D01*
X106603809Y-64460714D01*
X106841904Y-64460714D01*
X106937142Y-64413095D01*
X106984761Y-64365476D01*
X107032380Y-64270238D01*
X107032380Y-63984523D01*
X106984761Y-63889285D01*
X106937142Y-63841666D01*
%TO.C,R2*%
X109347619Y-38866666D02*
X109823809Y-39200000D01*
X109347619Y-39438095D02*
X110347619Y-39438095D01*
X110347619Y-39057142D01*
X110300000Y-38961904D01*
X110252380Y-38914285D01*
X110157142Y-38866666D01*
X110014285Y-38866666D01*
X109919047Y-38914285D01*
X109871428Y-38961904D01*
X109823809Y-39057142D01*
X109823809Y-39438095D01*
X110252380Y-38485714D02*
X110300000Y-38438095D01*
X110347619Y-38342857D01*
X110347619Y-38104761D01*
X110300000Y-38009523D01*
X110252380Y-37961904D01*
X110157142Y-37914285D01*
X110061904Y-37914285D01*
X109919047Y-37961904D01*
X109347619Y-38533333D01*
X109347619Y-37914285D01*
%TO.C,R1*%
X109512380Y-63608333D02*
X109036190Y-63275000D01*
X109512380Y-63036904D02*
X108512380Y-63036904D01*
X108512380Y-63417857D01*
X108560000Y-63513095D01*
X108607619Y-63560714D01*
X108702857Y-63608333D01*
X108845714Y-63608333D01*
X108940952Y-63560714D01*
X108988571Y-63513095D01*
X109036190Y-63417857D01*
X109036190Y-63036904D01*
X109512380Y-64560714D02*
X109512380Y-63989285D01*
X109512380Y-64275000D02*
X108512380Y-64275000D01*
X108655238Y-64179761D01*
X108750476Y-64084523D01*
X108798095Y-63989285D01*
%TO.C,C4*%
X57657142Y-38333333D02*
X57704761Y-38285714D01*
X57752380Y-38142857D01*
X57752380Y-38047619D01*
X57704761Y-37904761D01*
X57609523Y-37809523D01*
X57514285Y-37761904D01*
X57323809Y-37714285D01*
X57180952Y-37714285D01*
X56990476Y-37761904D01*
X56895238Y-37809523D01*
X56800000Y-37904761D01*
X56752380Y-38047619D01*
X56752380Y-38142857D01*
X56800000Y-38285714D01*
X56847619Y-38333333D01*
X57085714Y-39190476D02*
X57752380Y-39190476D01*
X56704761Y-38952380D02*
X57419047Y-38714285D01*
X57419047Y-39333333D01*
%TO.C,C3*%
X73342857Y-38666666D02*
X73295238Y-38714285D01*
X73247619Y-38857142D01*
X73247619Y-38952380D01*
X73295238Y-39095238D01*
X73390476Y-39190476D01*
X73485714Y-39238095D01*
X73676190Y-39285714D01*
X73819047Y-39285714D01*
X74009523Y-39238095D01*
X74104761Y-39190476D01*
X74200000Y-39095238D01*
X74247619Y-38952380D01*
X74247619Y-38857142D01*
X74200000Y-38714285D01*
X74152380Y-38666666D01*
X74247619Y-38333333D02*
X74247619Y-37714285D01*
X73866666Y-38047619D01*
X73866666Y-37904761D01*
X73819047Y-37809523D01*
X73771428Y-37761904D01*
X73676190Y-37714285D01*
X73438095Y-37714285D01*
X73342857Y-37761904D01*
X73295238Y-37809523D01*
X73247619Y-37904761D01*
X73247619Y-38190476D01*
X73295238Y-38285714D01*
X73342857Y-38333333D01*
%TO.C,C2*%
X89842857Y-38666666D02*
X89795238Y-38714285D01*
X89747619Y-38857142D01*
X89747619Y-38952380D01*
X89795238Y-39095238D01*
X89890476Y-39190476D01*
X89985714Y-39238095D01*
X90176190Y-39285714D01*
X90319047Y-39285714D01*
X90509523Y-39238095D01*
X90604761Y-39190476D01*
X90700000Y-39095238D01*
X90747619Y-38952380D01*
X90747619Y-38857142D01*
X90700000Y-38714285D01*
X90652380Y-38666666D01*
X90652380Y-38285714D02*
X90700000Y-38238095D01*
X90747619Y-38142857D01*
X90747619Y-37904761D01*
X90700000Y-37809523D01*
X90652380Y-37761904D01*
X90557142Y-37714285D01*
X90461904Y-37714285D01*
X90319047Y-37761904D01*
X89747619Y-38333333D01*
X89747619Y-37714285D01*
%TO.C,C1*%
X106342857Y-38866666D02*
X106295238Y-38914285D01*
X106247619Y-39057142D01*
X106247619Y-39152380D01*
X106295238Y-39295238D01*
X106390476Y-39390476D01*
X106485714Y-39438095D01*
X106676190Y-39485714D01*
X106819047Y-39485714D01*
X107009523Y-39438095D01*
X107104761Y-39390476D01*
X107200000Y-39295238D01*
X107247619Y-39152380D01*
X107247619Y-39057142D01*
X107200000Y-38914285D01*
X107152380Y-38866666D01*
X106247619Y-37914285D02*
X106247619Y-38485714D01*
X106247619Y-38200000D02*
X107247619Y-38200000D01*
X107104761Y-38295238D01*
X107009523Y-38390476D01*
X106961904Y-38485714D01*
%TD*%
M02*
