%TF.GenerationSoftware,KiCad,Pcbnew,(5.1.10)-1*%
%TF.CreationDate,2022-04-08T18:55:06+02:00*%
%TF.ProjectId,shield_Arduino,73686965-6c64-45f4-9172-6475696e6f2e,rev?*%
%TF.SameCoordinates,Original*%
%TF.FileFunction,Paste,Top*%
%TF.FilePolarity,Positive*%
%FSLAX46Y46*%
G04 Gerber Fmt 4.6, Leading zero omitted, Abs format (unit mm)*
G04 Created by KiCad (PCBNEW (5.1.10)-1) date 2022-04-08 18:55:06*
%MOMM*%
%LPD*%
G01*
G04 APERTURE LIST*
%ADD10R,1.500000X2.000000*%
%ADD11R,3.800000X2.000000*%
G04 APERTURE END LIST*
D10*
%TO.C,Q1*%
X142000000Y-119690000D03*
X146600000Y-119690000D03*
X144300000Y-119690000D03*
D11*
X144300000Y-113390000D03*
%TD*%
%TO.C,R10*%
G36*
G01*
X132000000Y-147990001D02*
X132000000Y-147089999D01*
G75*
G02*
X132249999Y-146840000I249999J0D01*
G01*
X132950001Y-146840000D01*
G75*
G02*
X133200000Y-147089999I0J-249999D01*
G01*
X133200000Y-147990001D01*
G75*
G02*
X132950001Y-148240000I-249999J0D01*
G01*
X132249999Y-148240000D01*
G75*
G02*
X132000000Y-147990001I0J249999D01*
G01*
G37*
G36*
G01*
X130000000Y-147990001D02*
X130000000Y-147089999D01*
G75*
G02*
X130249999Y-146840000I249999J0D01*
G01*
X130950001Y-146840000D01*
G75*
G02*
X131200000Y-147089999I0J-249999D01*
G01*
X131200000Y-147990001D01*
G75*
G02*
X130950001Y-148240000I-249999J0D01*
G01*
X130249999Y-148240000D01*
G75*
G02*
X130000000Y-147990001I0J249999D01*
G01*
G37*
%TD*%
%TO.C,R11*%
G36*
G01*
X139800000Y-147990001D02*
X139800000Y-147089999D01*
G75*
G02*
X140049999Y-146840000I249999J0D01*
G01*
X140750001Y-146840000D01*
G75*
G02*
X141000000Y-147089999I0J-249999D01*
G01*
X141000000Y-147990001D01*
G75*
G02*
X140750001Y-148240000I-249999J0D01*
G01*
X140049999Y-148240000D01*
G75*
G02*
X139800000Y-147990001I0J249999D01*
G01*
G37*
G36*
G01*
X137800000Y-147990001D02*
X137800000Y-147089999D01*
G75*
G02*
X138049999Y-146840000I249999J0D01*
G01*
X138750001Y-146840000D01*
G75*
G02*
X139000000Y-147089999I0J-249999D01*
G01*
X139000000Y-147990001D01*
G75*
G02*
X138750001Y-148240000I-249999J0D01*
G01*
X138049999Y-148240000D01*
G75*
G02*
X137800000Y-147990001I0J249999D01*
G01*
G37*
%TD*%
%TO.C,R7*%
G36*
G01*
X106600000Y-147289999D02*
X106600000Y-148190001D01*
G75*
G02*
X106350001Y-148440000I-249999J0D01*
G01*
X105649999Y-148440000D01*
G75*
G02*
X105400000Y-148190001I0J249999D01*
G01*
X105400000Y-147289999D01*
G75*
G02*
X105649999Y-147040000I249999J0D01*
G01*
X106350001Y-147040000D01*
G75*
G02*
X106600000Y-147289999I0J-249999D01*
G01*
G37*
G36*
G01*
X108600000Y-147289999D02*
X108600000Y-148190001D01*
G75*
G02*
X108350001Y-148440000I-249999J0D01*
G01*
X107649999Y-148440000D01*
G75*
G02*
X107400000Y-148190001I0J249999D01*
G01*
X107400000Y-147289999D01*
G75*
G02*
X107649999Y-147040000I249999J0D01*
G01*
X108350001Y-147040000D01*
G75*
G02*
X108600000Y-147289999I0J-249999D01*
G01*
G37*
%TD*%
%TO.C,U1*%
G36*
G01*
X128925000Y-125735000D02*
X128925000Y-124945000D01*
G75*
G02*
X129175000Y-124695000I250000J0D01*
G01*
X129685000Y-124695000D01*
G75*
G02*
X129935000Y-124945000I0J-250000D01*
G01*
X129935000Y-125735000D01*
G75*
G02*
X129685000Y-125985000I-250000J0D01*
G01*
X129175000Y-125985000D01*
G75*
G02*
X128925000Y-125735000I0J250000D01*
G01*
G37*
G36*
G01*
X128925000Y-124135000D02*
X128925000Y-123345000D01*
G75*
G02*
X129175000Y-123095000I250000J0D01*
G01*
X129685000Y-123095000D01*
G75*
G02*
X129935000Y-123345000I0J-250000D01*
G01*
X129935000Y-124135000D01*
G75*
G02*
X129685000Y-124385000I-250000J0D01*
G01*
X129175000Y-124385000D01*
G75*
G02*
X128925000Y-124135000I0J250000D01*
G01*
G37*
G36*
G01*
X127665000Y-125735000D02*
X127665000Y-124945000D01*
G75*
G02*
X127915000Y-124695000I250000J0D01*
G01*
X128425000Y-124695000D01*
G75*
G02*
X128675000Y-124945000I0J-250000D01*
G01*
X128675000Y-125735000D01*
G75*
G02*
X128425000Y-125985000I-250000J0D01*
G01*
X127915000Y-125985000D01*
G75*
G02*
X127665000Y-125735000I0J250000D01*
G01*
G37*
G36*
G01*
X127665000Y-124135000D02*
X127665000Y-123345000D01*
G75*
G02*
X127915000Y-123095000I250000J0D01*
G01*
X128425000Y-123095000D01*
G75*
G02*
X128675000Y-123345000I0J-250000D01*
G01*
X128675000Y-124135000D01*
G75*
G02*
X128425000Y-124385000I-250000J0D01*
G01*
X127915000Y-124385000D01*
G75*
G02*
X127665000Y-124135000I0J250000D01*
G01*
G37*
G36*
G01*
X130625000Y-122785000D02*
X130625000Y-122485000D01*
G75*
G02*
X130775000Y-122335000I150000J0D01*
G01*
X132100000Y-122335000D01*
G75*
G02*
X132250000Y-122485000I0J-150000D01*
G01*
X132250000Y-122785000D01*
G75*
G02*
X132100000Y-122935000I-150000J0D01*
G01*
X130775000Y-122935000D01*
G75*
G02*
X130625000Y-122785000I0J150000D01*
G01*
G37*
G36*
G01*
X130625000Y-124055000D02*
X130625000Y-123755000D01*
G75*
G02*
X130775000Y-123605000I150000J0D01*
G01*
X132100000Y-123605000D01*
G75*
G02*
X132250000Y-123755000I0J-150000D01*
G01*
X132250000Y-124055000D01*
G75*
G02*
X132100000Y-124205000I-150000J0D01*
G01*
X130775000Y-124205000D01*
G75*
G02*
X130625000Y-124055000I0J150000D01*
G01*
G37*
G36*
G01*
X130625000Y-125325000D02*
X130625000Y-125025000D01*
G75*
G02*
X130775000Y-124875000I150000J0D01*
G01*
X132100000Y-124875000D01*
G75*
G02*
X132250000Y-125025000I0J-150000D01*
G01*
X132250000Y-125325000D01*
G75*
G02*
X132100000Y-125475000I-150000J0D01*
G01*
X130775000Y-125475000D01*
G75*
G02*
X130625000Y-125325000I0J150000D01*
G01*
G37*
G36*
G01*
X130625000Y-126595000D02*
X130625000Y-126295000D01*
G75*
G02*
X130775000Y-126145000I150000J0D01*
G01*
X132100000Y-126145000D01*
G75*
G02*
X132250000Y-126295000I0J-150000D01*
G01*
X132250000Y-126595000D01*
G75*
G02*
X132100000Y-126745000I-150000J0D01*
G01*
X130775000Y-126745000D01*
G75*
G02*
X130625000Y-126595000I0J150000D01*
G01*
G37*
G36*
G01*
X125350000Y-126595000D02*
X125350000Y-126295000D01*
G75*
G02*
X125500000Y-126145000I150000J0D01*
G01*
X126825000Y-126145000D01*
G75*
G02*
X126975000Y-126295000I0J-150000D01*
G01*
X126975000Y-126595000D01*
G75*
G02*
X126825000Y-126745000I-150000J0D01*
G01*
X125500000Y-126745000D01*
G75*
G02*
X125350000Y-126595000I0J150000D01*
G01*
G37*
G36*
G01*
X125350000Y-125325000D02*
X125350000Y-125025000D01*
G75*
G02*
X125500000Y-124875000I150000J0D01*
G01*
X126825000Y-124875000D01*
G75*
G02*
X126975000Y-125025000I0J-150000D01*
G01*
X126975000Y-125325000D01*
G75*
G02*
X126825000Y-125475000I-150000J0D01*
G01*
X125500000Y-125475000D01*
G75*
G02*
X125350000Y-125325000I0J150000D01*
G01*
G37*
G36*
G01*
X125350000Y-124055000D02*
X125350000Y-123755000D01*
G75*
G02*
X125500000Y-123605000I150000J0D01*
G01*
X126825000Y-123605000D01*
G75*
G02*
X126975000Y-123755000I0J-150000D01*
G01*
X126975000Y-124055000D01*
G75*
G02*
X126825000Y-124205000I-150000J0D01*
G01*
X125500000Y-124205000D01*
G75*
G02*
X125350000Y-124055000I0J150000D01*
G01*
G37*
G36*
G01*
X125350000Y-122785000D02*
X125350000Y-122485000D01*
G75*
G02*
X125500000Y-122335000I150000J0D01*
G01*
X126825000Y-122335000D01*
G75*
G02*
X126975000Y-122485000I0J-150000D01*
G01*
X126975000Y-122785000D01*
G75*
G02*
X126825000Y-122935000I-150000J0D01*
G01*
X125500000Y-122935000D01*
G75*
G02*
X125350000Y-122785000I0J150000D01*
G01*
G37*
%TD*%
%TO.C,R14*%
G36*
G01*
X163200000Y-147990001D02*
X163200000Y-147089999D01*
G75*
G02*
X163449999Y-146840000I249999J0D01*
G01*
X164150001Y-146840000D01*
G75*
G02*
X164400000Y-147089999I0J-249999D01*
G01*
X164400000Y-147990001D01*
G75*
G02*
X164150001Y-148240000I-249999J0D01*
G01*
X163449999Y-148240000D01*
G75*
G02*
X163200000Y-147990001I0J249999D01*
G01*
G37*
G36*
G01*
X161200000Y-147990001D02*
X161200000Y-147089999D01*
G75*
G02*
X161449999Y-146840000I249999J0D01*
G01*
X162150001Y-146840000D01*
G75*
G02*
X162400000Y-147089999I0J-249999D01*
G01*
X162400000Y-147990001D01*
G75*
G02*
X162150001Y-148240000I-249999J0D01*
G01*
X161449999Y-148240000D01*
G75*
G02*
X161200000Y-147990001I0J249999D01*
G01*
G37*
%TD*%
%TO.C,R13*%
G36*
G01*
X155400000Y-147990001D02*
X155400000Y-147089999D01*
G75*
G02*
X155649999Y-146840000I249999J0D01*
G01*
X156350001Y-146840000D01*
G75*
G02*
X156600000Y-147089999I0J-249999D01*
G01*
X156600000Y-147990001D01*
G75*
G02*
X156350001Y-148240000I-249999J0D01*
G01*
X155649999Y-148240000D01*
G75*
G02*
X155400000Y-147990001I0J249999D01*
G01*
G37*
G36*
G01*
X153400000Y-147990001D02*
X153400000Y-147089999D01*
G75*
G02*
X153649999Y-146840000I249999J0D01*
G01*
X154350001Y-146840000D01*
G75*
G02*
X154600000Y-147089999I0J-249999D01*
G01*
X154600000Y-147990001D01*
G75*
G02*
X154350001Y-148240000I-249999J0D01*
G01*
X153649999Y-148240000D01*
G75*
G02*
X153400000Y-147990001I0J249999D01*
G01*
G37*
%TD*%
%TO.C,R12*%
G36*
G01*
X148000000Y-147990001D02*
X148000000Y-147089999D01*
G75*
G02*
X148249999Y-146840000I249999J0D01*
G01*
X148950001Y-146840000D01*
G75*
G02*
X149200000Y-147089999I0J-249999D01*
G01*
X149200000Y-147990001D01*
G75*
G02*
X148950001Y-148240000I-249999J0D01*
G01*
X148249999Y-148240000D01*
G75*
G02*
X148000000Y-147990001I0J249999D01*
G01*
G37*
G36*
G01*
X146000000Y-147990001D02*
X146000000Y-147089999D01*
G75*
G02*
X146249999Y-146840000I249999J0D01*
G01*
X146950001Y-146840000D01*
G75*
G02*
X147200000Y-147089999I0J-249999D01*
G01*
X147200000Y-147990001D01*
G75*
G02*
X146950001Y-148240000I-249999J0D01*
G01*
X146249999Y-148240000D01*
G75*
G02*
X146000000Y-147990001I0J249999D01*
G01*
G37*
%TD*%
%TO.C,R9*%
G36*
G01*
X123800000Y-147990001D02*
X123800000Y-147089999D01*
G75*
G02*
X124049999Y-146840000I249999J0D01*
G01*
X124750001Y-146840000D01*
G75*
G02*
X125000000Y-147089999I0J-249999D01*
G01*
X125000000Y-147990001D01*
G75*
G02*
X124750001Y-148240000I-249999J0D01*
G01*
X124049999Y-148240000D01*
G75*
G02*
X123800000Y-147990001I0J249999D01*
G01*
G37*
G36*
G01*
X121800000Y-147990001D02*
X121800000Y-147089999D01*
G75*
G02*
X122049999Y-146840000I249999J0D01*
G01*
X122750001Y-146840000D01*
G75*
G02*
X123000000Y-147089999I0J-249999D01*
G01*
X123000000Y-147990001D01*
G75*
G02*
X122750001Y-148240000I-249999J0D01*
G01*
X122049999Y-148240000D01*
G75*
G02*
X121800000Y-147990001I0J249999D01*
G01*
G37*
%TD*%
%TO.C,R8*%
G36*
G01*
X114800000Y-147089999D02*
X114800000Y-147990001D01*
G75*
G02*
X114550001Y-148240000I-249999J0D01*
G01*
X113849999Y-148240000D01*
G75*
G02*
X113600000Y-147990001I0J249999D01*
G01*
X113600000Y-147089999D01*
G75*
G02*
X113849999Y-146840000I249999J0D01*
G01*
X114550001Y-146840000D01*
G75*
G02*
X114800000Y-147089999I0J-249999D01*
G01*
G37*
G36*
G01*
X116800000Y-147089999D02*
X116800000Y-147990001D01*
G75*
G02*
X116550001Y-148240000I-249999J0D01*
G01*
X115849999Y-148240000D01*
G75*
G02*
X115600000Y-147990001I0J249999D01*
G01*
X115600000Y-147089999D01*
G75*
G02*
X115849999Y-146840000I249999J0D01*
G01*
X116550001Y-146840000D01*
G75*
G02*
X116800000Y-147089999I0J-249999D01*
G01*
G37*
%TD*%
%TO.C,R6*%
G36*
G01*
X117800000Y-111289999D02*
X117800000Y-112190001D01*
G75*
G02*
X117550001Y-112440000I-249999J0D01*
G01*
X116849999Y-112440000D01*
G75*
G02*
X116600000Y-112190001I0J249999D01*
G01*
X116600000Y-111289999D01*
G75*
G02*
X116849999Y-111040000I249999J0D01*
G01*
X117550001Y-111040000D01*
G75*
G02*
X117800000Y-111289999I0J-249999D01*
G01*
G37*
G36*
G01*
X119800000Y-111289999D02*
X119800000Y-112190001D01*
G75*
G02*
X119550001Y-112440000I-249999J0D01*
G01*
X118849999Y-112440000D01*
G75*
G02*
X118600000Y-112190001I0J249999D01*
G01*
X118600000Y-111289999D01*
G75*
G02*
X118849999Y-111040000I249999J0D01*
G01*
X119550001Y-111040000D01*
G75*
G02*
X119800000Y-111289999I0J-249999D01*
G01*
G37*
%TD*%
%TO.C,R5*%
G36*
G01*
X137200000Y-121190001D02*
X137200000Y-120289999D01*
G75*
G02*
X137449999Y-120040000I249999J0D01*
G01*
X138150001Y-120040000D01*
G75*
G02*
X138400000Y-120289999I0J-249999D01*
G01*
X138400000Y-121190001D01*
G75*
G02*
X138150001Y-121440000I-249999J0D01*
G01*
X137449999Y-121440000D01*
G75*
G02*
X137200000Y-121190001I0J249999D01*
G01*
G37*
G36*
G01*
X135200000Y-121190001D02*
X135200000Y-120289999D01*
G75*
G02*
X135449999Y-120040000I249999J0D01*
G01*
X136150001Y-120040000D01*
G75*
G02*
X136400000Y-120289999I0J-249999D01*
G01*
X136400000Y-121190001D01*
G75*
G02*
X136150001Y-121440000I-249999J0D01*
G01*
X135449999Y-121440000D01*
G75*
G02*
X135200000Y-121190001I0J249999D01*
G01*
G37*
%TD*%
%TO.C,R4*%
G36*
G01*
X137200000Y-125990001D02*
X137200000Y-125089999D01*
G75*
G02*
X137449999Y-124840000I249999J0D01*
G01*
X138150001Y-124840000D01*
G75*
G02*
X138400000Y-125089999I0J-249999D01*
G01*
X138400000Y-125990001D01*
G75*
G02*
X138150001Y-126240000I-249999J0D01*
G01*
X137449999Y-126240000D01*
G75*
G02*
X137200000Y-125990001I0J249999D01*
G01*
G37*
G36*
G01*
X135200000Y-125990001D02*
X135200000Y-125089999D01*
G75*
G02*
X135449999Y-124840000I249999J0D01*
G01*
X136150001Y-124840000D01*
G75*
G02*
X136400000Y-125089999I0J-249999D01*
G01*
X136400000Y-125990001D01*
G75*
G02*
X136150001Y-126240000I-249999J0D01*
G01*
X135449999Y-126240000D01*
G75*
G02*
X135200000Y-125990001I0J249999D01*
G01*
G37*
%TD*%
%TO.C,R3*%
G36*
G01*
X142400000Y-125990001D02*
X142400000Y-125089999D01*
G75*
G02*
X142649999Y-124840000I249999J0D01*
G01*
X143350001Y-124840000D01*
G75*
G02*
X143600000Y-125089999I0J-249999D01*
G01*
X143600000Y-125990001D01*
G75*
G02*
X143350001Y-126240000I-249999J0D01*
G01*
X142649999Y-126240000D01*
G75*
G02*
X142400000Y-125990001I0J249999D01*
G01*
G37*
G36*
G01*
X140400000Y-125990001D02*
X140400000Y-125089999D01*
G75*
G02*
X140649999Y-124840000I249999J0D01*
G01*
X141350001Y-124840000D01*
G75*
G02*
X141600000Y-125089999I0J-249999D01*
G01*
X141600000Y-125990001D01*
G75*
G02*
X141350001Y-126240000I-249999J0D01*
G01*
X140649999Y-126240000D01*
G75*
G02*
X140400000Y-125990001I0J249999D01*
G01*
G37*
%TD*%
%TO.C,R2*%
G36*
G01*
X120200000Y-127390001D02*
X120200000Y-126489999D01*
G75*
G02*
X120449999Y-126240000I249999J0D01*
G01*
X121150001Y-126240000D01*
G75*
G02*
X121400000Y-126489999I0J-249999D01*
G01*
X121400000Y-127390001D01*
G75*
G02*
X121150001Y-127640000I-249999J0D01*
G01*
X120449999Y-127640000D01*
G75*
G02*
X120200000Y-127390001I0J249999D01*
G01*
G37*
G36*
G01*
X118200000Y-127390001D02*
X118200000Y-126489999D01*
G75*
G02*
X118449999Y-126240000I249999J0D01*
G01*
X119150001Y-126240000D01*
G75*
G02*
X119400000Y-126489999I0J-249999D01*
G01*
X119400000Y-127390001D01*
G75*
G02*
X119150001Y-127640000I-249999J0D01*
G01*
X118449999Y-127640000D01*
G75*
G02*
X118200000Y-127390001I0J249999D01*
G01*
G37*
%TD*%
%TO.C,R1*%
G36*
G01*
X119250001Y-122740000D02*
X118349999Y-122740000D01*
G75*
G02*
X118100000Y-122490001I0J249999D01*
G01*
X118100000Y-121789999D01*
G75*
G02*
X118349999Y-121540000I249999J0D01*
G01*
X119250001Y-121540000D01*
G75*
G02*
X119500000Y-121789999I0J-249999D01*
G01*
X119500000Y-122490001D01*
G75*
G02*
X119250001Y-122740000I-249999J0D01*
G01*
G37*
G36*
G01*
X119250001Y-124740000D02*
X118349999Y-124740000D01*
G75*
G02*
X118100000Y-124490001I0J249999D01*
G01*
X118100000Y-123789999D01*
G75*
G02*
X118349999Y-123540000I249999J0D01*
G01*
X119250001Y-123540000D01*
G75*
G02*
X119500000Y-123789999I0J-249999D01*
G01*
X119500000Y-124490001D01*
G75*
G02*
X119250001Y-124740000I-249999J0D01*
G01*
G37*
%TD*%
%TO.C,D9*%
G36*
G01*
X163250000Y-134990001D02*
X163250000Y-134089999D01*
G75*
G02*
X163499999Y-133840000I249999J0D01*
G01*
X164150001Y-133840000D01*
G75*
G02*
X164400000Y-134089999I0J-249999D01*
G01*
X164400000Y-134990001D01*
G75*
G02*
X164150001Y-135240000I-249999J0D01*
G01*
X163499999Y-135240000D01*
G75*
G02*
X163250000Y-134990001I0J249999D01*
G01*
G37*
G36*
G01*
X161200000Y-134990001D02*
X161200000Y-134089999D01*
G75*
G02*
X161449999Y-133840000I249999J0D01*
G01*
X162100001Y-133840000D01*
G75*
G02*
X162350000Y-134089999I0J-249999D01*
G01*
X162350000Y-134990001D01*
G75*
G02*
X162100001Y-135240000I-249999J0D01*
G01*
X161449999Y-135240000D01*
G75*
G02*
X161200000Y-134990001I0J249999D01*
G01*
G37*
%TD*%
%TO.C,D8*%
G36*
G01*
X155450000Y-134990001D02*
X155450000Y-134089999D01*
G75*
G02*
X155699999Y-133840000I249999J0D01*
G01*
X156350001Y-133840000D01*
G75*
G02*
X156600000Y-134089999I0J-249999D01*
G01*
X156600000Y-134990001D01*
G75*
G02*
X156350001Y-135240000I-249999J0D01*
G01*
X155699999Y-135240000D01*
G75*
G02*
X155450000Y-134990001I0J249999D01*
G01*
G37*
G36*
G01*
X153400000Y-134990001D02*
X153400000Y-134089999D01*
G75*
G02*
X153649999Y-133840000I249999J0D01*
G01*
X154300001Y-133840000D01*
G75*
G02*
X154550000Y-134089999I0J-249999D01*
G01*
X154550000Y-134990001D01*
G75*
G02*
X154300001Y-135240000I-249999J0D01*
G01*
X153649999Y-135240000D01*
G75*
G02*
X153400000Y-134990001I0J249999D01*
G01*
G37*
%TD*%
%TO.C,D7*%
G36*
G01*
X148050000Y-134990001D02*
X148050000Y-134089999D01*
G75*
G02*
X148299999Y-133840000I249999J0D01*
G01*
X148950001Y-133840000D01*
G75*
G02*
X149200000Y-134089999I0J-249999D01*
G01*
X149200000Y-134990001D01*
G75*
G02*
X148950001Y-135240000I-249999J0D01*
G01*
X148299999Y-135240000D01*
G75*
G02*
X148050000Y-134990001I0J249999D01*
G01*
G37*
G36*
G01*
X146000000Y-134990001D02*
X146000000Y-134089999D01*
G75*
G02*
X146249999Y-133840000I249999J0D01*
G01*
X146900001Y-133840000D01*
G75*
G02*
X147150000Y-134089999I0J-249999D01*
G01*
X147150000Y-134990001D01*
G75*
G02*
X146900001Y-135240000I-249999J0D01*
G01*
X146249999Y-135240000D01*
G75*
G02*
X146000000Y-134990001I0J249999D01*
G01*
G37*
%TD*%
%TO.C,D6*%
G36*
G01*
X139850000Y-134990001D02*
X139850000Y-134089999D01*
G75*
G02*
X140099999Y-133840000I249999J0D01*
G01*
X140750001Y-133840000D01*
G75*
G02*
X141000000Y-134089999I0J-249999D01*
G01*
X141000000Y-134990001D01*
G75*
G02*
X140750001Y-135240000I-249999J0D01*
G01*
X140099999Y-135240000D01*
G75*
G02*
X139850000Y-134990001I0J249999D01*
G01*
G37*
G36*
G01*
X137800000Y-134990001D02*
X137800000Y-134089999D01*
G75*
G02*
X138049999Y-133840000I249999J0D01*
G01*
X138700001Y-133840000D01*
G75*
G02*
X138950000Y-134089999I0J-249999D01*
G01*
X138950000Y-134990001D01*
G75*
G02*
X138700001Y-135240000I-249999J0D01*
G01*
X138049999Y-135240000D01*
G75*
G02*
X137800000Y-134990001I0J249999D01*
G01*
G37*
%TD*%
%TO.C,D5*%
G36*
G01*
X132050000Y-134990001D02*
X132050000Y-134089999D01*
G75*
G02*
X132299999Y-133840000I249999J0D01*
G01*
X132950001Y-133840000D01*
G75*
G02*
X133200000Y-134089999I0J-249999D01*
G01*
X133200000Y-134990001D01*
G75*
G02*
X132950001Y-135240000I-249999J0D01*
G01*
X132299999Y-135240000D01*
G75*
G02*
X132050000Y-134990001I0J249999D01*
G01*
G37*
G36*
G01*
X130000000Y-134990001D02*
X130000000Y-134089999D01*
G75*
G02*
X130249999Y-133840000I249999J0D01*
G01*
X130900001Y-133840000D01*
G75*
G02*
X131150000Y-134089999I0J-249999D01*
G01*
X131150000Y-134990001D01*
G75*
G02*
X130900001Y-135240000I-249999J0D01*
G01*
X130249999Y-135240000D01*
G75*
G02*
X130000000Y-134990001I0J249999D01*
G01*
G37*
%TD*%
%TO.C,D4*%
G36*
G01*
X123850000Y-135390001D02*
X123850000Y-134489999D01*
G75*
G02*
X124099999Y-134240000I249999J0D01*
G01*
X124750001Y-134240000D01*
G75*
G02*
X125000000Y-134489999I0J-249999D01*
G01*
X125000000Y-135390001D01*
G75*
G02*
X124750001Y-135640000I-249999J0D01*
G01*
X124099999Y-135640000D01*
G75*
G02*
X123850000Y-135390001I0J249999D01*
G01*
G37*
G36*
G01*
X121800000Y-135390001D02*
X121800000Y-134489999D01*
G75*
G02*
X122049999Y-134240000I249999J0D01*
G01*
X122700001Y-134240000D01*
G75*
G02*
X122950000Y-134489999I0J-249999D01*
G01*
X122950000Y-135390001D01*
G75*
G02*
X122700001Y-135640000I-249999J0D01*
G01*
X122049999Y-135640000D01*
G75*
G02*
X121800000Y-135390001I0J249999D01*
G01*
G37*
%TD*%
%TO.C,D3*%
G36*
G01*
X115625000Y-135590001D02*
X115625000Y-134689999D01*
G75*
G02*
X115874999Y-134440000I249999J0D01*
G01*
X116525001Y-134440000D01*
G75*
G02*
X116775000Y-134689999I0J-249999D01*
G01*
X116775000Y-135590001D01*
G75*
G02*
X116525001Y-135840000I-249999J0D01*
G01*
X115874999Y-135840000D01*
G75*
G02*
X115625000Y-135590001I0J249999D01*
G01*
G37*
G36*
G01*
X113575000Y-135590001D02*
X113575000Y-134689999D01*
G75*
G02*
X113824999Y-134440000I249999J0D01*
G01*
X114475001Y-134440000D01*
G75*
G02*
X114725000Y-134689999I0J-249999D01*
G01*
X114725000Y-135590001D01*
G75*
G02*
X114475001Y-135840000I-249999J0D01*
G01*
X113824999Y-135840000D01*
G75*
G02*
X113575000Y-135590001I0J249999D01*
G01*
G37*
%TD*%
%TO.C,D2*%
G36*
G01*
X107450000Y-135390001D02*
X107450000Y-134489999D01*
G75*
G02*
X107699999Y-134240000I249999J0D01*
G01*
X108350001Y-134240000D01*
G75*
G02*
X108600000Y-134489999I0J-249999D01*
G01*
X108600000Y-135390001D01*
G75*
G02*
X108350001Y-135640000I-249999J0D01*
G01*
X107699999Y-135640000D01*
G75*
G02*
X107450000Y-135390001I0J249999D01*
G01*
G37*
G36*
G01*
X105400000Y-135390001D02*
X105400000Y-134489999D01*
G75*
G02*
X105649999Y-134240000I249999J0D01*
G01*
X106300001Y-134240000D01*
G75*
G02*
X106550000Y-134489999I0J-249999D01*
G01*
X106550000Y-135390001D01*
G75*
G02*
X106300001Y-135640000I-249999J0D01*
G01*
X105649999Y-135640000D01*
G75*
G02*
X105400000Y-135390001I0J249999D01*
G01*
G37*
%TD*%
%TO.C,D1*%
G36*
G01*
X113150000Y-111289999D02*
X113150000Y-112190001D01*
G75*
G02*
X112900001Y-112440000I-249999J0D01*
G01*
X112249999Y-112440000D01*
G75*
G02*
X112000000Y-112190001I0J249999D01*
G01*
X112000000Y-111289999D01*
G75*
G02*
X112249999Y-111040000I249999J0D01*
G01*
X112900001Y-111040000D01*
G75*
G02*
X113150000Y-111289999I0J-249999D01*
G01*
G37*
G36*
G01*
X115200000Y-111289999D02*
X115200000Y-112190001D01*
G75*
G02*
X114950001Y-112440000I-249999J0D01*
G01*
X114299999Y-112440000D01*
G75*
G02*
X114050000Y-112190001I0J249999D01*
G01*
X114050000Y-111289999D01*
G75*
G02*
X114299999Y-111040000I249999J0D01*
G01*
X114950001Y-111040000D01*
G75*
G02*
X115200000Y-111289999I0J-249999D01*
G01*
G37*
%TD*%
%TO.C,C5*%
G36*
G01*
X126600000Y-111740000D02*
X126600000Y-113740000D01*
G75*
G02*
X126350000Y-113990000I-250000J0D01*
G01*
X122850000Y-113990000D01*
G75*
G02*
X122600000Y-113740000I0J250000D01*
G01*
X122600000Y-111740000D01*
G75*
G02*
X122850000Y-111490000I250000J0D01*
G01*
X126350000Y-111490000D01*
G75*
G02*
X126600000Y-111740000I0J-250000D01*
G01*
G37*
G36*
G01*
X134600000Y-111740000D02*
X134600000Y-113740000D01*
G75*
G02*
X134350000Y-113990000I-250000J0D01*
G01*
X130850000Y-113990000D01*
G75*
G02*
X130600000Y-113740000I0J250000D01*
G01*
X130600000Y-111740000D01*
G75*
G02*
X130850000Y-111490000I250000J0D01*
G01*
X134350000Y-111490000D01*
G75*
G02*
X134600000Y-111740000I0J-250000D01*
G01*
G37*
%TD*%
%TO.C,C4*%
G36*
G01*
X137250000Y-123615000D02*
X137250000Y-122665000D01*
G75*
G02*
X137500000Y-122415000I250000J0D01*
G01*
X138175000Y-122415000D01*
G75*
G02*
X138425000Y-122665000I0J-250000D01*
G01*
X138425000Y-123615000D01*
G75*
G02*
X138175000Y-123865000I-250000J0D01*
G01*
X137500000Y-123865000D01*
G75*
G02*
X137250000Y-123615000I0J250000D01*
G01*
G37*
G36*
G01*
X135175000Y-123615000D02*
X135175000Y-122665000D01*
G75*
G02*
X135425000Y-122415000I250000J0D01*
G01*
X136100000Y-122415000D01*
G75*
G02*
X136350000Y-122665000I0J-250000D01*
G01*
X136350000Y-123615000D01*
G75*
G02*
X136100000Y-123865000I-250000J0D01*
G01*
X135425000Y-123865000D01*
G75*
G02*
X135175000Y-123615000I0J250000D01*
G01*
G37*
%TD*%
%TO.C,C3*%
G36*
G01*
X135725000Y-129552500D02*
X136675000Y-129552500D01*
G75*
G02*
X136925000Y-129802500I0J-250000D01*
G01*
X136925000Y-130477500D01*
G75*
G02*
X136675000Y-130727500I-250000J0D01*
G01*
X135725000Y-130727500D01*
G75*
G02*
X135475000Y-130477500I0J250000D01*
G01*
X135475000Y-129802500D01*
G75*
G02*
X135725000Y-129552500I250000J0D01*
G01*
G37*
G36*
G01*
X135725000Y-127477500D02*
X136675000Y-127477500D01*
G75*
G02*
X136925000Y-127727500I0J-250000D01*
G01*
X136925000Y-128402500D01*
G75*
G02*
X136675000Y-128652500I-250000J0D01*
G01*
X135725000Y-128652500D01*
G75*
G02*
X135475000Y-128402500I0J250000D01*
G01*
X135475000Y-127727500D01*
G75*
G02*
X135725000Y-127477500I250000J0D01*
G01*
G37*
%TD*%
%TO.C,C2*%
G36*
G01*
X122175000Y-122690000D02*
X121225000Y-122690000D01*
G75*
G02*
X120975000Y-122440000I0J250000D01*
G01*
X120975000Y-121765000D01*
G75*
G02*
X121225000Y-121515000I250000J0D01*
G01*
X122175000Y-121515000D01*
G75*
G02*
X122425000Y-121765000I0J-250000D01*
G01*
X122425000Y-122440000D01*
G75*
G02*
X122175000Y-122690000I-250000J0D01*
G01*
G37*
G36*
G01*
X122175000Y-124765000D02*
X121225000Y-124765000D01*
G75*
G02*
X120975000Y-124515000I0J250000D01*
G01*
X120975000Y-123840000D01*
G75*
G02*
X121225000Y-123590000I250000J0D01*
G01*
X122175000Y-123590000D01*
G75*
G02*
X122425000Y-123840000I0J-250000D01*
G01*
X122425000Y-124515000D01*
G75*
G02*
X122175000Y-124765000I-250000J0D01*
G01*
G37*
%TD*%
%TO.C,C1*%
G36*
G01*
X121525000Y-131227500D02*
X122475000Y-131227500D01*
G75*
G02*
X122725000Y-131477500I0J-250000D01*
G01*
X122725000Y-132152500D01*
G75*
G02*
X122475000Y-132402500I-250000J0D01*
G01*
X121525000Y-132402500D01*
G75*
G02*
X121275000Y-132152500I0J250000D01*
G01*
X121275000Y-131477500D01*
G75*
G02*
X121525000Y-131227500I250000J0D01*
G01*
G37*
G36*
G01*
X121525000Y-129152500D02*
X122475000Y-129152500D01*
G75*
G02*
X122725000Y-129402500I0J-250000D01*
G01*
X122725000Y-130077500D01*
G75*
G02*
X122475000Y-130327500I-250000J0D01*
G01*
X121525000Y-130327500D01*
G75*
G02*
X121275000Y-130077500I0J250000D01*
G01*
X121275000Y-129402500D01*
G75*
G02*
X121525000Y-129152500I250000J0D01*
G01*
G37*
%TD*%
M02*
