M48
; DRILL file {KiCad (5.1.10)-1} date 04/08/22 18:55:16
; FORMAT={-:-/ absolute / metric / decimal}
; #@! TF.CreationDate,2022-04-08T18:55:16+02:00
; #@! TF.GenerationSoftware,Kicad,Pcbnew,(5.1.10)-1
; #@! TF.FileFunction,Plated,1,2,PTH
FMAT,2
METRIC
T1C0.400
T2C1.000
T3C1.100
T4C1.320
T5C1.500
%
G90
G05
T1
X102.8Y-141.59
X103.2Y-107.84
X105.2Y-111.24
X108.45Y-141.44
X109.7Y-138.24
X111.3Y-141.44
X114.55Y-141.44
X114.65Y-113.64
X115.05Y-107.39
X119.2Y-109.74
X119.4Y-141.54
X121.4Y-113.89
X121.9Y-107.24
X122.6Y-109.54
X123.35Y-141.44
X124.0Y-121.14
X124.2Y-109.54
X125.6Y-109.54
X125.7Y-138.24
X127.5Y-141.49
X129.3Y-122.19
X129.35Y-119.89
X129.8Y-110.99
X131.15Y-141.54
X131.25Y-115.64
X132.45Y-119.69
X133.35Y-109.49
X133.7Y-138.24
X134.55Y-130.59
X134.7Y-115.49
X135.25Y-141.54
X135.35Y-134.39
X136.75Y-114.34
X136.9Y-110.09
X139.25Y-136.69
X139.3Y-141.54
X139.45Y-129.99
X140.0Y-116.74
X140.55Y-119.04
X141.7Y-138.24
X142.6Y-110.99
X142.7Y-116.24
X143.0Y-123.34
X143.3Y-141.54
X143.65Y-130.14
X143.65Y-135.69
X146.2Y-116.14
X147.15Y-141.49
X148.2Y-129.74
X149.7Y-138.24
X151.0Y-126.84
X151.45Y-141.49
X151.95Y-134.54
X152.6Y-119.94
X152.6Y-121.59
X152.65Y-118.49
X155.25Y-141.69
X155.85Y-130.89
X157.5Y-138.24
X159.05Y-120.04
X159.05Y-123.29
X159.1Y-121.59
X159.15Y-141.54
X163.05Y-141.49
X163.9Y-122.79
X165.3Y-138.24
X166.8Y-141.54
X167.75Y-122.69
T2
X120.396Y-104.14
X122.936Y-104.14
X125.476Y-104.14
X128.016Y-104.14
X129.54Y-152.4
X130.556Y-104.14
X132.08Y-152.4
X133.096Y-104.14
X134.62Y-152.4
X135.636Y-104.14
X137.16Y-152.4
X138.176Y-104.14
X139.7Y-152.4
X140.716Y-104.14
X142.24Y-152.4
X143.256Y-104.14
X144.78Y-152.4
X147.32Y-104.14
X147.32Y-152.4
X149.86Y-104.14
X152.4Y-104.14
X152.4Y-152.4
X154.94Y-104.14
X154.94Y-152.4
X157.48Y-104.14
X157.48Y-152.4
X160.02Y-104.14
X160.02Y-152.4
X162.56Y-104.14
X162.56Y-152.4
X165.1Y-104.14
X165.1Y-152.4
T3
X105.2Y-138.24
X105.2Y-144.74
X109.7Y-138.24
X109.7Y-144.74
X113.0Y-138.24
X113.0Y-144.74
X117.5Y-138.24
X117.5Y-144.74
X121.2Y-138.24
X121.2Y-144.74
X125.7Y-138.24
X125.7Y-144.74
X129.2Y-138.24
X129.2Y-144.74
X133.7Y-138.24
X133.7Y-144.74
X137.2Y-138.24
X137.2Y-144.74
X141.7Y-138.24
X141.7Y-144.74
X145.2Y-138.24
X145.2Y-144.74
X149.7Y-138.24
X149.7Y-144.74
X153.0Y-138.24
X153.0Y-144.74
X157.5Y-138.24
X157.5Y-144.74
X160.8Y-138.24
X160.8Y-144.74
X165.3Y-138.24
X165.3Y-144.74
T4
X162.6Y-125.44
X162.6Y-130.44
T5
X152.1Y-107.84
X152.1Y-115.94
X161.1Y-107.84
T0
M30
