%TF.GenerationSoftware,KiCad,Pcbnew,(5.1.10)-1*%
%TF.CreationDate,2022-04-08T18:55:06+02:00*%
%TF.ProjectId,shield_Arduino,73686965-6c64-45f4-9172-6475696e6f2e,rev?*%
%TF.SameCoordinates,Original*%
%TF.FileFunction,Legend,Top*%
%TF.FilePolarity,Positive*%
%FSLAX46Y46*%
G04 Gerber Fmt 4.6, Leading zero omitted, Abs format (unit mm)*
G04 Created by KiCad (PCBNEW (5.1.10)-1) date 2022-04-08 18:55:06*
%MOMM*%
%LPD*%
G01*
G04 APERTURE LIST*
%ADD10C,0.150000*%
%ADD11C,0.120000*%
G04 APERTURE END LIST*
D10*
X105385714Y-130067380D02*
X105385714Y-129067380D01*
X105623809Y-129067380D01*
X105766666Y-129115000D01*
X105861904Y-129210238D01*
X105909523Y-129305476D01*
X105957142Y-129495952D01*
X105957142Y-129638809D01*
X105909523Y-129829285D01*
X105861904Y-129924523D01*
X105766666Y-130019761D01*
X105623809Y-130067380D01*
X105385714Y-130067380D01*
X106766666Y-130019761D02*
X106671428Y-130067380D01*
X106480952Y-130067380D01*
X106385714Y-130019761D01*
X106338095Y-129924523D01*
X106338095Y-129543571D01*
X106385714Y-129448333D01*
X106480952Y-129400714D01*
X106671428Y-129400714D01*
X106766666Y-129448333D01*
X106814285Y-129543571D01*
X106814285Y-129638809D01*
X106338095Y-129734047D01*
X107195238Y-130019761D02*
X107290476Y-130067380D01*
X107480952Y-130067380D01*
X107576190Y-130019761D01*
X107623809Y-129924523D01*
X107623809Y-129876904D01*
X107576190Y-129781666D01*
X107480952Y-129734047D01*
X107338095Y-129734047D01*
X107242857Y-129686428D01*
X107195238Y-129591190D01*
X107195238Y-129543571D01*
X107242857Y-129448333D01*
X107338095Y-129400714D01*
X107480952Y-129400714D01*
X107576190Y-129448333D01*
X108052380Y-130067380D02*
X108052380Y-129400714D01*
X108052380Y-129067380D02*
X108004761Y-129115000D01*
X108052380Y-129162619D01*
X108100000Y-129115000D01*
X108052380Y-129067380D01*
X108052380Y-129162619D01*
X108957142Y-129400714D02*
X108957142Y-130210238D01*
X108909523Y-130305476D01*
X108861904Y-130353095D01*
X108766666Y-130400714D01*
X108623809Y-130400714D01*
X108528571Y-130353095D01*
X108957142Y-130019761D02*
X108861904Y-130067380D01*
X108671428Y-130067380D01*
X108576190Y-130019761D01*
X108528571Y-129972142D01*
X108480952Y-129876904D01*
X108480952Y-129591190D01*
X108528571Y-129495952D01*
X108576190Y-129448333D01*
X108671428Y-129400714D01*
X108861904Y-129400714D01*
X108957142Y-129448333D01*
X109433333Y-129400714D02*
X109433333Y-130067380D01*
X109433333Y-129495952D02*
X109480952Y-129448333D01*
X109576190Y-129400714D01*
X109719047Y-129400714D01*
X109814285Y-129448333D01*
X109861904Y-129543571D01*
X109861904Y-130067380D01*
X110719047Y-130019761D02*
X110623809Y-130067380D01*
X110433333Y-130067380D01*
X110338095Y-130019761D01*
X110290476Y-129924523D01*
X110290476Y-129543571D01*
X110338095Y-129448333D01*
X110433333Y-129400714D01*
X110623809Y-129400714D01*
X110719047Y-129448333D01*
X110766666Y-129543571D01*
X110766666Y-129638809D01*
X110290476Y-129734047D01*
X111623809Y-130067380D02*
X111623809Y-129067380D01*
X111623809Y-130019761D02*
X111528571Y-130067380D01*
X111338095Y-130067380D01*
X111242857Y-130019761D01*
X111195238Y-129972142D01*
X111147619Y-129876904D01*
X111147619Y-129591190D01*
X111195238Y-129495952D01*
X111242857Y-129448333D01*
X111338095Y-129400714D01*
X111528571Y-129400714D01*
X111623809Y-129448333D01*
X112861904Y-130067380D02*
X112861904Y-129067380D01*
X112861904Y-129448333D02*
X112957142Y-129400714D01*
X113147619Y-129400714D01*
X113242857Y-129448333D01*
X113290476Y-129495952D01*
X113338095Y-129591190D01*
X113338095Y-129876904D01*
X113290476Y-129972142D01*
X113242857Y-130019761D01*
X113147619Y-130067380D01*
X112957142Y-130067380D01*
X112861904Y-130019761D01*
X113671428Y-129400714D02*
X113909523Y-130067380D01*
X114147619Y-129400714D02*
X113909523Y-130067380D01*
X113814285Y-130305476D01*
X113766666Y-130353095D01*
X113671428Y-130400714D01*
X103123809Y-131717380D02*
X103123809Y-130717380D01*
X103457142Y-131431666D01*
X103790476Y-130717380D01*
X103790476Y-131717380D01*
X104695238Y-131717380D02*
X104695238Y-131193571D01*
X104647619Y-131098333D01*
X104552380Y-131050714D01*
X104361904Y-131050714D01*
X104266666Y-131098333D01*
X104695238Y-131669761D02*
X104600000Y-131717380D01*
X104361904Y-131717380D01*
X104266666Y-131669761D01*
X104219047Y-131574523D01*
X104219047Y-131479285D01*
X104266666Y-131384047D01*
X104361904Y-131336428D01*
X104600000Y-131336428D01*
X104695238Y-131288809D01*
X105028571Y-131050714D02*
X105409523Y-131050714D01*
X105171428Y-130717380D02*
X105171428Y-131574523D01*
X105219047Y-131669761D01*
X105314285Y-131717380D01*
X105409523Y-131717380D01*
X106123809Y-131669761D02*
X106028571Y-131717380D01*
X105838095Y-131717380D01*
X105742857Y-131669761D01*
X105695238Y-131574523D01*
X105695238Y-131193571D01*
X105742857Y-131098333D01*
X105838095Y-131050714D01*
X106028571Y-131050714D01*
X106123809Y-131098333D01*
X106171428Y-131193571D01*
X106171428Y-131288809D01*
X105695238Y-131384047D01*
X107028571Y-131050714D02*
X107028571Y-131717380D01*
X106600000Y-131050714D02*
X106600000Y-131574523D01*
X106647619Y-131669761D01*
X106742857Y-131717380D01*
X106885714Y-131717380D01*
X106980952Y-131669761D01*
X107028571Y-131622142D01*
X107457142Y-131669761D02*
X107552380Y-131717380D01*
X107742857Y-131717380D01*
X107838095Y-131669761D01*
X107885714Y-131574523D01*
X107885714Y-131526904D01*
X107838095Y-131431666D01*
X107742857Y-131384047D01*
X107600000Y-131384047D01*
X107504761Y-131336428D01*
X107457142Y-131241190D01*
X107457142Y-131193571D01*
X107504761Y-131098333D01*
X107600000Y-131050714D01*
X107742857Y-131050714D01*
X107838095Y-131098333D01*
X108219047Y-131050714D02*
X108742857Y-131050714D01*
X108219047Y-131717380D01*
X108742857Y-131717380D01*
X109790476Y-130717380D02*
X110028571Y-131717380D01*
X110219047Y-131003095D01*
X110409523Y-131717380D01*
X110647619Y-130717380D01*
X111171428Y-131717380D02*
X111076190Y-131669761D01*
X111028571Y-131622142D01*
X110980952Y-131526904D01*
X110980952Y-131241190D01*
X111028571Y-131145952D01*
X111076190Y-131098333D01*
X111171428Y-131050714D01*
X111314285Y-131050714D01*
X111409523Y-131098333D01*
X111457142Y-131145952D01*
X111504761Y-131241190D01*
X111504761Y-131526904D01*
X111457142Y-131622142D01*
X111409523Y-131669761D01*
X111314285Y-131717380D01*
X111171428Y-131717380D01*
X111933333Y-131717380D02*
X111933333Y-131050714D01*
X111933333Y-131241190D02*
X111980952Y-131145952D01*
X112028571Y-131098333D01*
X112123809Y-131050714D01*
X112219047Y-131050714D01*
X112695238Y-131717380D02*
X112600000Y-131669761D01*
X112552380Y-131622142D01*
X112504761Y-131526904D01*
X112504761Y-131241190D01*
X112552380Y-131145952D01*
X112600000Y-131098333D01*
X112695238Y-131050714D01*
X112838095Y-131050714D01*
X112933333Y-131098333D01*
X112980952Y-131145952D01*
X113028571Y-131241190D01*
X113028571Y-131526904D01*
X112980952Y-131622142D01*
X112933333Y-131669761D01*
X112838095Y-131717380D01*
X112695238Y-131717380D01*
X113314285Y-131050714D02*
X113695238Y-131050714D01*
X113457142Y-130717380D02*
X113457142Y-131574523D01*
X113504761Y-131669761D01*
X113600000Y-131717380D01*
X113695238Y-131717380D01*
X114028571Y-131050714D02*
X114028571Y-131717380D01*
X114028571Y-131145952D02*
X114076190Y-131098333D01*
X114171428Y-131050714D01*
X114314285Y-131050714D01*
X114409523Y-131098333D01*
X114457142Y-131193571D01*
X114457142Y-131717380D01*
X114933333Y-131717380D02*
X114933333Y-131050714D01*
X114933333Y-130717380D02*
X114885714Y-130765000D01*
X114933333Y-130812619D01*
X114980952Y-130765000D01*
X114933333Y-130717380D01*
X114933333Y-130812619D01*
X115838095Y-131669761D02*
X115742857Y-131717380D01*
X115552380Y-131717380D01*
X115457142Y-131669761D01*
X115409523Y-131622142D01*
X115361904Y-131526904D01*
X115361904Y-131241190D01*
X115409523Y-131145952D01*
X115457142Y-131098333D01*
X115552380Y-131050714D01*
X115742857Y-131050714D01*
X115838095Y-131098333D01*
X116266666Y-131717380D02*
X116266666Y-130717380D01*
X116361904Y-131336428D02*
X116647619Y-131717380D01*
X116647619Y-131050714D02*
X116266666Y-131431666D01*
X117076190Y-131717380D02*
X117076190Y-131050714D01*
X117076190Y-130717380D02*
X117028571Y-130765000D01*
X117076190Y-130812619D01*
X117123809Y-130765000D01*
X117076190Y-130717380D01*
X117076190Y-130812619D01*
X102459523Y-118181666D02*
X102935714Y-118181666D01*
X102364285Y-118467380D02*
X102697619Y-117467380D01*
X103030952Y-118467380D01*
X103364285Y-118467380D02*
X103364285Y-117800714D01*
X103364285Y-117991190D02*
X103411904Y-117895952D01*
X103459523Y-117848333D01*
X103554761Y-117800714D01*
X103650000Y-117800714D01*
X104411904Y-118467380D02*
X104411904Y-117467380D01*
X104411904Y-118419761D02*
X104316666Y-118467380D01*
X104126190Y-118467380D01*
X104030952Y-118419761D01*
X103983333Y-118372142D01*
X103935714Y-118276904D01*
X103935714Y-117991190D01*
X103983333Y-117895952D01*
X104030952Y-117848333D01*
X104126190Y-117800714D01*
X104316666Y-117800714D01*
X104411904Y-117848333D01*
X105316666Y-117800714D02*
X105316666Y-118467380D01*
X104888095Y-117800714D02*
X104888095Y-118324523D01*
X104935714Y-118419761D01*
X105030952Y-118467380D01*
X105173809Y-118467380D01*
X105269047Y-118419761D01*
X105316666Y-118372142D01*
X105792857Y-118467380D02*
X105792857Y-117800714D01*
X105792857Y-117467380D02*
X105745238Y-117515000D01*
X105792857Y-117562619D01*
X105840476Y-117515000D01*
X105792857Y-117467380D01*
X105792857Y-117562619D01*
X106269047Y-117800714D02*
X106269047Y-118467380D01*
X106269047Y-117895952D02*
X106316666Y-117848333D01*
X106411904Y-117800714D01*
X106554761Y-117800714D01*
X106650000Y-117848333D01*
X106697619Y-117943571D01*
X106697619Y-118467380D01*
X107316666Y-118467380D02*
X107221428Y-118419761D01*
X107173809Y-118372142D01*
X107126190Y-118276904D01*
X107126190Y-117991190D01*
X107173809Y-117895952D01*
X107221428Y-117848333D01*
X107316666Y-117800714D01*
X107459523Y-117800714D01*
X107554761Y-117848333D01*
X107602380Y-117895952D01*
X107650000Y-117991190D01*
X107650000Y-118276904D01*
X107602380Y-118372142D01*
X107554761Y-118419761D01*
X107459523Y-118467380D01*
X107316666Y-118467380D01*
X108792857Y-118181666D02*
X109269047Y-118181666D01*
X108697619Y-118467380D02*
X109030952Y-117467380D01*
X109364285Y-118467380D01*
X110126190Y-117800714D02*
X110126190Y-118467380D01*
X109697619Y-117800714D02*
X109697619Y-118324523D01*
X109745238Y-118419761D01*
X109840476Y-118467380D01*
X109983333Y-118467380D01*
X110078571Y-118419761D01*
X110126190Y-118372142D01*
X111030952Y-118467380D02*
X111030952Y-117467380D01*
X111030952Y-118419761D02*
X110935714Y-118467380D01*
X110745238Y-118467380D01*
X110650000Y-118419761D01*
X110602380Y-118372142D01*
X110554761Y-118276904D01*
X110554761Y-117991190D01*
X110602380Y-117895952D01*
X110650000Y-117848333D01*
X110745238Y-117800714D01*
X110935714Y-117800714D01*
X111030952Y-117848333D01*
X111507142Y-118467380D02*
X111507142Y-117800714D01*
X111507142Y-117467380D02*
X111459523Y-117515000D01*
X111507142Y-117562619D01*
X111554761Y-117515000D01*
X111507142Y-117467380D01*
X111507142Y-117562619D01*
X112126190Y-118467380D02*
X112030952Y-118419761D01*
X111983333Y-118372142D01*
X111935714Y-118276904D01*
X111935714Y-117991190D01*
X111983333Y-117895952D01*
X112030952Y-117848333D01*
X112126190Y-117800714D01*
X112269047Y-117800714D01*
X112364285Y-117848333D01*
X112411904Y-117895952D01*
X112459523Y-117991190D01*
X112459523Y-118276904D01*
X112411904Y-118372142D01*
X112364285Y-118419761D01*
X112269047Y-118467380D01*
X112126190Y-118467380D01*
X113602380Y-118419761D02*
X113745238Y-118467380D01*
X113983333Y-118467380D01*
X114078571Y-118419761D01*
X114126190Y-118372142D01*
X114173809Y-118276904D01*
X114173809Y-118181666D01*
X114126190Y-118086428D01*
X114078571Y-118038809D01*
X113983333Y-117991190D01*
X113792857Y-117943571D01*
X113697619Y-117895952D01*
X113650000Y-117848333D01*
X113602380Y-117753095D01*
X113602380Y-117657857D01*
X113650000Y-117562619D01*
X113697619Y-117515000D01*
X113792857Y-117467380D01*
X114030952Y-117467380D01*
X114173809Y-117515000D01*
X114602380Y-118467380D02*
X114602380Y-117467380D01*
X115030952Y-118467380D02*
X115030952Y-117943571D01*
X114983333Y-117848333D01*
X114888095Y-117800714D01*
X114745238Y-117800714D01*
X114649999Y-117848333D01*
X114602380Y-117895952D01*
X115507142Y-118467380D02*
X115507142Y-117800714D01*
X115507142Y-117467380D02*
X115459523Y-117515000D01*
X115507142Y-117562619D01*
X115554761Y-117515000D01*
X115507142Y-117467380D01*
X115507142Y-117562619D01*
X116364285Y-118419761D02*
X116269047Y-118467380D01*
X116078571Y-118467380D01*
X115983333Y-118419761D01*
X115935714Y-118324523D01*
X115935714Y-117943571D01*
X115983333Y-117848333D01*
X116078571Y-117800714D01*
X116269047Y-117800714D01*
X116364285Y-117848333D01*
X116411904Y-117943571D01*
X116411904Y-118038809D01*
X115935714Y-118134047D01*
X116983333Y-118467380D02*
X116888095Y-118419761D01*
X116840476Y-118324523D01*
X116840476Y-117467380D01*
X117792857Y-118467380D02*
X117792857Y-117467380D01*
X117792857Y-118419761D02*
X117697619Y-118467380D01*
X117507142Y-118467380D01*
X117411904Y-118419761D01*
X117364285Y-118372142D01*
X117316666Y-118276904D01*
X117316666Y-117991190D01*
X117364285Y-117895952D01*
X117411904Y-117848333D01*
X117507142Y-117800714D01*
X117697619Y-117800714D01*
X117792857Y-117848333D01*
X108102380Y-119450714D02*
X108340476Y-120117380D01*
X108578571Y-119450714D01*
X108959523Y-120022142D02*
X109007142Y-120069761D01*
X108959523Y-120117380D01*
X108911904Y-120069761D01*
X108959523Y-120022142D01*
X108959523Y-120117380D01*
X110721428Y-120117380D02*
X110150000Y-120117380D01*
X110435714Y-120117380D02*
X110435714Y-119117380D01*
X110340476Y-119260238D01*
X110245238Y-119355476D01*
X110150000Y-119403095D01*
X111150000Y-120022142D02*
X111197619Y-120069761D01*
X111150000Y-120117380D01*
X111102380Y-120069761D01*
X111150000Y-120022142D01*
X111150000Y-120117380D01*
X111816666Y-119117380D02*
X111911904Y-119117380D01*
X112007142Y-119165000D01*
X112054761Y-119212619D01*
X112102380Y-119307857D01*
X112150000Y-119498333D01*
X112150000Y-119736428D01*
X112102380Y-119926904D01*
X112054761Y-120022142D01*
X112007142Y-120069761D01*
X111911904Y-120117380D01*
X111816666Y-120117380D01*
X111721428Y-120069761D01*
X111673809Y-120022142D01*
X111626190Y-119926904D01*
X111578571Y-119736428D01*
X111578571Y-119498333D01*
X111626190Y-119307857D01*
X111673809Y-119212619D01*
X111721428Y-119165000D01*
X111816666Y-119117380D01*
D11*
%TO.C,Q1*%
X140890000Y-120640000D02*
X140890000Y-114630000D01*
X147710000Y-118390000D02*
X147710000Y-114630000D01*
X140890000Y-114630000D02*
X142150000Y-114630000D01*
X147710000Y-114630000D02*
X146450000Y-114630000D01*
%TO.C,R10*%
X131372936Y-148275000D02*
X131827064Y-148275000D01*
X131372936Y-146805000D02*
X131827064Y-146805000D01*
%TO.C,R11*%
X139172936Y-148275000D02*
X139627064Y-148275000D01*
X139172936Y-146805000D02*
X139627064Y-146805000D01*
%TO.C,R7*%
X107227064Y-147005000D02*
X106772936Y-147005000D01*
X107227064Y-148475000D02*
X106772936Y-148475000D01*
%TO.C,SW1*%
X108200000Y-137990000D02*
X106700000Y-137990000D01*
X104200000Y-139240000D02*
X104200000Y-143740000D01*
X106700000Y-144990000D02*
X108200000Y-144990000D01*
X110700000Y-143740000D02*
X110700000Y-139240000D01*
%TO.C,LS1*%
X156300000Y-122240000D02*
X156300000Y-133090000D01*
X161400000Y-122240000D02*
X156300000Y-122240000D01*
X161100000Y-122740000D02*
X161400000Y-122240000D01*
X166500000Y-122740000D02*
X161100000Y-122740000D01*
X166250000Y-122240000D02*
X166500000Y-122740000D01*
X166300000Y-122240000D02*
X166250000Y-122240000D01*
X168200000Y-122240000D02*
X166300000Y-122240000D01*
X167950000Y-122740000D02*
X168200000Y-122240000D01*
X168900000Y-122740000D02*
X167950000Y-122740000D01*
X168900000Y-133090000D02*
X168900000Y-122740000D01*
X156300000Y-133090000D02*
X168900000Y-133090000D01*
%TO.C,U1*%
X128800000Y-121980000D02*
X125350000Y-121980000D01*
X128800000Y-121980000D02*
X130750000Y-121980000D01*
X128800000Y-127100000D02*
X126850000Y-127100000D01*
X128800000Y-127100000D02*
X130750000Y-127100000D01*
%TO.C,SW8*%
X163800000Y-137990000D02*
X162300000Y-137990000D01*
X159800000Y-139240000D02*
X159800000Y-143740000D01*
X162300000Y-144990000D02*
X163800000Y-144990000D01*
X166300000Y-143740000D02*
X166300000Y-139240000D01*
%TO.C,SW7*%
X156000000Y-137990000D02*
X154500000Y-137990000D01*
X152000000Y-139240000D02*
X152000000Y-143740000D01*
X154500000Y-144990000D02*
X156000000Y-144990000D01*
X158500000Y-143740000D02*
X158500000Y-139240000D01*
%TO.C,SW6*%
X148200000Y-137990000D02*
X146700000Y-137990000D01*
X144200000Y-139240000D02*
X144200000Y-143740000D01*
X146700000Y-144990000D02*
X148200000Y-144990000D01*
X150700000Y-143740000D02*
X150700000Y-139240000D01*
%TO.C,SW5*%
X140200000Y-137990000D02*
X138700000Y-137990000D01*
X136200000Y-139240000D02*
X136200000Y-143740000D01*
X138700000Y-144990000D02*
X140200000Y-144990000D01*
X142700000Y-143740000D02*
X142700000Y-139240000D01*
%TO.C,SW4*%
X132200000Y-137990000D02*
X130700000Y-137990000D01*
X128200000Y-139240000D02*
X128200000Y-143740000D01*
X130700000Y-144990000D02*
X132200000Y-144990000D01*
X134700000Y-143740000D02*
X134700000Y-139240000D01*
%TO.C,SW3*%
X124200000Y-137990000D02*
X122700000Y-137990000D01*
X120200000Y-139240000D02*
X120200000Y-143740000D01*
X122700000Y-144990000D02*
X124200000Y-144990000D01*
X126700000Y-143740000D02*
X126700000Y-139240000D01*
%TO.C,SW2*%
X116000000Y-137990000D02*
X114500000Y-137990000D01*
X112000000Y-139240000D02*
X112000000Y-143740000D01*
X114500000Y-144990000D02*
X116000000Y-144990000D01*
X118500000Y-143740000D02*
X118500000Y-139240000D01*
%TO.C,R14*%
X162572936Y-148275000D02*
X163027064Y-148275000D01*
X162572936Y-146805000D02*
X163027064Y-146805000D01*
%TO.C,R13*%
X154772936Y-148275000D02*
X155227064Y-148275000D01*
X154772936Y-146805000D02*
X155227064Y-146805000D01*
%TO.C,R12*%
X147372936Y-148275000D02*
X147827064Y-148275000D01*
X147372936Y-146805000D02*
X147827064Y-146805000D01*
%TO.C,R9*%
X123172936Y-148275000D02*
X123627064Y-148275000D01*
X123172936Y-146805000D02*
X123627064Y-146805000D01*
%TO.C,R8*%
X115427064Y-146805000D02*
X114972936Y-146805000D01*
X115427064Y-148275000D02*
X114972936Y-148275000D01*
%TO.C,R6*%
X118427064Y-111005000D02*
X117972936Y-111005000D01*
X118427064Y-112475000D02*
X117972936Y-112475000D01*
%TO.C,R5*%
X136572936Y-121475000D02*
X137027064Y-121475000D01*
X136572936Y-120005000D02*
X137027064Y-120005000D01*
%TO.C,R4*%
X136572936Y-126275000D02*
X137027064Y-126275000D01*
X136572936Y-124805000D02*
X137027064Y-124805000D01*
%TO.C,R3*%
X141772936Y-126275000D02*
X142227064Y-126275000D01*
X141772936Y-124805000D02*
X142227064Y-124805000D01*
%TO.C,R2*%
X119572936Y-127675000D02*
X120027064Y-127675000D01*
X119572936Y-126205000D02*
X120027064Y-126205000D01*
%TO.C,R1*%
X119535000Y-123367064D02*
X119535000Y-122912936D01*
X118065000Y-123367064D02*
X118065000Y-122912936D01*
%TO.C,J5*%
X166700000Y-107740000D02*
X164200000Y-107740000D01*
X166700000Y-115940000D02*
X166700000Y-107740000D01*
X164200000Y-115940000D02*
X166700000Y-115940000D01*
X163200000Y-115940000D02*
X164100000Y-115940000D01*
X164200000Y-107740000D02*
X162400000Y-107740000D01*
X157700000Y-107840000D02*
X159800000Y-107840000D01*
X152100000Y-114640000D02*
X152100000Y-109100000D01*
X164200000Y-115940000D02*
X164100000Y-115940000D01*
X164200000Y-107840000D02*
X164200000Y-115940000D01*
X164200000Y-107740000D02*
X164200000Y-107840000D01*
X153400000Y-115940000D02*
X161000000Y-115940000D01*
X153360000Y-107840000D02*
X155500000Y-107840000D01*
%TO.C,J4*%
X128210000Y-153730000D02*
X128210000Y-152400000D01*
X129540000Y-153730000D02*
X128210000Y-153730000D01*
X130810000Y-153730000D02*
X130810000Y-151070000D01*
X130810000Y-151070000D02*
X148650000Y-151070000D01*
X130810000Y-153730000D02*
X148650000Y-153730000D01*
X148650000Y-153730000D02*
X148650000Y-151070000D01*
%TO.C,J3*%
X151070000Y-153730000D02*
X151070000Y-152400000D01*
X152400000Y-153730000D02*
X151070000Y-153730000D01*
X153670000Y-153730000D02*
X153670000Y-151070000D01*
X153670000Y-151070000D02*
X166430000Y-151070000D01*
X153670000Y-153730000D02*
X166430000Y-153730000D01*
X166430000Y-153730000D02*
X166430000Y-151070000D01*
%TO.C,J2*%
X166430000Y-102810000D02*
X166430000Y-104140000D01*
X165100000Y-102810000D02*
X166430000Y-102810000D01*
X163830000Y-102810000D02*
X163830000Y-105470000D01*
X163830000Y-105470000D02*
X145990000Y-105470000D01*
X163830000Y-102810000D02*
X145990000Y-102810000D01*
X145990000Y-102810000D02*
X145990000Y-105470000D01*
%TO.C,J1*%
X144586000Y-102810000D02*
X144586000Y-104140000D01*
X143256000Y-102810000D02*
X144586000Y-102810000D01*
X141986000Y-102810000D02*
X141986000Y-105470000D01*
X141986000Y-105470000D02*
X119066000Y-105470000D01*
X141986000Y-102810000D02*
X119066000Y-102810000D01*
X119066000Y-102810000D02*
X119066000Y-105470000D01*
%TO.C,D9*%
X160940000Y-135500000D02*
X163800000Y-135500000D01*
X160940000Y-133580000D02*
X160940000Y-135500000D01*
X163800000Y-133580000D02*
X160940000Y-133580000D01*
%TO.C,D8*%
X153140000Y-135500000D02*
X156000000Y-135500000D01*
X153140000Y-133580000D02*
X153140000Y-135500000D01*
X156000000Y-133580000D02*
X153140000Y-133580000D01*
%TO.C,D7*%
X145740000Y-135500000D02*
X148600000Y-135500000D01*
X145740000Y-133580000D02*
X145740000Y-135500000D01*
X148600000Y-133580000D02*
X145740000Y-133580000D01*
%TO.C,D6*%
X137540000Y-135500000D02*
X140400000Y-135500000D01*
X137540000Y-133580000D02*
X137540000Y-135500000D01*
X140400000Y-133580000D02*
X137540000Y-133580000D01*
%TO.C,D5*%
X129740000Y-135500000D02*
X132600000Y-135500000D01*
X129740000Y-133580000D02*
X129740000Y-135500000D01*
X132600000Y-133580000D02*
X129740000Y-133580000D01*
%TO.C,D4*%
X121540000Y-135900000D02*
X124400000Y-135900000D01*
X121540000Y-133980000D02*
X121540000Y-135900000D01*
X124400000Y-133980000D02*
X121540000Y-133980000D01*
%TO.C,D3*%
X113315000Y-136100000D02*
X116175000Y-136100000D01*
X113315000Y-134180000D02*
X113315000Y-136100000D01*
X116175000Y-134180000D02*
X113315000Y-134180000D01*
%TO.C,D2*%
X105140000Y-135900000D02*
X108000000Y-135900000D01*
X105140000Y-133980000D02*
X105140000Y-135900000D01*
X108000000Y-133980000D02*
X105140000Y-133980000D01*
%TO.C,D1*%
X115460000Y-110780000D02*
X112600000Y-110780000D01*
X115460000Y-112700000D02*
X115460000Y-110780000D01*
X112600000Y-112700000D02*
X115460000Y-112700000D01*
%TO.C,C5*%
X134725000Y-116125000D02*
X134725000Y-114875000D01*
X135350000Y-115500000D02*
X134100000Y-115500000D01*
X133860000Y-108544437D02*
X132795563Y-107480000D01*
X133860000Y-116935563D02*
X132795563Y-118000000D01*
X133860000Y-116935563D02*
X133860000Y-114250000D01*
X133860000Y-108544437D02*
X133860000Y-111230000D01*
X132795563Y-107480000D02*
X123340000Y-107480000D01*
X132795563Y-118000000D02*
X123340000Y-118000000D01*
X123340000Y-118000000D02*
X123340000Y-114250000D01*
X123340000Y-107480000D02*
X123340000Y-111230000D01*
%TO.C,C4*%
X136538748Y-123875000D02*
X137061252Y-123875000D01*
X136538748Y-122405000D02*
X137061252Y-122405000D01*
%TO.C,C3*%
X135465000Y-128841248D02*
X135465000Y-129363752D01*
X136935000Y-128841248D02*
X136935000Y-129363752D01*
%TO.C,C2*%
X122435000Y-123401252D02*
X122435000Y-122878748D01*
X120965000Y-123401252D02*
X120965000Y-122878748D01*
%TO.C,C1*%
X121265000Y-130516248D02*
X121265000Y-131038752D01*
X122735000Y-130516248D02*
X122735000Y-131038752D01*
%TO.C,Q1*%
D10*
X139404761Y-115787619D02*
X139309523Y-115740000D01*
X139214285Y-115644761D01*
X139071428Y-115501904D01*
X138976190Y-115454285D01*
X138880952Y-115454285D01*
X138928571Y-115692380D02*
X138833333Y-115644761D01*
X138738095Y-115549523D01*
X138690476Y-115359047D01*
X138690476Y-115025714D01*
X138738095Y-114835238D01*
X138833333Y-114740000D01*
X138928571Y-114692380D01*
X139119047Y-114692380D01*
X139214285Y-114740000D01*
X139309523Y-114835238D01*
X139357142Y-115025714D01*
X139357142Y-115359047D01*
X139309523Y-115549523D01*
X139214285Y-115644761D01*
X139119047Y-115692380D01*
X138928571Y-115692380D01*
X140309523Y-115692380D02*
X139738095Y-115692380D01*
X140023809Y-115692380D02*
X140023809Y-114692380D01*
X139928571Y-114835238D01*
X139833333Y-114930476D01*
X139738095Y-114978095D01*
%TO.C,R10*%
X135157142Y-147992380D02*
X134823809Y-147516190D01*
X134585714Y-147992380D02*
X134585714Y-146992380D01*
X134966666Y-146992380D01*
X135061904Y-147040000D01*
X135109523Y-147087619D01*
X135157142Y-147182857D01*
X135157142Y-147325714D01*
X135109523Y-147420952D01*
X135061904Y-147468571D01*
X134966666Y-147516190D01*
X134585714Y-147516190D01*
X136109523Y-147992380D02*
X135538095Y-147992380D01*
X135823809Y-147992380D02*
X135823809Y-146992380D01*
X135728571Y-147135238D01*
X135633333Y-147230476D01*
X135538095Y-147278095D01*
X136728571Y-146992380D02*
X136823809Y-146992380D01*
X136919047Y-147040000D01*
X136966666Y-147087619D01*
X137014285Y-147182857D01*
X137061904Y-147373333D01*
X137061904Y-147611428D01*
X137014285Y-147801904D01*
X136966666Y-147897142D01*
X136919047Y-147944761D01*
X136823809Y-147992380D01*
X136728571Y-147992380D01*
X136633333Y-147944761D01*
X136585714Y-147897142D01*
X136538095Y-147801904D01*
X136490476Y-147611428D01*
X136490476Y-147373333D01*
X136538095Y-147182857D01*
X136585714Y-147087619D01*
X136633333Y-147040000D01*
X136728571Y-146992380D01*
%TO.C,R11*%
X143157142Y-147792380D02*
X142823809Y-147316190D01*
X142585714Y-147792380D02*
X142585714Y-146792380D01*
X142966666Y-146792380D01*
X143061904Y-146840000D01*
X143109523Y-146887619D01*
X143157142Y-146982857D01*
X143157142Y-147125714D01*
X143109523Y-147220952D01*
X143061904Y-147268571D01*
X142966666Y-147316190D01*
X142585714Y-147316190D01*
X144109523Y-147792380D02*
X143538095Y-147792380D01*
X143823809Y-147792380D02*
X143823809Y-146792380D01*
X143728571Y-146935238D01*
X143633333Y-147030476D01*
X143538095Y-147078095D01*
X145061904Y-147792380D02*
X144490476Y-147792380D01*
X144776190Y-147792380D02*
X144776190Y-146792380D01*
X144680952Y-146935238D01*
X144585714Y-147030476D01*
X144490476Y-147078095D01*
%TO.C,R7*%
X103033333Y-147992380D02*
X102700000Y-147516190D01*
X102461904Y-147992380D02*
X102461904Y-146992380D01*
X102842857Y-146992380D01*
X102938095Y-147040000D01*
X102985714Y-147087619D01*
X103033333Y-147182857D01*
X103033333Y-147325714D01*
X102985714Y-147420952D01*
X102938095Y-147468571D01*
X102842857Y-147516190D01*
X102461904Y-147516190D01*
X103366666Y-146992380D02*
X104033333Y-146992380D01*
X103604761Y-147992380D01*
%TO.C,SW1*%
X106066666Y-142144761D02*
X106209523Y-142192380D01*
X106447619Y-142192380D01*
X106542857Y-142144761D01*
X106590476Y-142097142D01*
X106638095Y-142001904D01*
X106638095Y-141906666D01*
X106590476Y-141811428D01*
X106542857Y-141763809D01*
X106447619Y-141716190D01*
X106257142Y-141668571D01*
X106161904Y-141620952D01*
X106114285Y-141573333D01*
X106066666Y-141478095D01*
X106066666Y-141382857D01*
X106114285Y-141287619D01*
X106161904Y-141240000D01*
X106257142Y-141192380D01*
X106495238Y-141192380D01*
X106638095Y-141240000D01*
X106971428Y-141192380D02*
X107209523Y-142192380D01*
X107400000Y-141478095D01*
X107590476Y-142192380D01*
X107828571Y-141192380D01*
X108733333Y-142192380D02*
X108161904Y-142192380D01*
X108447619Y-142192380D02*
X108447619Y-141192380D01*
X108352380Y-141335238D01*
X108257142Y-141430476D01*
X108161904Y-141478095D01*
%TO.C,LS1*%
X158757142Y-128392380D02*
X158280952Y-128392380D01*
X158280952Y-127392380D01*
X159042857Y-128344761D02*
X159185714Y-128392380D01*
X159423809Y-128392380D01*
X159519047Y-128344761D01*
X159566666Y-128297142D01*
X159614285Y-128201904D01*
X159614285Y-128106666D01*
X159566666Y-128011428D01*
X159519047Y-127963809D01*
X159423809Y-127916190D01*
X159233333Y-127868571D01*
X159138095Y-127820952D01*
X159090476Y-127773333D01*
X159042857Y-127678095D01*
X159042857Y-127582857D01*
X159090476Y-127487619D01*
X159138095Y-127440000D01*
X159233333Y-127392380D01*
X159471428Y-127392380D01*
X159614285Y-127440000D01*
X160566666Y-128392380D02*
X159995238Y-128392380D01*
X160280952Y-128392380D02*
X160280952Y-127392380D01*
X160185714Y-127535238D01*
X160090476Y-127630476D01*
X159995238Y-127678095D01*
%TO.C,U1*%
X128188095Y-128392380D02*
X128188095Y-129201904D01*
X128235714Y-129297142D01*
X128283333Y-129344761D01*
X128378571Y-129392380D01*
X128569047Y-129392380D01*
X128664285Y-129344761D01*
X128711904Y-129297142D01*
X128759523Y-129201904D01*
X128759523Y-128392380D01*
X129759523Y-129392380D02*
X129188095Y-129392380D01*
X129473809Y-129392380D02*
X129473809Y-128392380D01*
X129378571Y-128535238D01*
X129283333Y-128630476D01*
X129188095Y-128678095D01*
%TO.C,SW8*%
X161566666Y-142144761D02*
X161709523Y-142192380D01*
X161947619Y-142192380D01*
X162042857Y-142144761D01*
X162090476Y-142097142D01*
X162138095Y-142001904D01*
X162138095Y-141906666D01*
X162090476Y-141811428D01*
X162042857Y-141763809D01*
X161947619Y-141716190D01*
X161757142Y-141668571D01*
X161661904Y-141620952D01*
X161614285Y-141573333D01*
X161566666Y-141478095D01*
X161566666Y-141382857D01*
X161614285Y-141287619D01*
X161661904Y-141240000D01*
X161757142Y-141192380D01*
X161995238Y-141192380D01*
X162138095Y-141240000D01*
X162471428Y-141192380D02*
X162709523Y-142192380D01*
X162900000Y-141478095D01*
X163090476Y-142192380D01*
X163328571Y-141192380D01*
X163852380Y-141620952D02*
X163757142Y-141573333D01*
X163709523Y-141525714D01*
X163661904Y-141430476D01*
X163661904Y-141382857D01*
X163709523Y-141287619D01*
X163757142Y-141240000D01*
X163852380Y-141192380D01*
X164042857Y-141192380D01*
X164138095Y-141240000D01*
X164185714Y-141287619D01*
X164233333Y-141382857D01*
X164233333Y-141430476D01*
X164185714Y-141525714D01*
X164138095Y-141573333D01*
X164042857Y-141620952D01*
X163852380Y-141620952D01*
X163757142Y-141668571D01*
X163709523Y-141716190D01*
X163661904Y-141811428D01*
X163661904Y-142001904D01*
X163709523Y-142097142D01*
X163757142Y-142144761D01*
X163852380Y-142192380D01*
X164042857Y-142192380D01*
X164138095Y-142144761D01*
X164185714Y-142097142D01*
X164233333Y-142001904D01*
X164233333Y-141811428D01*
X164185714Y-141716190D01*
X164138095Y-141668571D01*
X164042857Y-141620952D01*
%TO.C,SW7*%
X153966666Y-141944761D02*
X154109523Y-141992380D01*
X154347619Y-141992380D01*
X154442857Y-141944761D01*
X154490476Y-141897142D01*
X154538095Y-141801904D01*
X154538095Y-141706666D01*
X154490476Y-141611428D01*
X154442857Y-141563809D01*
X154347619Y-141516190D01*
X154157142Y-141468571D01*
X154061904Y-141420952D01*
X154014285Y-141373333D01*
X153966666Y-141278095D01*
X153966666Y-141182857D01*
X154014285Y-141087619D01*
X154061904Y-141040000D01*
X154157142Y-140992380D01*
X154395238Y-140992380D01*
X154538095Y-141040000D01*
X154871428Y-140992380D02*
X155109523Y-141992380D01*
X155300000Y-141278095D01*
X155490476Y-141992380D01*
X155728571Y-140992380D01*
X156014285Y-140992380D02*
X156680952Y-140992380D01*
X156252380Y-141992380D01*
%TO.C,SW6*%
X146066666Y-141944761D02*
X146209523Y-141992380D01*
X146447619Y-141992380D01*
X146542857Y-141944761D01*
X146590476Y-141897142D01*
X146638095Y-141801904D01*
X146638095Y-141706666D01*
X146590476Y-141611428D01*
X146542857Y-141563809D01*
X146447619Y-141516190D01*
X146257142Y-141468571D01*
X146161904Y-141420952D01*
X146114285Y-141373333D01*
X146066666Y-141278095D01*
X146066666Y-141182857D01*
X146114285Y-141087619D01*
X146161904Y-141040000D01*
X146257142Y-140992380D01*
X146495238Y-140992380D01*
X146638095Y-141040000D01*
X146971428Y-140992380D02*
X147209523Y-141992380D01*
X147400000Y-141278095D01*
X147590476Y-141992380D01*
X147828571Y-140992380D01*
X148638095Y-140992380D02*
X148447619Y-140992380D01*
X148352380Y-141040000D01*
X148304761Y-141087619D01*
X148209523Y-141230476D01*
X148161904Y-141420952D01*
X148161904Y-141801904D01*
X148209523Y-141897142D01*
X148257142Y-141944761D01*
X148352380Y-141992380D01*
X148542857Y-141992380D01*
X148638095Y-141944761D01*
X148685714Y-141897142D01*
X148733333Y-141801904D01*
X148733333Y-141563809D01*
X148685714Y-141468571D01*
X148638095Y-141420952D01*
X148542857Y-141373333D01*
X148352380Y-141373333D01*
X148257142Y-141420952D01*
X148209523Y-141468571D01*
X148161904Y-141563809D01*
%TO.C,SW5*%
X138166666Y-141944761D02*
X138309523Y-141992380D01*
X138547619Y-141992380D01*
X138642857Y-141944761D01*
X138690476Y-141897142D01*
X138738095Y-141801904D01*
X138738095Y-141706666D01*
X138690476Y-141611428D01*
X138642857Y-141563809D01*
X138547619Y-141516190D01*
X138357142Y-141468571D01*
X138261904Y-141420952D01*
X138214285Y-141373333D01*
X138166666Y-141278095D01*
X138166666Y-141182857D01*
X138214285Y-141087619D01*
X138261904Y-141040000D01*
X138357142Y-140992380D01*
X138595238Y-140992380D01*
X138738095Y-141040000D01*
X139071428Y-140992380D02*
X139309523Y-141992380D01*
X139500000Y-141278095D01*
X139690476Y-141992380D01*
X139928571Y-140992380D01*
X140785714Y-140992380D02*
X140309523Y-140992380D01*
X140261904Y-141468571D01*
X140309523Y-141420952D01*
X140404761Y-141373333D01*
X140642857Y-141373333D01*
X140738095Y-141420952D01*
X140785714Y-141468571D01*
X140833333Y-141563809D01*
X140833333Y-141801904D01*
X140785714Y-141897142D01*
X140738095Y-141944761D01*
X140642857Y-141992380D01*
X140404761Y-141992380D01*
X140309523Y-141944761D01*
X140261904Y-141897142D01*
%TO.C,SW4*%
X129966666Y-142144761D02*
X130109523Y-142192380D01*
X130347619Y-142192380D01*
X130442857Y-142144761D01*
X130490476Y-142097142D01*
X130538095Y-142001904D01*
X130538095Y-141906666D01*
X130490476Y-141811428D01*
X130442857Y-141763809D01*
X130347619Y-141716190D01*
X130157142Y-141668571D01*
X130061904Y-141620952D01*
X130014285Y-141573333D01*
X129966666Y-141478095D01*
X129966666Y-141382857D01*
X130014285Y-141287619D01*
X130061904Y-141240000D01*
X130157142Y-141192380D01*
X130395238Y-141192380D01*
X130538095Y-141240000D01*
X130871428Y-141192380D02*
X131109523Y-142192380D01*
X131300000Y-141478095D01*
X131490476Y-142192380D01*
X131728571Y-141192380D01*
X132538095Y-141525714D02*
X132538095Y-142192380D01*
X132300000Y-141144761D02*
X132061904Y-141859047D01*
X132680952Y-141859047D01*
%TO.C,SW3*%
X122266666Y-142144761D02*
X122409523Y-142192380D01*
X122647619Y-142192380D01*
X122742857Y-142144761D01*
X122790476Y-142097142D01*
X122838095Y-142001904D01*
X122838095Y-141906666D01*
X122790476Y-141811428D01*
X122742857Y-141763809D01*
X122647619Y-141716190D01*
X122457142Y-141668571D01*
X122361904Y-141620952D01*
X122314285Y-141573333D01*
X122266666Y-141478095D01*
X122266666Y-141382857D01*
X122314285Y-141287619D01*
X122361904Y-141240000D01*
X122457142Y-141192380D01*
X122695238Y-141192380D01*
X122838095Y-141240000D01*
X123171428Y-141192380D02*
X123409523Y-142192380D01*
X123600000Y-141478095D01*
X123790476Y-142192380D01*
X124028571Y-141192380D01*
X124314285Y-141192380D02*
X124933333Y-141192380D01*
X124600000Y-141573333D01*
X124742857Y-141573333D01*
X124838095Y-141620952D01*
X124885714Y-141668571D01*
X124933333Y-141763809D01*
X124933333Y-142001904D01*
X124885714Y-142097142D01*
X124838095Y-142144761D01*
X124742857Y-142192380D01*
X124457142Y-142192380D01*
X124361904Y-142144761D01*
X124314285Y-142097142D01*
%TO.C,SW2*%
X113966666Y-142144761D02*
X114109523Y-142192380D01*
X114347619Y-142192380D01*
X114442857Y-142144761D01*
X114490476Y-142097142D01*
X114538095Y-142001904D01*
X114538095Y-141906666D01*
X114490476Y-141811428D01*
X114442857Y-141763809D01*
X114347619Y-141716190D01*
X114157142Y-141668571D01*
X114061904Y-141620952D01*
X114014285Y-141573333D01*
X113966666Y-141478095D01*
X113966666Y-141382857D01*
X114014285Y-141287619D01*
X114061904Y-141240000D01*
X114157142Y-141192380D01*
X114395238Y-141192380D01*
X114538095Y-141240000D01*
X114871428Y-141192380D02*
X115109523Y-142192380D01*
X115300000Y-141478095D01*
X115490476Y-142192380D01*
X115728571Y-141192380D01*
X116061904Y-141287619D02*
X116109523Y-141240000D01*
X116204761Y-141192380D01*
X116442857Y-141192380D01*
X116538095Y-141240000D01*
X116585714Y-141287619D01*
X116633333Y-141382857D01*
X116633333Y-141478095D01*
X116585714Y-141620952D01*
X116014285Y-142192380D01*
X116633333Y-142192380D01*
%TO.C,R14*%
X162857142Y-150142380D02*
X162523809Y-149666190D01*
X162285714Y-150142380D02*
X162285714Y-149142380D01*
X162666666Y-149142380D01*
X162761904Y-149190000D01*
X162809523Y-149237619D01*
X162857142Y-149332857D01*
X162857142Y-149475714D01*
X162809523Y-149570952D01*
X162761904Y-149618571D01*
X162666666Y-149666190D01*
X162285714Y-149666190D01*
X163809523Y-150142380D02*
X163238095Y-150142380D01*
X163523809Y-150142380D02*
X163523809Y-149142380D01*
X163428571Y-149285238D01*
X163333333Y-149380476D01*
X163238095Y-149428095D01*
X164666666Y-149475714D02*
X164666666Y-150142380D01*
X164428571Y-149094761D02*
X164190476Y-149809047D01*
X164809523Y-149809047D01*
%TO.C,R13*%
X158157142Y-147992380D02*
X157823809Y-147516190D01*
X157585714Y-147992380D02*
X157585714Y-146992380D01*
X157966666Y-146992380D01*
X158061904Y-147040000D01*
X158109523Y-147087619D01*
X158157142Y-147182857D01*
X158157142Y-147325714D01*
X158109523Y-147420952D01*
X158061904Y-147468571D01*
X157966666Y-147516190D01*
X157585714Y-147516190D01*
X159109523Y-147992380D02*
X158538095Y-147992380D01*
X158823809Y-147992380D02*
X158823809Y-146992380D01*
X158728571Y-147135238D01*
X158633333Y-147230476D01*
X158538095Y-147278095D01*
X159442857Y-146992380D02*
X160061904Y-146992380D01*
X159728571Y-147373333D01*
X159871428Y-147373333D01*
X159966666Y-147420952D01*
X160014285Y-147468571D01*
X160061904Y-147563809D01*
X160061904Y-147801904D01*
X160014285Y-147897142D01*
X159966666Y-147944761D01*
X159871428Y-147992380D01*
X159585714Y-147992380D01*
X159490476Y-147944761D01*
X159442857Y-147897142D01*
%TO.C,R12*%
X150557142Y-147992380D02*
X150223809Y-147516190D01*
X149985714Y-147992380D02*
X149985714Y-146992380D01*
X150366666Y-146992380D01*
X150461904Y-147040000D01*
X150509523Y-147087619D01*
X150557142Y-147182857D01*
X150557142Y-147325714D01*
X150509523Y-147420952D01*
X150461904Y-147468571D01*
X150366666Y-147516190D01*
X149985714Y-147516190D01*
X151509523Y-147992380D02*
X150938095Y-147992380D01*
X151223809Y-147992380D02*
X151223809Y-146992380D01*
X151128571Y-147135238D01*
X151033333Y-147230476D01*
X150938095Y-147278095D01*
X151890476Y-147087619D02*
X151938095Y-147040000D01*
X152033333Y-146992380D01*
X152271428Y-146992380D01*
X152366666Y-147040000D01*
X152414285Y-147087619D01*
X152461904Y-147182857D01*
X152461904Y-147278095D01*
X152414285Y-147420952D01*
X151842857Y-147992380D01*
X152461904Y-147992380D01*
%TO.C,R9*%
X126633333Y-147992380D02*
X126300000Y-147516190D01*
X126061904Y-147992380D02*
X126061904Y-146992380D01*
X126442857Y-146992380D01*
X126538095Y-147040000D01*
X126585714Y-147087619D01*
X126633333Y-147182857D01*
X126633333Y-147325714D01*
X126585714Y-147420952D01*
X126538095Y-147468571D01*
X126442857Y-147516190D01*
X126061904Y-147516190D01*
X127109523Y-147992380D02*
X127300000Y-147992380D01*
X127395238Y-147944761D01*
X127442857Y-147897142D01*
X127538095Y-147754285D01*
X127585714Y-147563809D01*
X127585714Y-147182857D01*
X127538095Y-147087619D01*
X127490476Y-147040000D01*
X127395238Y-146992380D01*
X127204761Y-146992380D01*
X127109523Y-147040000D01*
X127061904Y-147087619D01*
X127014285Y-147182857D01*
X127014285Y-147420952D01*
X127061904Y-147516190D01*
X127109523Y-147563809D01*
X127204761Y-147611428D01*
X127395238Y-147611428D01*
X127490476Y-147563809D01*
X127538095Y-147516190D01*
X127585714Y-147420952D01*
%TO.C,R8*%
X118033333Y-147992380D02*
X117700000Y-147516190D01*
X117461904Y-147992380D02*
X117461904Y-146992380D01*
X117842857Y-146992380D01*
X117938095Y-147040000D01*
X117985714Y-147087619D01*
X118033333Y-147182857D01*
X118033333Y-147325714D01*
X117985714Y-147420952D01*
X117938095Y-147468571D01*
X117842857Y-147516190D01*
X117461904Y-147516190D01*
X118604761Y-147420952D02*
X118509523Y-147373333D01*
X118461904Y-147325714D01*
X118414285Y-147230476D01*
X118414285Y-147182857D01*
X118461904Y-147087619D01*
X118509523Y-147040000D01*
X118604761Y-146992380D01*
X118795238Y-146992380D01*
X118890476Y-147040000D01*
X118938095Y-147087619D01*
X118985714Y-147182857D01*
X118985714Y-147230476D01*
X118938095Y-147325714D01*
X118890476Y-147373333D01*
X118795238Y-147420952D01*
X118604761Y-147420952D01*
X118509523Y-147468571D01*
X118461904Y-147516190D01*
X118414285Y-147611428D01*
X118414285Y-147801904D01*
X118461904Y-147897142D01*
X118509523Y-147944761D01*
X118604761Y-147992380D01*
X118795238Y-147992380D01*
X118890476Y-147944761D01*
X118938095Y-147897142D01*
X118985714Y-147801904D01*
X118985714Y-147611428D01*
X118938095Y-147516190D01*
X118890476Y-147468571D01*
X118795238Y-147420952D01*
%TO.C,R6*%
X117983333Y-114442380D02*
X117650000Y-113966190D01*
X117411904Y-114442380D02*
X117411904Y-113442380D01*
X117792857Y-113442380D01*
X117888095Y-113490000D01*
X117935714Y-113537619D01*
X117983333Y-113632857D01*
X117983333Y-113775714D01*
X117935714Y-113870952D01*
X117888095Y-113918571D01*
X117792857Y-113966190D01*
X117411904Y-113966190D01*
X118840476Y-113442380D02*
X118650000Y-113442380D01*
X118554761Y-113490000D01*
X118507142Y-113537619D01*
X118411904Y-113680476D01*
X118364285Y-113870952D01*
X118364285Y-114251904D01*
X118411904Y-114347142D01*
X118459523Y-114394761D01*
X118554761Y-114442380D01*
X118745238Y-114442380D01*
X118840476Y-114394761D01*
X118888095Y-114347142D01*
X118935714Y-114251904D01*
X118935714Y-114013809D01*
X118888095Y-113918571D01*
X118840476Y-113870952D01*
X118745238Y-113823333D01*
X118554761Y-113823333D01*
X118459523Y-113870952D01*
X118411904Y-113918571D01*
X118364285Y-114013809D01*
%TO.C,R5*%
X133833333Y-118642380D02*
X133500000Y-118166190D01*
X133261904Y-118642380D02*
X133261904Y-117642380D01*
X133642857Y-117642380D01*
X133738095Y-117690000D01*
X133785714Y-117737619D01*
X133833333Y-117832857D01*
X133833333Y-117975714D01*
X133785714Y-118070952D01*
X133738095Y-118118571D01*
X133642857Y-118166190D01*
X133261904Y-118166190D01*
X134738095Y-117642380D02*
X134261904Y-117642380D01*
X134214285Y-118118571D01*
X134261904Y-118070952D01*
X134357142Y-118023333D01*
X134595238Y-118023333D01*
X134690476Y-118070952D01*
X134738095Y-118118571D01*
X134785714Y-118213809D01*
X134785714Y-118451904D01*
X134738095Y-118547142D01*
X134690476Y-118594761D01*
X134595238Y-118642380D01*
X134357142Y-118642380D01*
X134261904Y-118594761D01*
X134214285Y-118547142D01*
%TO.C,R4*%
X139433333Y-127992380D02*
X139100000Y-127516190D01*
X138861904Y-127992380D02*
X138861904Y-126992380D01*
X139242857Y-126992380D01*
X139338095Y-127040000D01*
X139385714Y-127087619D01*
X139433333Y-127182857D01*
X139433333Y-127325714D01*
X139385714Y-127420952D01*
X139338095Y-127468571D01*
X139242857Y-127516190D01*
X138861904Y-127516190D01*
X140290476Y-127325714D02*
X140290476Y-127992380D01*
X140052380Y-126944761D02*
X139814285Y-127659047D01*
X140433333Y-127659047D01*
%TO.C,R3*%
X141883333Y-127892380D02*
X141550000Y-127416190D01*
X141311904Y-127892380D02*
X141311904Y-126892380D01*
X141692857Y-126892380D01*
X141788095Y-126940000D01*
X141835714Y-126987619D01*
X141883333Y-127082857D01*
X141883333Y-127225714D01*
X141835714Y-127320952D01*
X141788095Y-127368571D01*
X141692857Y-127416190D01*
X141311904Y-127416190D01*
X142216666Y-126892380D02*
X142835714Y-126892380D01*
X142502380Y-127273333D01*
X142645238Y-127273333D01*
X142740476Y-127320952D01*
X142788095Y-127368571D01*
X142835714Y-127463809D01*
X142835714Y-127701904D01*
X142788095Y-127797142D01*
X142740476Y-127844761D01*
X142645238Y-127892380D01*
X142359523Y-127892380D01*
X142264285Y-127844761D01*
X142216666Y-127797142D01*
%TO.C,R2*%
X116033333Y-127392380D02*
X115700000Y-126916190D01*
X115461904Y-127392380D02*
X115461904Y-126392380D01*
X115842857Y-126392380D01*
X115938095Y-126440000D01*
X115985714Y-126487619D01*
X116033333Y-126582857D01*
X116033333Y-126725714D01*
X115985714Y-126820952D01*
X115938095Y-126868571D01*
X115842857Y-126916190D01*
X115461904Y-126916190D01*
X116414285Y-126487619D02*
X116461904Y-126440000D01*
X116557142Y-126392380D01*
X116795238Y-126392380D01*
X116890476Y-126440000D01*
X116938095Y-126487619D01*
X116985714Y-126582857D01*
X116985714Y-126678095D01*
X116938095Y-126820952D01*
X116366666Y-127392380D01*
X116985714Y-127392380D01*
%TO.C,R1*%
X115833333Y-122992380D02*
X115500000Y-122516190D01*
X115261904Y-122992380D02*
X115261904Y-121992380D01*
X115642857Y-121992380D01*
X115738095Y-122040000D01*
X115785714Y-122087619D01*
X115833333Y-122182857D01*
X115833333Y-122325714D01*
X115785714Y-122420952D01*
X115738095Y-122468571D01*
X115642857Y-122516190D01*
X115261904Y-122516190D01*
X116785714Y-122992380D02*
X116214285Y-122992380D01*
X116500000Y-122992380D02*
X116500000Y-121992380D01*
X116404761Y-122135238D01*
X116309523Y-122230476D01*
X116214285Y-122278095D01*
%TO.C,J5*%
X148416666Y-112642380D02*
X148416666Y-113356666D01*
X148369047Y-113499523D01*
X148273809Y-113594761D01*
X148130952Y-113642380D01*
X148035714Y-113642380D01*
X149369047Y-112642380D02*
X148892857Y-112642380D01*
X148845238Y-113118571D01*
X148892857Y-113070952D01*
X148988095Y-113023333D01*
X149226190Y-113023333D01*
X149321428Y-113070952D01*
X149369047Y-113118571D01*
X149416666Y-113213809D01*
X149416666Y-113451904D01*
X149369047Y-113547142D01*
X149321428Y-113594761D01*
X149226190Y-113642380D01*
X148988095Y-113642380D01*
X148892857Y-113594761D01*
X148845238Y-113547142D01*
%TO.C,J4*%
X126876666Y-151852380D02*
X126876666Y-152566666D01*
X126829047Y-152709523D01*
X126733809Y-152804761D01*
X126590952Y-152852380D01*
X126495714Y-152852380D01*
X127781428Y-152185714D02*
X127781428Y-152852380D01*
X127543333Y-151804761D02*
X127305238Y-152519047D01*
X127924285Y-152519047D01*
%TO.C,J3*%
X149736666Y-151852380D02*
X149736666Y-152566666D01*
X149689047Y-152709523D01*
X149593809Y-152804761D01*
X149450952Y-152852380D01*
X149355714Y-152852380D01*
X150117619Y-151852380D02*
X150736666Y-151852380D01*
X150403333Y-152233333D01*
X150546190Y-152233333D01*
X150641428Y-152280952D01*
X150689047Y-152328571D01*
X150736666Y-152423809D01*
X150736666Y-152661904D01*
X150689047Y-152757142D01*
X150641428Y-152804761D01*
X150546190Y-152852380D01*
X150260476Y-152852380D01*
X150165238Y-152804761D01*
X150117619Y-152757142D01*
%TO.C,J2*%
X167096666Y-103592380D02*
X167096666Y-104306666D01*
X167049047Y-104449523D01*
X166953809Y-104544761D01*
X166810952Y-104592380D01*
X166715714Y-104592380D01*
X167525238Y-103687619D02*
X167572857Y-103640000D01*
X167668095Y-103592380D01*
X167906190Y-103592380D01*
X168001428Y-103640000D01*
X168049047Y-103687619D01*
X168096666Y-103782857D01*
X168096666Y-103878095D01*
X168049047Y-104020952D01*
X167477619Y-104592380D01*
X168096666Y-104592380D01*
%TO.C,J1*%
X144866666Y-103692380D02*
X144866666Y-104406666D01*
X144819047Y-104549523D01*
X144723809Y-104644761D01*
X144580952Y-104692380D01*
X144485714Y-104692380D01*
X145866666Y-104692380D02*
X145295238Y-104692380D01*
X145580952Y-104692380D02*
X145580952Y-103692380D01*
X145485714Y-103835238D01*
X145390476Y-103930476D01*
X145295238Y-103978095D01*
%TO.C,D9*%
X166061904Y-134992380D02*
X166061904Y-133992380D01*
X166300000Y-133992380D01*
X166442857Y-134040000D01*
X166538095Y-134135238D01*
X166585714Y-134230476D01*
X166633333Y-134420952D01*
X166633333Y-134563809D01*
X166585714Y-134754285D01*
X166538095Y-134849523D01*
X166442857Y-134944761D01*
X166300000Y-134992380D01*
X166061904Y-134992380D01*
X167109523Y-134992380D02*
X167300000Y-134992380D01*
X167395238Y-134944761D01*
X167442857Y-134897142D01*
X167538095Y-134754285D01*
X167585714Y-134563809D01*
X167585714Y-134182857D01*
X167538095Y-134087619D01*
X167490476Y-134040000D01*
X167395238Y-133992380D01*
X167204761Y-133992380D01*
X167109523Y-134040000D01*
X167061904Y-134087619D01*
X167014285Y-134182857D01*
X167014285Y-134420952D01*
X167061904Y-134516190D01*
X167109523Y-134563809D01*
X167204761Y-134611428D01*
X167395238Y-134611428D01*
X167490476Y-134563809D01*
X167538095Y-134516190D01*
X167585714Y-134420952D01*
%TO.C,D8*%
X157861904Y-134992380D02*
X157861904Y-133992380D01*
X158100000Y-133992380D01*
X158242857Y-134040000D01*
X158338095Y-134135238D01*
X158385714Y-134230476D01*
X158433333Y-134420952D01*
X158433333Y-134563809D01*
X158385714Y-134754285D01*
X158338095Y-134849523D01*
X158242857Y-134944761D01*
X158100000Y-134992380D01*
X157861904Y-134992380D01*
X159004761Y-134420952D02*
X158909523Y-134373333D01*
X158861904Y-134325714D01*
X158814285Y-134230476D01*
X158814285Y-134182857D01*
X158861904Y-134087619D01*
X158909523Y-134040000D01*
X159004761Y-133992380D01*
X159195238Y-133992380D01*
X159290476Y-134040000D01*
X159338095Y-134087619D01*
X159385714Y-134182857D01*
X159385714Y-134230476D01*
X159338095Y-134325714D01*
X159290476Y-134373333D01*
X159195238Y-134420952D01*
X159004761Y-134420952D01*
X158909523Y-134468571D01*
X158861904Y-134516190D01*
X158814285Y-134611428D01*
X158814285Y-134801904D01*
X158861904Y-134897142D01*
X158909523Y-134944761D01*
X159004761Y-134992380D01*
X159195238Y-134992380D01*
X159290476Y-134944761D01*
X159338095Y-134897142D01*
X159385714Y-134801904D01*
X159385714Y-134611428D01*
X159338095Y-134516190D01*
X159290476Y-134468571D01*
X159195238Y-134420952D01*
%TO.C,D7*%
X149661904Y-134092380D02*
X149661904Y-133092380D01*
X149900000Y-133092380D01*
X150042857Y-133140000D01*
X150138095Y-133235238D01*
X150185714Y-133330476D01*
X150233333Y-133520952D01*
X150233333Y-133663809D01*
X150185714Y-133854285D01*
X150138095Y-133949523D01*
X150042857Y-134044761D01*
X149900000Y-134092380D01*
X149661904Y-134092380D01*
X150566666Y-133092380D02*
X151233333Y-133092380D01*
X150804761Y-134092380D01*
%TO.C,D6*%
X142461904Y-134792380D02*
X142461904Y-133792380D01*
X142700000Y-133792380D01*
X142842857Y-133840000D01*
X142938095Y-133935238D01*
X142985714Y-134030476D01*
X143033333Y-134220952D01*
X143033333Y-134363809D01*
X142985714Y-134554285D01*
X142938095Y-134649523D01*
X142842857Y-134744761D01*
X142700000Y-134792380D01*
X142461904Y-134792380D01*
X143890476Y-133792380D02*
X143700000Y-133792380D01*
X143604761Y-133840000D01*
X143557142Y-133887619D01*
X143461904Y-134030476D01*
X143414285Y-134220952D01*
X143414285Y-134601904D01*
X143461904Y-134697142D01*
X143509523Y-134744761D01*
X143604761Y-134792380D01*
X143795238Y-134792380D01*
X143890476Y-134744761D01*
X143938095Y-134697142D01*
X143985714Y-134601904D01*
X143985714Y-134363809D01*
X143938095Y-134268571D01*
X143890476Y-134220952D01*
X143795238Y-134173333D01*
X143604761Y-134173333D01*
X143509523Y-134220952D01*
X143461904Y-134268571D01*
X143414285Y-134363809D01*
%TO.C,D5*%
X130861904Y-132842380D02*
X130861904Y-131842380D01*
X131100000Y-131842380D01*
X131242857Y-131890000D01*
X131338095Y-131985238D01*
X131385714Y-132080476D01*
X131433333Y-132270952D01*
X131433333Y-132413809D01*
X131385714Y-132604285D01*
X131338095Y-132699523D01*
X131242857Y-132794761D01*
X131100000Y-132842380D01*
X130861904Y-132842380D01*
X132338095Y-131842380D02*
X131861904Y-131842380D01*
X131814285Y-132318571D01*
X131861904Y-132270952D01*
X131957142Y-132223333D01*
X132195238Y-132223333D01*
X132290476Y-132270952D01*
X132338095Y-132318571D01*
X132385714Y-132413809D01*
X132385714Y-132651904D01*
X132338095Y-132747142D01*
X132290476Y-132794761D01*
X132195238Y-132842380D01*
X131957142Y-132842380D01*
X131861904Y-132794761D01*
X131814285Y-132747142D01*
%TO.C,D4*%
X126061904Y-135592380D02*
X126061904Y-134592380D01*
X126300000Y-134592380D01*
X126442857Y-134640000D01*
X126538095Y-134735238D01*
X126585714Y-134830476D01*
X126633333Y-135020952D01*
X126633333Y-135163809D01*
X126585714Y-135354285D01*
X126538095Y-135449523D01*
X126442857Y-135544761D01*
X126300000Y-135592380D01*
X126061904Y-135592380D01*
X127490476Y-134925714D02*
X127490476Y-135592380D01*
X127252380Y-134544761D02*
X127014285Y-135259047D01*
X127633333Y-135259047D01*
%TO.C,D3*%
X118036904Y-135592380D02*
X118036904Y-134592380D01*
X118275000Y-134592380D01*
X118417857Y-134640000D01*
X118513095Y-134735238D01*
X118560714Y-134830476D01*
X118608333Y-135020952D01*
X118608333Y-135163809D01*
X118560714Y-135354285D01*
X118513095Y-135449523D01*
X118417857Y-135544761D01*
X118275000Y-135592380D01*
X118036904Y-135592380D01*
X118941666Y-134592380D02*
X119560714Y-134592380D01*
X119227380Y-134973333D01*
X119370238Y-134973333D01*
X119465476Y-135020952D01*
X119513095Y-135068571D01*
X119560714Y-135163809D01*
X119560714Y-135401904D01*
X119513095Y-135497142D01*
X119465476Y-135544761D01*
X119370238Y-135592380D01*
X119084523Y-135592380D01*
X118989285Y-135544761D01*
X118941666Y-135497142D01*
%TO.C,D2*%
X109861904Y-135392380D02*
X109861904Y-134392380D01*
X110100000Y-134392380D01*
X110242857Y-134440000D01*
X110338095Y-134535238D01*
X110385714Y-134630476D01*
X110433333Y-134820952D01*
X110433333Y-134963809D01*
X110385714Y-135154285D01*
X110338095Y-135249523D01*
X110242857Y-135344761D01*
X110100000Y-135392380D01*
X109861904Y-135392380D01*
X110814285Y-134487619D02*
X110861904Y-134440000D01*
X110957142Y-134392380D01*
X111195238Y-134392380D01*
X111290476Y-134440000D01*
X111338095Y-134487619D01*
X111385714Y-134582857D01*
X111385714Y-134678095D01*
X111338095Y-134820952D01*
X110766666Y-135392380D01*
X111385714Y-135392380D01*
%TO.C,D1*%
X111911904Y-114192380D02*
X111911904Y-113192380D01*
X112150000Y-113192380D01*
X112292857Y-113240000D01*
X112388095Y-113335238D01*
X112435714Y-113430476D01*
X112483333Y-113620952D01*
X112483333Y-113763809D01*
X112435714Y-113954285D01*
X112388095Y-114049523D01*
X112292857Y-114144761D01*
X112150000Y-114192380D01*
X111911904Y-114192380D01*
X113435714Y-114192380D02*
X112864285Y-114192380D01*
X113150000Y-114192380D02*
X113150000Y-113192380D01*
X113054761Y-113335238D01*
X112959523Y-113430476D01*
X112864285Y-113478095D01*
%TO.C,C5*%
X128433333Y-119297142D02*
X128385714Y-119344761D01*
X128242857Y-119392380D01*
X128147619Y-119392380D01*
X128004761Y-119344761D01*
X127909523Y-119249523D01*
X127861904Y-119154285D01*
X127814285Y-118963809D01*
X127814285Y-118820952D01*
X127861904Y-118630476D01*
X127909523Y-118535238D01*
X128004761Y-118440000D01*
X128147619Y-118392380D01*
X128242857Y-118392380D01*
X128385714Y-118440000D01*
X128433333Y-118487619D01*
X129338095Y-118392380D02*
X128861904Y-118392380D01*
X128814285Y-118868571D01*
X128861904Y-118820952D01*
X128957142Y-118773333D01*
X129195238Y-118773333D01*
X129290476Y-118820952D01*
X129338095Y-118868571D01*
X129385714Y-118963809D01*
X129385714Y-119201904D01*
X129338095Y-119297142D01*
X129290476Y-119344761D01*
X129195238Y-119392380D01*
X128957142Y-119392380D01*
X128861904Y-119344761D01*
X128814285Y-119297142D01*
%TO.C,C4*%
X139633333Y-122897142D02*
X139585714Y-122944761D01*
X139442857Y-122992380D01*
X139347619Y-122992380D01*
X139204761Y-122944761D01*
X139109523Y-122849523D01*
X139061904Y-122754285D01*
X139014285Y-122563809D01*
X139014285Y-122420952D01*
X139061904Y-122230476D01*
X139109523Y-122135238D01*
X139204761Y-122040000D01*
X139347619Y-121992380D01*
X139442857Y-121992380D01*
X139585714Y-122040000D01*
X139633333Y-122087619D01*
X140490476Y-122325714D02*
X140490476Y-122992380D01*
X140252380Y-121944761D02*
X140014285Y-122659047D01*
X140633333Y-122659047D01*
%TO.C,C3*%
X138283333Y-129397142D02*
X138235714Y-129444761D01*
X138092857Y-129492380D01*
X137997619Y-129492380D01*
X137854761Y-129444761D01*
X137759523Y-129349523D01*
X137711904Y-129254285D01*
X137664285Y-129063809D01*
X137664285Y-128920952D01*
X137711904Y-128730476D01*
X137759523Y-128635238D01*
X137854761Y-128540000D01*
X137997619Y-128492380D01*
X138092857Y-128492380D01*
X138235714Y-128540000D01*
X138283333Y-128587619D01*
X138616666Y-128492380D02*
X139235714Y-128492380D01*
X138902380Y-128873333D01*
X139045238Y-128873333D01*
X139140476Y-128920952D01*
X139188095Y-128968571D01*
X139235714Y-129063809D01*
X139235714Y-129301904D01*
X139188095Y-129397142D01*
X139140476Y-129444761D01*
X139045238Y-129492380D01*
X138759523Y-129492380D01*
X138664285Y-129444761D01*
X138616666Y-129397142D01*
%TO.C,C2*%
X121433333Y-120497142D02*
X121385714Y-120544761D01*
X121242857Y-120592380D01*
X121147619Y-120592380D01*
X121004761Y-120544761D01*
X120909523Y-120449523D01*
X120861904Y-120354285D01*
X120814285Y-120163809D01*
X120814285Y-120020952D01*
X120861904Y-119830476D01*
X120909523Y-119735238D01*
X121004761Y-119640000D01*
X121147619Y-119592380D01*
X121242857Y-119592380D01*
X121385714Y-119640000D01*
X121433333Y-119687619D01*
X121814285Y-119687619D02*
X121861904Y-119640000D01*
X121957142Y-119592380D01*
X122195238Y-119592380D01*
X122290476Y-119640000D01*
X122338095Y-119687619D01*
X122385714Y-119782857D01*
X122385714Y-119878095D01*
X122338095Y-120020952D01*
X121766666Y-120592380D01*
X122385714Y-120592380D01*
%TO.C,C1*%
X124033333Y-131134642D02*
X123985714Y-131182261D01*
X123842857Y-131229880D01*
X123747619Y-131229880D01*
X123604761Y-131182261D01*
X123509523Y-131087023D01*
X123461904Y-130991785D01*
X123414285Y-130801309D01*
X123414285Y-130658452D01*
X123461904Y-130467976D01*
X123509523Y-130372738D01*
X123604761Y-130277500D01*
X123747619Y-130229880D01*
X123842857Y-130229880D01*
X123985714Y-130277500D01*
X124033333Y-130325119D01*
X124985714Y-131229880D02*
X124414285Y-131229880D01*
X124700000Y-131229880D02*
X124700000Y-130229880D01*
X124604761Y-130372738D01*
X124509523Y-130467976D01*
X124414285Y-130515595D01*
%TD*%
M02*
