%TF.GenerationSoftware,KiCad,Pcbnew,(5.1.10)-1*%
%TF.CreationDate,2022-04-08T18:55:06+02:00*%
%TF.ProjectId,shield_Arduino,73686965-6c64-45f4-9172-6475696e6f2e,rev?*%
%TF.SameCoordinates,Original*%
%TF.FileFunction,Soldermask,Bot*%
%TF.FilePolarity,Negative*%
%FSLAX46Y46*%
G04 Gerber Fmt 4.6, Leading zero omitted, Abs format (unit mm)*
G04 Created by KiCad (PCBNEW (5.1.10)-1) date 2022-04-08 18:55:06*
%MOMM*%
%LPD*%
G01*
G04 APERTURE LIST*
%ADD10C,3.200000*%
%ADD11C,2.000000*%
%ADD12O,3.960000X1.980000*%
%ADD13R,3.960000X1.980000*%
%ADD14C,1.600000*%
%ADD15C,1.900000*%
%ADD16O,1.700000X1.700000*%
%ADD17R,1.700000X1.700000*%
G04 APERTURE END LIST*
D10*
%TO.C,e*%
X115570000Y-152400000D03*
%TD*%
D11*
%TO.C,SW1*%
X105200000Y-138240000D03*
X109700000Y-138240000D03*
X105200000Y-144740000D03*
X109700000Y-144740000D03*
%TD*%
D12*
%TO.C,LS1*%
X162600000Y-125440000D03*
D13*
X162600000Y-130440000D03*
%TD*%
D10*
%TO.C,REF\u002A\u002A*%
X167640000Y-119380000D03*
%TD*%
%TO.C,REF\u002A\u002A*%
X116840000Y-104140000D03*
%TD*%
%TO.C,REF\u002A\u002A*%
X167640000Y-147720000D03*
%TD*%
D11*
%TO.C,SW8*%
X160800000Y-138240000D03*
X165300000Y-138240000D03*
X160800000Y-144740000D03*
X165300000Y-144740000D03*
%TD*%
%TO.C,SW7*%
X153000000Y-138240000D03*
X157500000Y-138240000D03*
X153000000Y-144740000D03*
X157500000Y-144740000D03*
%TD*%
%TO.C,SW6*%
X145200000Y-138240000D03*
X149700000Y-138240000D03*
X145200000Y-144740000D03*
X149700000Y-144740000D03*
%TD*%
%TO.C,SW5*%
X137200000Y-138240000D03*
X141700000Y-138240000D03*
X137200000Y-144740000D03*
X141700000Y-144740000D03*
%TD*%
%TO.C,SW4*%
X129200000Y-138240000D03*
X133700000Y-138240000D03*
X129200000Y-144740000D03*
X133700000Y-144740000D03*
%TD*%
%TO.C,SW3*%
X121200000Y-138240000D03*
X125700000Y-138240000D03*
X121200000Y-144740000D03*
X125700000Y-144740000D03*
%TD*%
%TO.C,SW2*%
X113000000Y-138240000D03*
X117500000Y-138240000D03*
X113000000Y-144740000D03*
X117500000Y-144740000D03*
%TD*%
D14*
%TO.C,J5*%
X156600000Y-108640000D03*
X162100000Y-115140000D03*
D15*
X152100000Y-115940000D03*
X152100000Y-107840000D03*
X161100000Y-107840000D03*
%TD*%
D16*
%TO.C,J4*%
X147320000Y-152400000D03*
X144780000Y-152400000D03*
X142240000Y-152400000D03*
X139700000Y-152400000D03*
X137160000Y-152400000D03*
X134620000Y-152400000D03*
X132080000Y-152400000D03*
D17*
X129540000Y-152400000D03*
%TD*%
D16*
%TO.C,J3*%
X165100000Y-152400000D03*
X162560000Y-152400000D03*
X160020000Y-152400000D03*
X157480000Y-152400000D03*
X154940000Y-152400000D03*
D17*
X152400000Y-152400000D03*
%TD*%
D16*
%TO.C,J2*%
X147320000Y-104140000D03*
X149860000Y-104140000D03*
X152400000Y-104140000D03*
X154940000Y-104140000D03*
X157480000Y-104140000D03*
X160020000Y-104140000D03*
X162560000Y-104140000D03*
D17*
X165100000Y-104140000D03*
%TD*%
D16*
%TO.C,J1*%
X120396000Y-104140000D03*
X122936000Y-104140000D03*
X125476000Y-104140000D03*
X128016000Y-104140000D03*
X130556000Y-104140000D03*
X133096000Y-104140000D03*
X135636000Y-104140000D03*
X138176000Y-104140000D03*
X140716000Y-104140000D03*
D17*
X143256000Y-104140000D03*
%TD*%
M02*
