G04 #@! TF.GenerationSoftware,KiCad,Pcbnew,(5.1.10)-1*
G04 #@! TF.CreationDate,2021-11-27T20:31:54+01:00*
G04 #@! TF.ProjectId,latarka,6c617461-726b-4612-9e6b-696361645f70,rev?*
G04 #@! TF.SameCoordinates,Original*
G04 #@! TF.FileFunction,Copper,L1,Top*
G04 #@! TF.FilePolarity,Positive*
%FSLAX46Y46*%
G04 Gerber Fmt 4.6, Leading zero omitted, Abs format (unit mm)*
G04 Created by KiCad (PCBNEW (5.1.10)-1) date 2021-11-27 20:31:54*
%MOMM*%
%LPD*%
G01*
G04 APERTURE LIST*
G04 #@! TA.AperFunction,ComponentPad*
%ADD10C,1.800000*%
G04 #@! TD*
G04 #@! TA.AperFunction,ComponentPad*
%ADD11R,1.800000X1.800000*%
G04 #@! TD*
G04 #@! TA.AperFunction,ComponentPad*
%ADD12O,1.700000X1.700000*%
G04 #@! TD*
G04 #@! TA.AperFunction,ComponentPad*
%ADD13R,1.700000X1.700000*%
G04 #@! TD*
G04 #@! TA.AperFunction,Conductor*
%ADD14C,0.500000*%
G04 #@! TD*
G04 #@! TA.AperFunction,Conductor*
%ADD15C,0.300000*%
G04 #@! TD*
G04 #@! TA.AperFunction,Conductor*
%ADD16C,1.000000*%
G04 #@! TD*
G04 #@! TA.AperFunction,Conductor*
%ADD17C,0.254000*%
G04 #@! TD*
G04 #@! TA.AperFunction,Conductor*
%ADD18C,0.100000*%
G04 #@! TD*
G04 APERTURE END LIST*
G04 #@! TA.AperFunction,SMDPad,CuDef*
G36*
G01*
X136100000Y-97100000D02*
X135600000Y-97100000D01*
G75*
G02*
X135350000Y-96850000I0J250000D01*
G01*
X135350000Y-94650000D01*
G75*
G02*
X135600000Y-94400000I250000J0D01*
G01*
X136100000Y-94400000D01*
G75*
G02*
X136350000Y-94650000I0J-250000D01*
G01*
X136350000Y-96850000D01*
G75*
G02*
X136100000Y-97100000I-250000J0D01*
G01*
G37*
G04 #@! TD.AperFunction*
G04 #@! TA.AperFunction,SMDPad,CuDef*
G36*
G01*
X133900000Y-97100000D02*
X133400000Y-97100000D01*
G75*
G02*
X133150000Y-96850000I0J250000D01*
G01*
X133150000Y-94650000D01*
G75*
G02*
X133400000Y-94400000I250000J0D01*
G01*
X133900000Y-94400000D01*
G75*
G02*
X134150000Y-94650000I0J-250000D01*
G01*
X134150000Y-96850000D01*
G75*
G02*
X133900000Y-97100000I-250000J0D01*
G01*
G37*
G04 #@! TD.AperFunction*
D10*
X135790000Y-109500000D03*
D11*
X133250000Y-109500000D03*
G04 #@! TA.AperFunction,SMDPad,CuDef*
G36*
G01*
X138225000Y-101550000D02*
X137275000Y-101550000D01*
G75*
G02*
X137025000Y-101300000I0J250000D01*
G01*
X137025000Y-100625000D01*
G75*
G02*
X137275000Y-100375000I250000J0D01*
G01*
X138225000Y-100375000D01*
G75*
G02*
X138475000Y-100625000I0J-250000D01*
G01*
X138475000Y-101300000D01*
G75*
G02*
X138225000Y-101550000I-250000J0D01*
G01*
G37*
G04 #@! TD.AperFunction*
G04 #@! TA.AperFunction,SMDPad,CuDef*
G36*
G01*
X138225000Y-103625000D02*
X137275000Y-103625000D01*
G75*
G02*
X137025000Y-103375000I0J250000D01*
G01*
X137025000Y-102700000D01*
G75*
G02*
X137275000Y-102450000I250000J0D01*
G01*
X138225000Y-102450000D01*
G75*
G02*
X138475000Y-102700000I0J-250000D01*
G01*
X138475000Y-103375000D01*
G75*
G02*
X138225000Y-103625000I-250000J0D01*
G01*
G37*
G04 #@! TD.AperFunction*
G04 #@! TA.AperFunction,SMDPad,CuDef*
G36*
G01*
X133875000Y-99700000D02*
X133675000Y-99700000D01*
G75*
G02*
X133575000Y-99600000I0J100000D01*
G01*
X133575000Y-98175000D01*
G75*
G02*
X133675000Y-98075000I100000J0D01*
G01*
X133875000Y-98075000D01*
G75*
G02*
X133975000Y-98175000I0J-100000D01*
G01*
X133975000Y-99600000D01*
G75*
G02*
X133875000Y-99700000I-100000J0D01*
G01*
G37*
G04 #@! TD.AperFunction*
G04 #@! TA.AperFunction,SMDPad,CuDef*
G36*
G01*
X134525000Y-99700000D02*
X134325000Y-99700000D01*
G75*
G02*
X134225000Y-99600000I0J100000D01*
G01*
X134225000Y-98175000D01*
G75*
G02*
X134325000Y-98075000I100000J0D01*
G01*
X134525000Y-98075000D01*
G75*
G02*
X134625000Y-98175000I0J-100000D01*
G01*
X134625000Y-99600000D01*
G75*
G02*
X134525000Y-99700000I-100000J0D01*
G01*
G37*
G04 #@! TD.AperFunction*
G04 #@! TA.AperFunction,SMDPad,CuDef*
G36*
G01*
X135175000Y-99700000D02*
X134975000Y-99700000D01*
G75*
G02*
X134875000Y-99600000I0J100000D01*
G01*
X134875000Y-98175000D01*
G75*
G02*
X134975000Y-98075000I100000J0D01*
G01*
X135175000Y-98075000D01*
G75*
G02*
X135275000Y-98175000I0J-100000D01*
G01*
X135275000Y-99600000D01*
G75*
G02*
X135175000Y-99700000I-100000J0D01*
G01*
G37*
G04 #@! TD.AperFunction*
G04 #@! TA.AperFunction,SMDPad,CuDef*
G36*
G01*
X135825000Y-99700000D02*
X135625000Y-99700000D01*
G75*
G02*
X135525000Y-99600000I0J100000D01*
G01*
X135525000Y-98175000D01*
G75*
G02*
X135625000Y-98075000I100000J0D01*
G01*
X135825000Y-98075000D01*
G75*
G02*
X135925000Y-98175000I0J-100000D01*
G01*
X135925000Y-99600000D01*
G75*
G02*
X135825000Y-99700000I-100000J0D01*
G01*
G37*
G04 #@! TD.AperFunction*
G04 #@! TA.AperFunction,SMDPad,CuDef*
G36*
G01*
X135825000Y-103925000D02*
X135625000Y-103925000D01*
G75*
G02*
X135525000Y-103825000I0J100000D01*
G01*
X135525000Y-102400000D01*
G75*
G02*
X135625000Y-102300000I100000J0D01*
G01*
X135825000Y-102300000D01*
G75*
G02*
X135925000Y-102400000I0J-100000D01*
G01*
X135925000Y-103825000D01*
G75*
G02*
X135825000Y-103925000I-100000J0D01*
G01*
G37*
G04 #@! TD.AperFunction*
G04 #@! TA.AperFunction,SMDPad,CuDef*
G36*
G01*
X135175000Y-103925000D02*
X134975000Y-103925000D01*
G75*
G02*
X134875000Y-103825000I0J100000D01*
G01*
X134875000Y-102400000D01*
G75*
G02*
X134975000Y-102300000I100000J0D01*
G01*
X135175000Y-102300000D01*
G75*
G02*
X135275000Y-102400000I0J-100000D01*
G01*
X135275000Y-103825000D01*
G75*
G02*
X135175000Y-103925000I-100000J0D01*
G01*
G37*
G04 #@! TD.AperFunction*
G04 #@! TA.AperFunction,SMDPad,CuDef*
G36*
G01*
X134525000Y-103925000D02*
X134325000Y-103925000D01*
G75*
G02*
X134225000Y-103825000I0J100000D01*
G01*
X134225000Y-102400000D01*
G75*
G02*
X134325000Y-102300000I100000J0D01*
G01*
X134525000Y-102300000D01*
G75*
G02*
X134625000Y-102400000I0J-100000D01*
G01*
X134625000Y-103825000D01*
G75*
G02*
X134525000Y-103925000I-100000J0D01*
G01*
G37*
G04 #@! TD.AperFunction*
G04 #@! TA.AperFunction,SMDPad,CuDef*
G36*
G01*
X133875000Y-103925000D02*
X133675000Y-103925000D01*
G75*
G02*
X133575000Y-103825000I0J100000D01*
G01*
X133575000Y-102400000D01*
G75*
G02*
X133675000Y-102300000I100000J0D01*
G01*
X133875000Y-102300000D01*
G75*
G02*
X133975000Y-102400000I0J-100000D01*
G01*
X133975000Y-103825000D01*
G75*
G02*
X133875000Y-103925000I-100000J0D01*
G01*
G37*
G04 #@! TD.AperFunction*
G04 #@! TA.AperFunction,SMDPad,CuDef*
G36*
G01*
X128700001Y-106350000D02*
X127799999Y-106350000D01*
G75*
G02*
X127550000Y-106100001I0J249999D01*
G01*
X127550000Y-105399999D01*
G75*
G02*
X127799999Y-105150000I249999J0D01*
G01*
X128700001Y-105150000D01*
G75*
G02*
X128950000Y-105399999I0J-249999D01*
G01*
X128950000Y-106100001D01*
G75*
G02*
X128700001Y-106350000I-249999J0D01*
G01*
G37*
G04 #@! TD.AperFunction*
G04 #@! TA.AperFunction,SMDPad,CuDef*
G36*
G01*
X128700001Y-108350000D02*
X127799999Y-108350000D01*
G75*
G02*
X127550000Y-108100001I0J249999D01*
G01*
X127550000Y-107399999D01*
G75*
G02*
X127799999Y-107150000I249999J0D01*
G01*
X128700001Y-107150000D01*
G75*
G02*
X128950000Y-107399999I0J-249999D01*
G01*
X128950000Y-108100001D01*
G75*
G02*
X128700001Y-108350000I-249999J0D01*
G01*
G37*
G04 #@! TD.AperFunction*
G04 #@! TA.AperFunction,SMDPad,CuDef*
G36*
G01*
X130350000Y-102549999D02*
X130350000Y-103450001D01*
G75*
G02*
X130100001Y-103700000I-249999J0D01*
G01*
X129399999Y-103700000D01*
G75*
G02*
X129150000Y-103450001I0J249999D01*
G01*
X129150000Y-102549999D01*
G75*
G02*
X129399999Y-102300000I249999J0D01*
G01*
X130100001Y-102300000D01*
G75*
G02*
X130350000Y-102549999I0J-249999D01*
G01*
G37*
G04 #@! TD.AperFunction*
G04 #@! TA.AperFunction,SMDPad,CuDef*
G36*
G01*
X132350000Y-102549999D02*
X132350000Y-103450001D01*
G75*
G02*
X132100001Y-103700000I-249999J0D01*
G01*
X131399999Y-103700000D01*
G75*
G02*
X131150000Y-103450001I0J249999D01*
G01*
X131150000Y-102549999D01*
G75*
G02*
X131399999Y-102300000I249999J0D01*
G01*
X132100001Y-102300000D01*
G75*
G02*
X132350000Y-102549999I0J-249999D01*
G01*
G37*
G04 #@! TD.AperFunction*
D12*
X130290000Y-95750000D03*
D13*
X127750000Y-95750000D03*
D12*
X126750000Y-99960000D03*
D13*
X126750000Y-102500000D03*
G04 #@! TA.AperFunction,SMDPad,CuDef*
G36*
G01*
X129525000Y-100450000D02*
X130475000Y-100450000D01*
G75*
G02*
X130725000Y-100700000I0J-250000D01*
G01*
X130725000Y-101375000D01*
G75*
G02*
X130475000Y-101625000I-250000J0D01*
G01*
X129525000Y-101625000D01*
G75*
G02*
X129275000Y-101375000I0J250000D01*
G01*
X129275000Y-100700000D01*
G75*
G02*
X129525000Y-100450000I250000J0D01*
G01*
G37*
G04 #@! TD.AperFunction*
G04 #@! TA.AperFunction,SMDPad,CuDef*
G36*
G01*
X129525000Y-98375000D02*
X130475000Y-98375000D01*
G75*
G02*
X130725000Y-98625000I0J-250000D01*
G01*
X130725000Y-99300000D01*
G75*
G02*
X130475000Y-99550000I-250000J0D01*
G01*
X129525000Y-99550000D01*
G75*
G02*
X129275000Y-99300000I0J250000D01*
G01*
X129275000Y-98625000D01*
G75*
G02*
X129525000Y-98375000I250000J0D01*
G01*
G37*
G04 #@! TD.AperFunction*
D14*
X135075000Y-98887500D02*
X135075000Y-100075000D01*
X135962500Y-100962500D02*
X137750000Y-100962500D01*
X135075000Y-100075000D02*
X135962500Y-100962500D01*
X134425000Y-98887500D02*
X134425000Y-100325000D01*
X133712500Y-101037500D02*
X130000000Y-101037500D01*
X134425000Y-100325000D02*
X133712500Y-101037500D01*
X134425000Y-98887500D02*
X135075000Y-98887500D01*
X130000000Y-102750000D02*
X129750000Y-103000000D01*
X130000000Y-101037500D02*
X130000000Y-102750000D01*
X129750000Y-104250000D02*
X128250000Y-105750000D01*
X129750000Y-103000000D02*
X129750000Y-104250000D01*
D15*
X127750000Y-98787500D02*
X130000000Y-101037500D01*
X127750000Y-95750000D02*
X127750000Y-98787500D01*
X133775000Y-95875000D02*
X133650000Y-95750000D01*
X133775000Y-98887500D02*
X133775000Y-95875000D01*
D14*
X126750000Y-99960000D02*
X125250000Y-98460000D01*
X125250000Y-98460000D02*
X125250000Y-94750000D01*
X125250000Y-94750000D02*
X126250000Y-93750000D01*
X126250000Y-93750000D02*
X128500000Y-93750000D01*
X130290000Y-95540000D02*
X130290000Y-95750000D01*
X128500000Y-93750000D02*
X130290000Y-95540000D01*
X130290000Y-95750000D02*
X133650000Y-95750000D01*
X130290000Y-98672500D02*
X130000000Y-98962500D01*
X130290000Y-95750000D02*
X130290000Y-98672500D01*
D15*
X135725000Y-104725000D02*
X135725000Y-105225000D01*
D16*
X135725000Y-109435000D02*
X135790000Y-109500000D01*
X135725000Y-104525000D02*
X135725000Y-109435000D01*
D15*
X135725000Y-103112500D02*
X135725000Y-104525000D01*
X135725000Y-104525000D02*
X135725000Y-104725000D01*
D16*
X136050010Y-103037500D02*
X135975010Y-103112500D01*
X137750000Y-103037500D02*
X136050010Y-103037500D01*
D14*
X131500000Y-107750000D02*
X133250000Y-109500000D01*
X128250000Y-107750000D02*
X131500000Y-107750000D01*
X134425000Y-108325000D02*
X134425000Y-104675000D01*
X133250000Y-109500000D02*
X134425000Y-108325000D01*
D15*
X134425000Y-104675000D02*
X134425000Y-103112500D01*
X134425000Y-105825000D02*
X134425000Y-104675000D01*
X131862500Y-103112500D02*
X131750000Y-103000000D01*
X125750000Y-105750000D02*
X125750000Y-103500000D01*
X126799990Y-106799990D02*
X125750000Y-105750000D01*
X128948536Y-106799990D02*
X126799990Y-106799990D01*
X129298536Y-107149990D02*
X128948536Y-106799990D01*
X131748532Y-107149990D02*
X129298536Y-107149990D01*
X132848541Y-108249999D02*
X131748532Y-107149990D01*
X133500001Y-108249999D02*
X132848541Y-108249999D01*
X125750000Y-103500000D02*
X126750000Y-102500000D01*
X133775000Y-107975000D02*
X133500001Y-108249999D01*
X133775000Y-103112500D02*
X133775000Y-107975000D01*
X133662500Y-103000000D02*
X133775000Y-103112500D01*
X131750000Y-103000000D02*
X133662500Y-103000000D01*
X135850000Y-98600000D02*
X135850000Y-95750000D01*
X135725000Y-98725000D02*
X135850000Y-98600000D01*
X135725000Y-98887500D02*
X135725000Y-98725000D01*
D17*
X139873000Y-114623000D02*
X124127000Y-114623000D01*
X124127000Y-94750000D01*
X124569726Y-94750000D01*
X124573001Y-94783254D01*
X124573000Y-98426755D01*
X124569726Y-98460000D01*
X124573000Y-98493245D01*
X124573000Y-98493251D01*
X124582796Y-98592714D01*
X124621508Y-98720329D01*
X124684372Y-98837940D01*
X124768973Y-98941026D01*
X124794800Y-98962222D01*
X125505154Y-99672576D01*
X125473000Y-99834226D01*
X125473000Y-100085774D01*
X125522074Y-100332487D01*
X125618337Y-100564886D01*
X125758089Y-100774040D01*
X125935960Y-100951911D01*
X126145114Y-101091663D01*
X126377513Y-101187926D01*
X126543456Y-101220934D01*
X125900000Y-101220934D01*
X125816293Y-101229178D01*
X125735804Y-101253595D01*
X125661624Y-101293245D01*
X125596605Y-101346605D01*
X125543245Y-101411624D01*
X125503595Y-101485804D01*
X125479178Y-101566293D01*
X125470934Y-101650000D01*
X125470934Y-102963065D01*
X125362034Y-103071965D01*
X125340027Y-103090026D01*
X125321966Y-103112033D01*
X125321963Y-103112036D01*
X125298840Y-103140212D01*
X125267922Y-103177885D01*
X125214344Y-103278124D01*
X125181349Y-103386889D01*
X125170210Y-103500000D01*
X125173001Y-103528341D01*
X125173000Y-105721669D01*
X125170210Y-105750000D01*
X125173000Y-105778331D01*
X125173000Y-105778335D01*
X125175334Y-105802028D01*
X125181349Y-105863111D01*
X125200796Y-105927217D01*
X125214343Y-105971875D01*
X125267921Y-106072114D01*
X125340026Y-106159974D01*
X125362038Y-106178039D01*
X126371955Y-107187957D01*
X126390016Y-107209964D01*
X126412023Y-107228025D01*
X126412025Y-107228027D01*
X126431970Y-107244395D01*
X126477875Y-107282069D01*
X126578114Y-107335647D01*
X126686878Y-107368640D01*
X126771654Y-107376990D01*
X126771660Y-107376990D01*
X126799989Y-107379780D01*
X126828318Y-107376990D01*
X127123200Y-107376990D01*
X127120934Y-107399999D01*
X127120934Y-108100001D01*
X127133982Y-108232480D01*
X127172625Y-108359868D01*
X127235377Y-108477269D01*
X127319828Y-108580172D01*
X127422731Y-108664623D01*
X127540132Y-108727375D01*
X127667520Y-108766018D01*
X127799999Y-108779066D01*
X128700001Y-108779066D01*
X128832480Y-108766018D01*
X128959868Y-108727375D01*
X129077269Y-108664623D01*
X129180172Y-108580172D01*
X129264623Y-108477269D01*
X129291492Y-108427000D01*
X131219578Y-108427000D01*
X131920934Y-109128357D01*
X131920934Y-110400000D01*
X131929178Y-110483707D01*
X131953595Y-110564196D01*
X131993245Y-110638376D01*
X132046605Y-110703395D01*
X132111624Y-110756755D01*
X132185804Y-110796405D01*
X132266293Y-110820822D01*
X132350000Y-110829066D01*
X134150000Y-110829066D01*
X134233707Y-110820822D01*
X134314196Y-110796405D01*
X134388376Y-110756755D01*
X134453395Y-110703395D01*
X134506755Y-110638376D01*
X134546405Y-110564196D01*
X134570822Y-110483707D01*
X134579066Y-110400000D01*
X134579066Y-110044164D01*
X134614028Y-110128570D01*
X134759252Y-110345913D01*
X134944087Y-110530748D01*
X135161430Y-110675972D01*
X135402928Y-110776004D01*
X135659302Y-110827000D01*
X135920698Y-110827000D01*
X136177072Y-110776004D01*
X136418570Y-110675972D01*
X136635913Y-110530748D01*
X136820748Y-110345913D01*
X136965972Y-110128570D01*
X137066004Y-109887072D01*
X137117000Y-109630698D01*
X137117000Y-109369302D01*
X137066004Y-109112928D01*
X136965972Y-108871430D01*
X136820748Y-108654087D01*
X136652000Y-108485339D01*
X136652000Y-104479462D01*
X136638587Y-104343276D01*
X136585580Y-104168536D01*
X136499501Y-104007495D01*
X136464216Y-103964500D01*
X136944273Y-103964500D01*
X137015133Y-104002375D01*
X137142521Y-104041018D01*
X137275000Y-104054066D01*
X138225000Y-104054066D01*
X138357479Y-104041018D01*
X138484867Y-104002375D01*
X138602269Y-103939623D01*
X138705172Y-103855172D01*
X138789623Y-103752269D01*
X138852375Y-103634867D01*
X138891018Y-103507479D01*
X138904066Y-103375000D01*
X138904066Y-102700000D01*
X138891018Y-102567521D01*
X138852375Y-102440133D01*
X138789623Y-102322731D01*
X138705172Y-102219828D01*
X138602269Y-102135377D01*
X138484867Y-102072625D01*
X138357479Y-102033982D01*
X138225000Y-102020934D01*
X137275000Y-102020934D01*
X137142521Y-102033982D01*
X137015133Y-102072625D01*
X136944273Y-102110500D01*
X136267272Y-102110500D01*
X136264902Y-102106067D01*
X136199106Y-102025894D01*
X136118933Y-101960098D01*
X136027465Y-101911207D01*
X135928216Y-101881100D01*
X135825000Y-101870934D01*
X135625000Y-101870934D01*
X135521784Y-101881100D01*
X135422535Y-101911207D01*
X135400000Y-101923252D01*
X135377465Y-101911207D01*
X135278216Y-101881100D01*
X135175000Y-101870934D01*
X134975000Y-101870934D01*
X134871784Y-101881100D01*
X134772535Y-101911207D01*
X134750000Y-101923252D01*
X134727465Y-101911207D01*
X134628216Y-101881100D01*
X134525000Y-101870934D01*
X134325000Y-101870934D01*
X134221784Y-101881100D01*
X134122535Y-101911207D01*
X134100000Y-101923252D01*
X134077465Y-101911207D01*
X133978216Y-101881100D01*
X133875000Y-101870934D01*
X133675000Y-101870934D01*
X133571784Y-101881100D01*
X133472535Y-101911207D01*
X133381067Y-101960098D01*
X133300894Y-102025894D01*
X133235098Y-102106067D01*
X133186207Y-102197535D01*
X133156100Y-102296784D01*
X133145934Y-102400000D01*
X133145934Y-102423000D01*
X132766558Y-102423000D01*
X132766018Y-102417520D01*
X132727375Y-102290132D01*
X132664623Y-102172731D01*
X132580172Y-102069828D01*
X132477269Y-101985377D01*
X132359868Y-101922625D01*
X132232480Y-101883982D01*
X132100001Y-101870934D01*
X131399999Y-101870934D01*
X131267520Y-101883982D01*
X131140132Y-101922625D01*
X131022731Y-101985377D01*
X130919828Y-102069828D01*
X130835377Y-102172731D01*
X130772625Y-102290132D01*
X130733982Y-102417520D01*
X130720934Y-102549999D01*
X130720934Y-103450001D01*
X130733982Y-103582480D01*
X130772625Y-103709868D01*
X130835377Y-103827269D01*
X130919828Y-103930172D01*
X131022731Y-104014623D01*
X131140132Y-104077375D01*
X131267520Y-104116018D01*
X131399999Y-104129066D01*
X132100001Y-104129066D01*
X132232480Y-104116018D01*
X132359868Y-104077375D01*
X132477269Y-104014623D01*
X132580172Y-103930172D01*
X132664623Y-103827269D01*
X132727375Y-103709868D01*
X132766018Y-103582480D01*
X132766558Y-103577000D01*
X133145934Y-103577000D01*
X133145934Y-103825000D01*
X133156100Y-103928216D01*
X133186207Y-104027465D01*
X133198000Y-104049528D01*
X133198001Y-107672999D01*
X133087542Y-107672999D01*
X132176570Y-106762027D01*
X132158506Y-106740016D01*
X132070647Y-106667911D01*
X131970408Y-106614333D01*
X131906302Y-106594887D01*
X131861643Y-106581339D01*
X131806577Y-106575916D01*
X131776868Y-106572990D01*
X131776863Y-106572990D01*
X131748532Y-106570200D01*
X131720201Y-106572990D01*
X129537536Y-106572990D01*
X129376576Y-106412029D01*
X129358510Y-106390016D01*
X129270651Y-106317911D01*
X129170412Y-106264333D01*
X129106306Y-106244887D01*
X129061647Y-106231339D01*
X129006581Y-106225916D01*
X128976872Y-106222990D01*
X128976867Y-106222990D01*
X128948536Y-106220200D01*
X128920205Y-106222990D01*
X127038992Y-106222990D01*
X126327000Y-105510999D01*
X126327000Y-103779066D01*
X127600000Y-103779066D01*
X127683707Y-103770822D01*
X127764196Y-103746405D01*
X127838376Y-103706755D01*
X127903395Y-103653395D01*
X127956755Y-103588376D01*
X127996405Y-103514196D01*
X128020822Y-103433707D01*
X128029066Y-103350000D01*
X128029066Y-101650000D01*
X128020822Y-101566293D01*
X127996405Y-101485804D01*
X127956755Y-101411624D01*
X127903395Y-101346605D01*
X127838376Y-101293245D01*
X127764196Y-101253595D01*
X127683707Y-101229178D01*
X127600000Y-101220934D01*
X126956544Y-101220934D01*
X127122487Y-101187926D01*
X127354886Y-101091663D01*
X127564040Y-100951911D01*
X127741911Y-100774040D01*
X127881663Y-100564886D01*
X127977926Y-100332487D01*
X128027000Y-100085774D01*
X128027000Y-99834226D01*
X127977926Y-99587513D01*
X127881663Y-99355114D01*
X127741911Y-99145960D01*
X127564040Y-98968089D01*
X127354886Y-98828337D01*
X127122487Y-98732074D01*
X126875774Y-98683000D01*
X126624226Y-98683000D01*
X126462576Y-98715154D01*
X125927000Y-98179578D01*
X125927000Y-95030422D01*
X126530423Y-94427000D01*
X128219578Y-94427000D01*
X129093711Y-95301133D01*
X129062074Y-95377513D01*
X129013000Y-95624226D01*
X129013000Y-95875774D01*
X129062074Y-96122487D01*
X129158337Y-96354886D01*
X129298089Y-96564040D01*
X129475960Y-96741911D01*
X129613000Y-96833478D01*
X129613001Y-97945934D01*
X129525000Y-97945934D01*
X129392521Y-97958982D01*
X129265133Y-97997625D01*
X129147731Y-98060377D01*
X129044828Y-98144828D01*
X128960377Y-98247731D01*
X128897625Y-98365133D01*
X128858982Y-98492521D01*
X128845934Y-98625000D01*
X128845934Y-99300000D01*
X128858982Y-99432479D01*
X128897625Y-99559867D01*
X128960377Y-99677269D01*
X129044828Y-99780172D01*
X129147731Y-99864623D01*
X129265133Y-99927375D01*
X129392521Y-99966018D01*
X129525000Y-99979066D01*
X130475000Y-99979066D01*
X130607479Y-99966018D01*
X130734867Y-99927375D01*
X130852269Y-99864623D01*
X130955172Y-99780172D01*
X131039623Y-99677269D01*
X131102375Y-99559867D01*
X131141018Y-99432479D01*
X131154066Y-99300000D01*
X131154066Y-98625000D01*
X131141018Y-98492521D01*
X131102375Y-98365133D01*
X131039623Y-98247731D01*
X130967000Y-98159240D01*
X130967000Y-96833478D01*
X131104040Y-96741911D01*
X131281911Y-96564040D01*
X131373478Y-96427000D01*
X132720934Y-96427000D01*
X132720934Y-96850000D01*
X132733982Y-96982479D01*
X132772625Y-97109867D01*
X132835377Y-97227269D01*
X132919828Y-97330172D01*
X133022731Y-97414623D01*
X133140133Y-97477375D01*
X133198000Y-97494929D01*
X133198000Y-97950471D01*
X133186207Y-97972535D01*
X133156100Y-98071784D01*
X133145934Y-98175000D01*
X133145934Y-99600000D01*
X133156100Y-99703216D01*
X133186207Y-99802465D01*
X133235098Y-99893933D01*
X133300894Y-99974106D01*
X133381067Y-100039902D01*
X133472535Y-100088793D01*
X133571784Y-100118900D01*
X133675000Y-100129066D01*
X133875000Y-100129066D01*
X133978216Y-100118900D01*
X134077465Y-100088793D01*
X134168933Y-100039902D01*
X134249106Y-99974106D01*
X134314902Y-99893933D01*
X134363793Y-99802465D01*
X134393900Y-99703216D01*
X134404066Y-99600000D01*
X134404066Y-98175000D01*
X134393900Y-98071784D01*
X134363793Y-97972535D01*
X134352000Y-97950472D01*
X134352000Y-97353292D01*
X134380172Y-97330172D01*
X134464623Y-97227269D01*
X134527375Y-97109867D01*
X134566018Y-96982479D01*
X134579066Y-96850000D01*
X134579066Y-94650000D01*
X134920934Y-94650000D01*
X134920934Y-96850000D01*
X134933982Y-96982479D01*
X134972625Y-97109867D01*
X135035377Y-97227269D01*
X135119828Y-97330172D01*
X135222731Y-97414623D01*
X135273000Y-97441492D01*
X135273000Y-97782752D01*
X135250894Y-97800894D01*
X135185098Y-97881067D01*
X135136207Y-97972535D01*
X135106100Y-98071784D01*
X135095934Y-98175000D01*
X135095934Y-99600000D01*
X135106100Y-99703216D01*
X135136207Y-99802465D01*
X135185098Y-99893933D01*
X135250894Y-99974106D01*
X135331067Y-100039902D01*
X135422535Y-100088793D01*
X135521784Y-100118900D01*
X135625000Y-100129066D01*
X135825000Y-100129066D01*
X135928216Y-100118900D01*
X136027465Y-100088793D01*
X136118933Y-100039902D01*
X136199106Y-99974106D01*
X136264902Y-99893933D01*
X136313793Y-99802465D01*
X136343900Y-99703216D01*
X136354066Y-99600000D01*
X136354066Y-98880980D01*
X136385657Y-98821876D01*
X136402153Y-98767494D01*
X136418651Y-98713112D01*
X136429791Y-98600000D01*
X136427000Y-98571661D01*
X136427000Y-97441492D01*
X136477269Y-97414623D01*
X136580172Y-97330172D01*
X136664623Y-97227269D01*
X136727375Y-97109867D01*
X136766018Y-96982479D01*
X136779066Y-96850000D01*
X136779066Y-94650000D01*
X136766018Y-94517521D01*
X136727375Y-94390133D01*
X136664623Y-94272731D01*
X136580172Y-94169828D01*
X136477269Y-94085377D01*
X136359867Y-94022625D01*
X136232479Y-93983982D01*
X136100000Y-93970934D01*
X135600000Y-93970934D01*
X135467521Y-93983982D01*
X135340133Y-94022625D01*
X135222731Y-94085377D01*
X135119828Y-94169828D01*
X135035377Y-94272731D01*
X134972625Y-94390133D01*
X134933982Y-94517521D01*
X134920934Y-94650000D01*
X134579066Y-94650000D01*
X134566018Y-94517521D01*
X134527375Y-94390133D01*
X134464623Y-94272731D01*
X134380172Y-94169828D01*
X134277269Y-94085377D01*
X134159867Y-94022625D01*
X134032479Y-93983982D01*
X133900000Y-93970934D01*
X133400000Y-93970934D01*
X133267521Y-93983982D01*
X133140133Y-94022625D01*
X133022731Y-94085377D01*
X132919828Y-94169828D01*
X132835377Y-94272731D01*
X132772625Y-94390133D01*
X132733982Y-94517521D01*
X132720934Y-94650000D01*
X132720934Y-95073000D01*
X131373478Y-95073000D01*
X131281911Y-94935960D01*
X131104040Y-94758089D01*
X130894886Y-94618337D01*
X130662487Y-94522074D01*
X130415774Y-94473000D01*
X130180422Y-94473000D01*
X129002226Y-93294804D01*
X128981027Y-93268973D01*
X128877941Y-93184372D01*
X128760330Y-93121508D01*
X128632715Y-93082796D01*
X128533252Y-93073000D01*
X128533245Y-93073000D01*
X128500000Y-93069726D01*
X128466755Y-93073000D01*
X126283252Y-93073000D01*
X126250000Y-93069725D01*
X126216748Y-93073000D01*
X126117285Y-93082796D01*
X125989670Y-93121508D01*
X125872059Y-93184372D01*
X125768973Y-93268973D01*
X125747778Y-93294799D01*
X124794800Y-94247778D01*
X124768974Y-94268973D01*
X124747779Y-94294799D01*
X124747776Y-94294802D01*
X124684372Y-94372060D01*
X124621508Y-94489671D01*
X124582796Y-94617286D01*
X124569726Y-94750000D01*
X124127000Y-94750000D01*
X124127000Y-93002000D01*
X139873000Y-93002000D01*
X139873000Y-114623000D01*
G04 #@! TA.AperFunction,Conductor*
D18*
G36*
X139873000Y-114623000D02*
G01*
X124127000Y-114623000D01*
X124127000Y-94750000D01*
X124569726Y-94750000D01*
X124573001Y-94783254D01*
X124573000Y-98426755D01*
X124569726Y-98460000D01*
X124573000Y-98493245D01*
X124573000Y-98493251D01*
X124582796Y-98592714D01*
X124621508Y-98720329D01*
X124684372Y-98837940D01*
X124768973Y-98941026D01*
X124794800Y-98962222D01*
X125505154Y-99672576D01*
X125473000Y-99834226D01*
X125473000Y-100085774D01*
X125522074Y-100332487D01*
X125618337Y-100564886D01*
X125758089Y-100774040D01*
X125935960Y-100951911D01*
X126145114Y-101091663D01*
X126377513Y-101187926D01*
X126543456Y-101220934D01*
X125900000Y-101220934D01*
X125816293Y-101229178D01*
X125735804Y-101253595D01*
X125661624Y-101293245D01*
X125596605Y-101346605D01*
X125543245Y-101411624D01*
X125503595Y-101485804D01*
X125479178Y-101566293D01*
X125470934Y-101650000D01*
X125470934Y-102963065D01*
X125362034Y-103071965D01*
X125340027Y-103090026D01*
X125321966Y-103112033D01*
X125321963Y-103112036D01*
X125298840Y-103140212D01*
X125267922Y-103177885D01*
X125214344Y-103278124D01*
X125181349Y-103386889D01*
X125170210Y-103500000D01*
X125173001Y-103528341D01*
X125173000Y-105721669D01*
X125170210Y-105750000D01*
X125173000Y-105778331D01*
X125173000Y-105778335D01*
X125175334Y-105802028D01*
X125181349Y-105863111D01*
X125200796Y-105927217D01*
X125214343Y-105971875D01*
X125267921Y-106072114D01*
X125340026Y-106159974D01*
X125362038Y-106178039D01*
X126371955Y-107187957D01*
X126390016Y-107209964D01*
X126412023Y-107228025D01*
X126412025Y-107228027D01*
X126431970Y-107244395D01*
X126477875Y-107282069D01*
X126578114Y-107335647D01*
X126686878Y-107368640D01*
X126771654Y-107376990D01*
X126771660Y-107376990D01*
X126799989Y-107379780D01*
X126828318Y-107376990D01*
X127123200Y-107376990D01*
X127120934Y-107399999D01*
X127120934Y-108100001D01*
X127133982Y-108232480D01*
X127172625Y-108359868D01*
X127235377Y-108477269D01*
X127319828Y-108580172D01*
X127422731Y-108664623D01*
X127540132Y-108727375D01*
X127667520Y-108766018D01*
X127799999Y-108779066D01*
X128700001Y-108779066D01*
X128832480Y-108766018D01*
X128959868Y-108727375D01*
X129077269Y-108664623D01*
X129180172Y-108580172D01*
X129264623Y-108477269D01*
X129291492Y-108427000D01*
X131219578Y-108427000D01*
X131920934Y-109128357D01*
X131920934Y-110400000D01*
X131929178Y-110483707D01*
X131953595Y-110564196D01*
X131993245Y-110638376D01*
X132046605Y-110703395D01*
X132111624Y-110756755D01*
X132185804Y-110796405D01*
X132266293Y-110820822D01*
X132350000Y-110829066D01*
X134150000Y-110829066D01*
X134233707Y-110820822D01*
X134314196Y-110796405D01*
X134388376Y-110756755D01*
X134453395Y-110703395D01*
X134506755Y-110638376D01*
X134546405Y-110564196D01*
X134570822Y-110483707D01*
X134579066Y-110400000D01*
X134579066Y-110044164D01*
X134614028Y-110128570D01*
X134759252Y-110345913D01*
X134944087Y-110530748D01*
X135161430Y-110675972D01*
X135402928Y-110776004D01*
X135659302Y-110827000D01*
X135920698Y-110827000D01*
X136177072Y-110776004D01*
X136418570Y-110675972D01*
X136635913Y-110530748D01*
X136820748Y-110345913D01*
X136965972Y-110128570D01*
X137066004Y-109887072D01*
X137117000Y-109630698D01*
X137117000Y-109369302D01*
X137066004Y-109112928D01*
X136965972Y-108871430D01*
X136820748Y-108654087D01*
X136652000Y-108485339D01*
X136652000Y-104479462D01*
X136638587Y-104343276D01*
X136585580Y-104168536D01*
X136499501Y-104007495D01*
X136464216Y-103964500D01*
X136944273Y-103964500D01*
X137015133Y-104002375D01*
X137142521Y-104041018D01*
X137275000Y-104054066D01*
X138225000Y-104054066D01*
X138357479Y-104041018D01*
X138484867Y-104002375D01*
X138602269Y-103939623D01*
X138705172Y-103855172D01*
X138789623Y-103752269D01*
X138852375Y-103634867D01*
X138891018Y-103507479D01*
X138904066Y-103375000D01*
X138904066Y-102700000D01*
X138891018Y-102567521D01*
X138852375Y-102440133D01*
X138789623Y-102322731D01*
X138705172Y-102219828D01*
X138602269Y-102135377D01*
X138484867Y-102072625D01*
X138357479Y-102033982D01*
X138225000Y-102020934D01*
X137275000Y-102020934D01*
X137142521Y-102033982D01*
X137015133Y-102072625D01*
X136944273Y-102110500D01*
X136267272Y-102110500D01*
X136264902Y-102106067D01*
X136199106Y-102025894D01*
X136118933Y-101960098D01*
X136027465Y-101911207D01*
X135928216Y-101881100D01*
X135825000Y-101870934D01*
X135625000Y-101870934D01*
X135521784Y-101881100D01*
X135422535Y-101911207D01*
X135400000Y-101923252D01*
X135377465Y-101911207D01*
X135278216Y-101881100D01*
X135175000Y-101870934D01*
X134975000Y-101870934D01*
X134871784Y-101881100D01*
X134772535Y-101911207D01*
X134750000Y-101923252D01*
X134727465Y-101911207D01*
X134628216Y-101881100D01*
X134525000Y-101870934D01*
X134325000Y-101870934D01*
X134221784Y-101881100D01*
X134122535Y-101911207D01*
X134100000Y-101923252D01*
X134077465Y-101911207D01*
X133978216Y-101881100D01*
X133875000Y-101870934D01*
X133675000Y-101870934D01*
X133571784Y-101881100D01*
X133472535Y-101911207D01*
X133381067Y-101960098D01*
X133300894Y-102025894D01*
X133235098Y-102106067D01*
X133186207Y-102197535D01*
X133156100Y-102296784D01*
X133145934Y-102400000D01*
X133145934Y-102423000D01*
X132766558Y-102423000D01*
X132766018Y-102417520D01*
X132727375Y-102290132D01*
X132664623Y-102172731D01*
X132580172Y-102069828D01*
X132477269Y-101985377D01*
X132359868Y-101922625D01*
X132232480Y-101883982D01*
X132100001Y-101870934D01*
X131399999Y-101870934D01*
X131267520Y-101883982D01*
X131140132Y-101922625D01*
X131022731Y-101985377D01*
X130919828Y-102069828D01*
X130835377Y-102172731D01*
X130772625Y-102290132D01*
X130733982Y-102417520D01*
X130720934Y-102549999D01*
X130720934Y-103450001D01*
X130733982Y-103582480D01*
X130772625Y-103709868D01*
X130835377Y-103827269D01*
X130919828Y-103930172D01*
X131022731Y-104014623D01*
X131140132Y-104077375D01*
X131267520Y-104116018D01*
X131399999Y-104129066D01*
X132100001Y-104129066D01*
X132232480Y-104116018D01*
X132359868Y-104077375D01*
X132477269Y-104014623D01*
X132580172Y-103930172D01*
X132664623Y-103827269D01*
X132727375Y-103709868D01*
X132766018Y-103582480D01*
X132766558Y-103577000D01*
X133145934Y-103577000D01*
X133145934Y-103825000D01*
X133156100Y-103928216D01*
X133186207Y-104027465D01*
X133198000Y-104049528D01*
X133198001Y-107672999D01*
X133087542Y-107672999D01*
X132176570Y-106762027D01*
X132158506Y-106740016D01*
X132070647Y-106667911D01*
X131970408Y-106614333D01*
X131906302Y-106594887D01*
X131861643Y-106581339D01*
X131806577Y-106575916D01*
X131776868Y-106572990D01*
X131776863Y-106572990D01*
X131748532Y-106570200D01*
X131720201Y-106572990D01*
X129537536Y-106572990D01*
X129376576Y-106412029D01*
X129358510Y-106390016D01*
X129270651Y-106317911D01*
X129170412Y-106264333D01*
X129106306Y-106244887D01*
X129061647Y-106231339D01*
X129006581Y-106225916D01*
X128976872Y-106222990D01*
X128976867Y-106222990D01*
X128948536Y-106220200D01*
X128920205Y-106222990D01*
X127038992Y-106222990D01*
X126327000Y-105510999D01*
X126327000Y-103779066D01*
X127600000Y-103779066D01*
X127683707Y-103770822D01*
X127764196Y-103746405D01*
X127838376Y-103706755D01*
X127903395Y-103653395D01*
X127956755Y-103588376D01*
X127996405Y-103514196D01*
X128020822Y-103433707D01*
X128029066Y-103350000D01*
X128029066Y-101650000D01*
X128020822Y-101566293D01*
X127996405Y-101485804D01*
X127956755Y-101411624D01*
X127903395Y-101346605D01*
X127838376Y-101293245D01*
X127764196Y-101253595D01*
X127683707Y-101229178D01*
X127600000Y-101220934D01*
X126956544Y-101220934D01*
X127122487Y-101187926D01*
X127354886Y-101091663D01*
X127564040Y-100951911D01*
X127741911Y-100774040D01*
X127881663Y-100564886D01*
X127977926Y-100332487D01*
X128027000Y-100085774D01*
X128027000Y-99834226D01*
X127977926Y-99587513D01*
X127881663Y-99355114D01*
X127741911Y-99145960D01*
X127564040Y-98968089D01*
X127354886Y-98828337D01*
X127122487Y-98732074D01*
X126875774Y-98683000D01*
X126624226Y-98683000D01*
X126462576Y-98715154D01*
X125927000Y-98179578D01*
X125927000Y-95030422D01*
X126530423Y-94427000D01*
X128219578Y-94427000D01*
X129093711Y-95301133D01*
X129062074Y-95377513D01*
X129013000Y-95624226D01*
X129013000Y-95875774D01*
X129062074Y-96122487D01*
X129158337Y-96354886D01*
X129298089Y-96564040D01*
X129475960Y-96741911D01*
X129613000Y-96833478D01*
X129613001Y-97945934D01*
X129525000Y-97945934D01*
X129392521Y-97958982D01*
X129265133Y-97997625D01*
X129147731Y-98060377D01*
X129044828Y-98144828D01*
X128960377Y-98247731D01*
X128897625Y-98365133D01*
X128858982Y-98492521D01*
X128845934Y-98625000D01*
X128845934Y-99300000D01*
X128858982Y-99432479D01*
X128897625Y-99559867D01*
X128960377Y-99677269D01*
X129044828Y-99780172D01*
X129147731Y-99864623D01*
X129265133Y-99927375D01*
X129392521Y-99966018D01*
X129525000Y-99979066D01*
X130475000Y-99979066D01*
X130607479Y-99966018D01*
X130734867Y-99927375D01*
X130852269Y-99864623D01*
X130955172Y-99780172D01*
X131039623Y-99677269D01*
X131102375Y-99559867D01*
X131141018Y-99432479D01*
X131154066Y-99300000D01*
X131154066Y-98625000D01*
X131141018Y-98492521D01*
X131102375Y-98365133D01*
X131039623Y-98247731D01*
X130967000Y-98159240D01*
X130967000Y-96833478D01*
X131104040Y-96741911D01*
X131281911Y-96564040D01*
X131373478Y-96427000D01*
X132720934Y-96427000D01*
X132720934Y-96850000D01*
X132733982Y-96982479D01*
X132772625Y-97109867D01*
X132835377Y-97227269D01*
X132919828Y-97330172D01*
X133022731Y-97414623D01*
X133140133Y-97477375D01*
X133198000Y-97494929D01*
X133198000Y-97950471D01*
X133186207Y-97972535D01*
X133156100Y-98071784D01*
X133145934Y-98175000D01*
X133145934Y-99600000D01*
X133156100Y-99703216D01*
X133186207Y-99802465D01*
X133235098Y-99893933D01*
X133300894Y-99974106D01*
X133381067Y-100039902D01*
X133472535Y-100088793D01*
X133571784Y-100118900D01*
X133675000Y-100129066D01*
X133875000Y-100129066D01*
X133978216Y-100118900D01*
X134077465Y-100088793D01*
X134168933Y-100039902D01*
X134249106Y-99974106D01*
X134314902Y-99893933D01*
X134363793Y-99802465D01*
X134393900Y-99703216D01*
X134404066Y-99600000D01*
X134404066Y-98175000D01*
X134393900Y-98071784D01*
X134363793Y-97972535D01*
X134352000Y-97950472D01*
X134352000Y-97353292D01*
X134380172Y-97330172D01*
X134464623Y-97227269D01*
X134527375Y-97109867D01*
X134566018Y-96982479D01*
X134579066Y-96850000D01*
X134579066Y-94650000D01*
X134920934Y-94650000D01*
X134920934Y-96850000D01*
X134933982Y-96982479D01*
X134972625Y-97109867D01*
X135035377Y-97227269D01*
X135119828Y-97330172D01*
X135222731Y-97414623D01*
X135273000Y-97441492D01*
X135273000Y-97782752D01*
X135250894Y-97800894D01*
X135185098Y-97881067D01*
X135136207Y-97972535D01*
X135106100Y-98071784D01*
X135095934Y-98175000D01*
X135095934Y-99600000D01*
X135106100Y-99703216D01*
X135136207Y-99802465D01*
X135185098Y-99893933D01*
X135250894Y-99974106D01*
X135331067Y-100039902D01*
X135422535Y-100088793D01*
X135521784Y-100118900D01*
X135625000Y-100129066D01*
X135825000Y-100129066D01*
X135928216Y-100118900D01*
X136027465Y-100088793D01*
X136118933Y-100039902D01*
X136199106Y-99974106D01*
X136264902Y-99893933D01*
X136313793Y-99802465D01*
X136343900Y-99703216D01*
X136354066Y-99600000D01*
X136354066Y-98880980D01*
X136385657Y-98821876D01*
X136402153Y-98767494D01*
X136418651Y-98713112D01*
X136429791Y-98600000D01*
X136427000Y-98571661D01*
X136427000Y-97441492D01*
X136477269Y-97414623D01*
X136580172Y-97330172D01*
X136664623Y-97227269D01*
X136727375Y-97109867D01*
X136766018Y-96982479D01*
X136779066Y-96850000D01*
X136779066Y-94650000D01*
X136766018Y-94517521D01*
X136727375Y-94390133D01*
X136664623Y-94272731D01*
X136580172Y-94169828D01*
X136477269Y-94085377D01*
X136359867Y-94022625D01*
X136232479Y-93983982D01*
X136100000Y-93970934D01*
X135600000Y-93970934D01*
X135467521Y-93983982D01*
X135340133Y-94022625D01*
X135222731Y-94085377D01*
X135119828Y-94169828D01*
X135035377Y-94272731D01*
X134972625Y-94390133D01*
X134933982Y-94517521D01*
X134920934Y-94650000D01*
X134579066Y-94650000D01*
X134566018Y-94517521D01*
X134527375Y-94390133D01*
X134464623Y-94272731D01*
X134380172Y-94169828D01*
X134277269Y-94085377D01*
X134159867Y-94022625D01*
X134032479Y-93983982D01*
X133900000Y-93970934D01*
X133400000Y-93970934D01*
X133267521Y-93983982D01*
X133140133Y-94022625D01*
X133022731Y-94085377D01*
X132919828Y-94169828D01*
X132835377Y-94272731D01*
X132772625Y-94390133D01*
X132733982Y-94517521D01*
X132720934Y-94650000D01*
X132720934Y-95073000D01*
X131373478Y-95073000D01*
X131281911Y-94935960D01*
X131104040Y-94758089D01*
X130894886Y-94618337D01*
X130662487Y-94522074D01*
X130415774Y-94473000D01*
X130180422Y-94473000D01*
X129002226Y-93294804D01*
X128981027Y-93268973D01*
X128877941Y-93184372D01*
X128760330Y-93121508D01*
X128632715Y-93082796D01*
X128533252Y-93073000D01*
X128533245Y-93073000D01*
X128500000Y-93069726D01*
X128466755Y-93073000D01*
X126283252Y-93073000D01*
X126250000Y-93069725D01*
X126216748Y-93073000D01*
X126117285Y-93082796D01*
X125989670Y-93121508D01*
X125872059Y-93184372D01*
X125768973Y-93268973D01*
X125747778Y-93294799D01*
X124794800Y-94247778D01*
X124768974Y-94268973D01*
X124747779Y-94294799D01*
X124747776Y-94294802D01*
X124684372Y-94372060D01*
X124621508Y-94489671D01*
X124582796Y-94617286D01*
X124569726Y-94750000D01*
X124127000Y-94750000D01*
X124127000Y-93002000D01*
X139873000Y-93002000D01*
X139873000Y-114623000D01*
G37*
G04 #@! TD.AperFunction*
M02*
